<?xml version='1.0' encoding='utf-8'?>
<mlt LC_NUMERIC="C" producer="main_bin" version="6.25.0" root="C:/Users/user/Desktop/a handful of stupid mindustry memes">
 <profile frame_rate_num="30" sample_aspect_num="1" display_aspect_den="1080" colorspace="709" progressive="1" description="2312x1080 30.00fps" display_aspect_num="2312" frame_rate_den="1" width="2312" height="1080" sample_aspect_den="1"/>
 <producer id="producer0" in="00:00:00.000" out="00:00:04.967">
  <property name="length">00:00:05.000</property>
  <property name="eof">pause</property>
  <property name="resource">images/calendar.png</property>
  <property name="ttl">25</property>
  <property name="aspect_ratio">1</property>
  <property name="progressive">1</property>
  <property name="seekable">1</property>
  <property name="meta.media.width">2310</property>
  <property name="meta.media.height">1080</property>
  <property name="mlt_service">qimage</property>
  <property name="kdenlive:clipname"/>
  <property name="kdenlive:duration">00:00:05.000</property>
  <property name="kdenlive:folderid">-1</property>
  <property name="kdenlive:id">2</property>
  <property name="kdenlive:file_size">28755</property>
  <property name="kdenlive:file_hash">1e6964191329781a092b1fe6875a29f7</property>
  <property name="global_feed">1</property>
 </producer>
 <producer id="producer1" in="00:00:00.000" out="00:00:09.233">
  <property name="length">278</property>
  <property name="eof">pause</property>
  <property name="resource">images/calendar (1).png</property>
  <property name="ttl">25</property>
  <property name="aspect_ratio">1</property>
  <property name="progressive">1</property>
  <property name="seekable">1</property>
  <property name="meta.media.width">2310</property>
  <property name="meta.media.height">1080</property>
  <property name="mlt_service">qimage</property>
  <property name="kdenlive:clipname"/>
  <property name="kdenlive:duration">00:00:05.000</property>
  <property name="kdenlive:folderid">-1</property>
  <property name="kdenlive:id">3</property>
  <property name="kdenlive:file_size">3828525</property>
  <property name="kdenlive:file_hash">09d667d0f5b69c2a0068ac0605762149</property>
 </producer>
 <producer id="producer2" in="00:00:00.000" out="00:03:52.767">
  <property name="length">6984</property>
  <property name="eof">pause</property>
  <property name="resource">music/Bastille - Pompeii.mp3</property>
  <property name="meta.media.nb_streams">1</property>
  <property name="meta.media.0.stream.type">audio</property>
  <property name="meta.media.0.codec.sample_fmt">fltp</property>
  <property name="meta.media.0.codec.sample_rate">44100</property>
  <property name="meta.media.0.codec.channels">2</property>
  <property name="meta.media.0.codec.name">mp3float</property>
  <property name="meta.media.0.codec.long_name">MP3 (MPEG audio layer 3)</property>
  <property name="meta.media.0.codec.bit_rate">192000</property>
  <property name="meta.attr.0.stream.encoder.markup">Lavc57.64</property>
  <property name="meta.attr.major_brand.markup">dash</property>
  <property name="meta.attr.minor_version.markup">0</property>
  <property name="meta.attr.compatible_brands.markup">iso6mp41</property>
  <property name="meta.attr.encoder.markup">Lavf57.56.101</property>
  <property name="seekable">1</property>
  <property name="audio_index">0</property>
  <property name="video_index">-1</property>
  <property name="mute_on_pause">1</property>
  <property name="mlt_service">avformat</property>
  <property name="kdenlive:clipname"/>
  <property name="kdenlive:folderid">-1</property>
  <property name="kdenlive:id">4</property>
  <property name="kdenlive:file_size">5588042</property>
  <property name="kdenlive:file_hash">ea9250acbf8f2d19442e6e304793b76d</property>
  <property name="global_feed">1</property>
  <property name="kdenlive:audio_max">6</property>
 </producer>
 <producer id="producer3" in="00:00:00.000" out="00:00:04.967">
  <property name="length">00:00:05.000</property>
  <property name="eof">pause</property>
  <property name="resource">images/render.png</property>
  <property name="ttl">25</property>
  <property name="aspect_ratio">1</property>
  <property name="progressive">1</property>
  <property name="seekable">1</property>
  <property name="meta.media.width">404</property>
  <property name="meta.media.height">336</property>
  <property name="mlt_service">qimage</property>
  <property name="kdenlive:clipname"/>
  <property name="kdenlive:duration">00:00:05.000</property>
  <property name="kdenlive:folderid">-1</property>
  <property name="kdenlive:id">5</property>
  <property name="kdenlive:file_size">2210</property>
  <property name="kdenlive:file_hash">d9fec080c96ef118b9aaae1ba280484f</property>
 </producer>
 <producer id="producer4" in="00:00:00.000" out="00:03:35.067">
  <property name="length">6453</property>
  <property name="eof">pause</property>
  <property name="resource">clips/never gonna give you up but i put router's face on top of rick astley's face.mp4</property>
  <property name="audio_index">1</property>
  <property name="video_index">0</property>
  <property name="mute_on_pause">0</property>
  <property name="mlt_service">avformat-novalidate</property>
  <property name="meta.media.nb_streams">2</property>
  <property name="meta.media.0.stream.type">video</property>
  <property name="meta.media.0.stream.frame_rate">30</property>
  <property name="meta.media.0.stream.sample_aspect_ratio">1</property>
  <property name="meta.media.0.codec.width">1280</property>
  <property name="meta.media.0.codec.height">720</property>
  <property name="meta.media.0.codec.rotate">0</property>
  <property name="meta.media.0.codec.frame_rate">30</property>
  <property name="meta.media.0.codec.pix_fmt">yuv420p</property>
  <property name="meta.media.0.codec.sample_aspect_ratio">1</property>
  <property name="meta.media.0.codec.colorspace">709</property>
  <property name="meta.media.0.codec.name">h264</property>
  <property name="meta.media.0.codec.long_name">H.264 / AVC / MPEG-4 AVC / MPEG-4 part 10</property>
  <property name="meta.media.0.codec.bit_rate">2044023</property>
  <property name="meta.attr.0.stream.handler_name.markup">VideoHandler</property>
  <property name="meta.media.1.stream.type">audio</property>
  <property name="meta.media.1.codec.sample_fmt">fltp</property>
  <property name="meta.media.1.codec.sample_rate">44100</property>
  <property name="meta.media.1.codec.channels">2</property>
  <property name="meta.media.1.codec.name">aac</property>
  <property name="meta.media.1.codec.long_name">AAC (Advanced Audio Coding)</property>
  <property name="meta.media.1.codec.bit_rate">190732</property>
  <property name="meta.attr.1.stream.handler_name.markup">SoundHandler</property>
  <property name="meta.attr.major_brand.markup">isom</property>
  <property name="meta.attr.minor_version.markup">512</property>
  <property name="meta.attr.compatible_brands.markup">isomiso2avc1mp41</property>
  <property name="meta.attr.encoder.markup">Lavf58.46.101</property>
  <property name="seekable">1</property>
  <property name="meta.media.sample_aspect_num">1</property>
  <property name="meta.media.sample_aspect_den">1</property>
  <property name="aspect_ratio">1</property>
  <property name="kdenlive:clipname"/>
  <property name="kdenlive:folderid">-1</property>
  <property name="meta.media.frame_rate_num">30</property>
  <property name="meta.media.frame_rate_den">1</property>
  <property name="meta.media.colorspace">709</property>
  <property name="meta.media.color_trc">2</property>
  <property name="meta.media.width">1280</property>
  <property name="meta.media.height">720</property>
  <property name="meta.media.color_range">mpeg</property>
  <property name="kdenlive:id">6</property>
  <property name="kdenlive:file_size">60270763</property>
  <property name="kdenlive:file_hash">c58d662c6586ac72df5c23b0fb08eeb3</property>
  <property name="meta.media.top_field_first">0</property>
  <property name="meta.media.progressive">1</property>
  <property name="global_feed">1</property>
  <property name="kdenlive:audio_max">1</property>
 </producer>
 <producer id="producer5" in="00:00:00.000" out="00:00:47.700">
  <property name="length">1432</property>
  <property name="eof">pause</property>
  <property name="resource">music/wen da impusta is sus.wav</property>
  <property name="meta.media.nb_streams">1</property>
  <property name="meta.media.0.stream.type">audio</property>
  <property name="meta.media.0.codec.sample_fmt">s16</property>
  <property name="meta.media.0.codec.sample_rate">44100</property>
  <property name="meta.media.0.codec.channels">2</property>
  <property name="meta.media.0.codec.name">pcm_s16le</property>
  <property name="meta.media.0.codec.long_name">PCM signed 16-bit little-endian</property>
  <property name="meta.media.0.codec.bit_rate">1411200</property>
  <property name="meta.attr.comment.markup">sus</property>
  <property name="seekable">1</property>
  <property name="audio_index">0</property>
  <property name="video_index">-1</property>
  <property name="mute_on_pause">1</property>
  <property name="mlt_service">avformat</property>
  <property name="kdenlive:clipname"/>
  <property name="kdenlive:folderid">-1</property>
  <property name="kdenlive:id">7</property>
  <property name="kdenlive:file_size">8422532</property>
  <property name="kdenlive:file_hash">f378ca801a026bc71cfefe0f980c40f0</property>
  <property name="global_feed">1</property>
  <property name="kdenlive:audio_max">1</property>
 </producer>
 <producer id="producer6" in="00:00:00.000" out="00:00:06.867">
  <property name="length">207</property>
  <property name="eof">pause</property>
  <property name="resource">0xffffffff</property>
  <property name="aspect_ratio">1</property>
  <property name="mlt_service">color</property>
  <property name="kdenlive:clipname">wa</property>
  <property name="kdenlive:duration">00:00:05.000</property>
  <property name="kdenlive:folderid">-1</property>
  <property name="kdenlive:id">8</property>
  <property name="mlt_image_format">rgb24</property>
  <property name="kdenlive:file_hash">039b56a692cd66eefeea44a17539e5a2</property>
 </producer>
 <producer id="producer7" in="00:00:00.000" out="00:00:06.867">
  <property name="length">207</property>
  <property name="eof">pause</property>
  <property name="resource">images/sus.PNG</property>
  <property name="ttl">25</property>
  <property name="aspect_ratio">1</property>
  <property name="progressive">1</property>
  <property name="seekable">1</property>
  <property name="meta.media.width">247</property>
  <property name="meta.media.height">254</property>
  <property name="mlt_service">qimage</property>
  <property name="kdenlive:clipname"/>
  <property name="kdenlive:duration">00:00:05.000</property>
  <property name="kdenlive:folderid">-1</property>
  <property name="kdenlive:id">9</property>
  <property name="kdenlive:file_size">50291</property>
  <property name="kdenlive:file_hash">0af043aecdc7793f1dca9653f8ae0a71</property>
 </producer>
 <producer id="producer8" in="00:00:00.000" out="00:03:44.467">
  <property name="length">6735</property>
  <property name="eof">pause</property>
  <property name="resource">music/Anuke_the_Cat.ogg</property>
  <property name="meta.media.nb_streams">1</property>
  <property name="meta.media.0.stream.type">audio</property>
  <property name="meta.media.0.codec.sample_fmt">fltp</property>
  <property name="meta.media.0.codec.sample_rate">44100</property>
  <property name="meta.media.0.codec.channels">2</property>
  <property name="meta.media.0.codec.name">vorbis</property>
  <property name="meta.media.0.codec.long_name">Vorbis</property>
  <property name="meta.media.0.codec.bit_rate">160000</property>
  <property name="meta.attr.0.stream.Cool.markup">This song has been made using LMMS</property>
  <property name="seekable">1</property>
  <property name="audio_index">0</property>
  <property name="video_index">-1</property>
  <property name="mute_on_pause">1</property>
  <property name="mlt_service">avformat</property>
  <property name="kdenlive:clipname"/>
  <property name="kdenlive:folderid">-1</property>
  <property name="kdenlive:id">10</property>
  <property name="kdenlive:file_size">4582478</property>
  <property name="kdenlive:file_hash">db961babdf9174d394e0e9e13dc65fd1</property>
  <property name="kdenlive:audio_max">1</property>
  <property name="global_feed">1</property>
 </producer>
 <producer id="producer9" in="00:00:00.000" out="00:03:36.900">
  <property name="length">6508</property>
  <property name="eof">pause</property>
  <property name="resource">music/Nyan Cat [original].mp3</property>
  <property name="meta.media.nb_streams">1</property>
  <property name="meta.media.0.stream.type">audio</property>
  <property name="meta.media.0.codec.sample_fmt">fltp</property>
  <property name="meta.media.0.codec.sample_rate">44100</property>
  <property name="meta.media.0.codec.channels">2</property>
  <property name="meta.media.0.codec.name">mp3float</property>
  <property name="meta.media.0.codec.long_name">MP3 (MPEG audio layer 3)</property>
  <property name="meta.media.0.codec.bit_rate">192000</property>
  <property name="meta.attr.0.stream.encoder.markup">Lavc57.64</property>
  <property name="meta.attr.major_brand.markup">dash</property>
  <property name="meta.attr.minor_version.markup">0</property>
  <property name="meta.attr.compatible_brands.markup">iso6mp41</property>
  <property name="meta.attr.encoder.markup">Lavf57.56.101</property>
  <property name="seekable">1</property>
  <property name="audio_index">0</property>
  <property name="video_index">-1</property>
  <property name="mute_on_pause">1</property>
  <property name="mlt_service">avformat</property>
  <property name="kdenlive:clipname"/>
  <property name="kdenlive:folderid">-1</property>
  <property name="kdenlive:id">11</property>
  <property name="kdenlive:file_size">5206863</property>
  <property name="kdenlive:file_hash">63b63d59406b417859ea428995de7b22</property>
  <property name="global_feed">1</property>
  <property name="kdenlive:audio_max">1</property>
 </producer>
 <producer id="producer10" in="00:00:00.000" out="00:00:05.633">
  <property name="length">170</property>
  <property name="eof">pause</property>
  <property name="resource">clips/We'll Be Right Back Green Screen.mp4</property>
  <property name="audio_index">1</property>
  <property name="video_index">0</property>
  <property name="mute_on_pause">0</property>
  <property name="mlt_service">avformat-novalidate</property>
  <property name="meta.media.nb_streams">2</property>
  <property name="meta.media.0.stream.type">video</property>
  <property name="meta.media.0.stream.frame_rate">29.97</property>
  <property name="meta.media.0.stream.sample_aspect_ratio">0</property>
  <property name="meta.media.0.codec.width">640</property>
  <property name="meta.media.0.codec.height">360</property>
  <property name="meta.media.0.codec.rotate">0</property>
  <property name="meta.media.0.codec.frame_rate">29.97</property>
  <property name="meta.media.0.codec.pix_fmt">yuv420p</property>
  <property name="meta.media.0.codec.sample_aspect_ratio">1</property>
  <property name="meta.media.0.codec.colorspace">709</property>
  <property name="meta.media.0.codec.color_trc">1</property>
  <property name="meta.media.0.codec.name">h264</property>
  <property name="meta.media.0.codec.long_name">H.264 / AVC / MPEG-4 AVC / MPEG-4 part 10</property>
  <property name="meta.media.0.codec.bit_rate">337635</property>
  <property name="meta.attr.0.stream.creation_time.markup">2020-04-27T17:50:33.000000Z</property>
  <property name="meta.attr.0.stream.handler_name.markup">ISO Media file produced by Google Inc. Created on: 04/27/2020.</property>
  <property name="meta.media.1.stream.type">audio</property>
  <property name="meta.media.1.codec.sample_fmt">fltp</property>
  <property name="meta.media.1.codec.sample_rate">44100</property>
  <property name="meta.media.1.codec.channels">2</property>
  <property name="meta.media.1.codec.name">aac</property>
  <property name="meta.media.1.codec.long_name">AAC (Advanced Audio Coding)</property>
  <property name="meta.media.1.codec.bit_rate">95999</property>
  <property name="meta.attr.1.stream.creation_time.markup">2020-04-27T17:50:33.000000Z</property>
  <property name="meta.attr.1.stream.language.markup">eng</property>
  <property name="meta.attr.1.stream.handler_name.markup">ISO Media file produced by Google Inc. Created on: 04/27/2020.</property>
  <property name="meta.attr.major_brand.markup">mp42</property>
  <property name="meta.attr.minor_version.markup">0</property>
  <property name="meta.attr.compatible_brands.markup">isommp42</property>
  <property name="meta.attr.creation_time.markup">2020-04-27T17:50:33.000000Z</property>
  <property name="meta.attr.encoder.markup">Google</property>
  <property name="seekable">1</property>
  <property name="meta.media.sample_aspect_num">1</property>
  <property name="meta.media.sample_aspect_den">1</property>
  <property name="aspect_ratio">1</property>
  <property name="kdenlive:clipname"/>
  <property name="kdenlive:folderid">-1</property>
  <property name="meta.media.frame_rate_num">2997</property>
  <property name="meta.media.frame_rate_den">100</property>
  <property name="meta.media.colorspace">709</property>
  <property name="meta.media.color_trc">1</property>
  <property name="meta.media.width">640</property>
  <property name="meta.media.height">360</property>
  <property name="meta.media.color_range">mpeg</property>
  <property name="kdenlive:id">12</property>
  <property name="kdenlive:file_size">304818</property>
  <property name="kdenlive:file_hash">eafb977e5fa6aaacf38cbd61fe02ba41</property>
  <property name="meta.media.top_field_first">0</property>
  <property name="meta.media.progressive">1</property>
  <property name="global_feed">1</property>
  <property name="kdenlive:audio_max">4</property>
 </producer>
 <producer id="producer11" in="00:00:00.000" out="00:00:04.967">
  <property name="length">00:00:05.000</property>
  <property name="eof">pause</property>
  <property name="resource">images/maccat/pixil-frame-0.png</property>
  <property name="ttl">25</property>
  <property name="aspect_ratio">1</property>
  <property name="progressive">1</property>
  <property name="seekable">1</property>
  <property name="meta.media.width">100</property>
  <property name="meta.media.height">100</property>
  <property name="mlt_service">qimage</property>
  <property name="kdenlive:clipname"/>
  <property name="kdenlive:duration">00:00:05.000</property>
  <property name="kdenlive:folderid">-1</property>
  <property name="kdenlive:id">13</property>
  <property name="kdenlive:file_size">1255</property>
  <property name="kdenlive:file_hash">12d875155a3dfbfa165de5c56d4ca0b7</property>
 </producer>
 <producer id="producer12" in="00:00:00.000" out="00:00:04.967">
  <property name="length">00:00:05.000</property>
  <property name="eof">pause</property>
  <property name="resource">images/maccat/pixil-frame-0.png</property>
  <property name="ttl">25</property>
  <property name="aspect_ratio">1</property>
  <property name="progressive">1</property>
  <property name="seekable">1</property>
  <property name="meta.media.width">100</property>
  <property name="meta.media.height">100</property>
  <property name="mlt_service">qimage</property>
  <property name="kdenlive:clipname"/>
  <property name="kdenlive:duration">00:00:05.000</property>
  <property name="kdenlive:folderid">-1</property>
  <property name="kdenlive:id">14</property>
  <property name="kdenlive:file_size">1255</property>
  <property name="kdenlive:file_hash">12d875155a3dfbfa165de5c56d4ca0b7</property>
  <property name="global_feed">1</property>
 </producer>
 <producer id="producer13" in="00:00:00.000" out="00:00:04.967">
  <property name="length">00:00:05.000</property>
  <property name="eof">pause</property>
  <property name="resource">images/maccat/pixil-frame-1.png</property>
  <property name="ttl">25</property>
  <property name="aspect_ratio">1</property>
  <property name="progressive">1</property>
  <property name="seekable">1</property>
  <property name="meta.media.width">100</property>
  <property name="meta.media.height">100</property>
  <property name="mlt_service">qimage</property>
  <property name="kdenlive:clipname"/>
  <property name="kdenlive:duration">00:00:05.000</property>
  <property name="kdenlive:folderid">-1</property>
  <property name="kdenlive:id">15</property>
  <property name="kdenlive:file_size">1249</property>
  <property name="kdenlive:file_hash">f2efdea3040aee1835c5ddade5daf808</property>
  <property name="global_feed">1</property>
 </producer>
 <producer id="producer14" in="00:00:00.000" out="00:00:04.967">
  <property name="length">00:00:05.000</property>
  <property name="eof">pause</property>
  <property name="resource">images/maccat/pixil-frame-2.png</property>
  <property name="ttl">25</property>
  <property name="aspect_ratio">1</property>
  <property name="progressive">1</property>
  <property name="seekable">1</property>
  <property name="meta.media.width">100</property>
  <property name="meta.media.height">100</property>
  <property name="mlt_service">qimage</property>
  <property name="kdenlive:clipname"/>
  <property name="kdenlive:duration">00:00:05.000</property>
  <property name="kdenlive:folderid">-1</property>
  <property name="kdenlive:id">16</property>
  <property name="kdenlive:file_size">1257</property>
  <property name="kdenlive:file_hash">6b7ca7640219dec854279231503ca00f</property>
  <property name="global_feed">1</property>
 </producer>
 <producer id="producer15" in="00:00:00.000" out="00:00:04.967">
  <property name="length">00:00:05.000</property>
  <property name="eof">pause</property>
  <property name="resource">images/maccat/pixil-frame-3.png</property>
  <property name="ttl">25</property>
  <property name="aspect_ratio">1</property>
  <property name="progressive">1</property>
  <property name="seekable">1</property>
  <property name="meta.media.width">100</property>
  <property name="meta.media.height">100</property>
  <property name="mlt_service">qimage</property>
  <property name="kdenlive:clipname"/>
  <property name="kdenlive:duration">00:00:05.000</property>
  <property name="kdenlive:folderid">-1</property>
  <property name="kdenlive:id">17</property>
  <property name="kdenlive:file_size">1260</property>
  <property name="kdenlive:file_hash">d8add6532e6c0b2d49c754130d62cc68</property>
  <property name="global_feed">1</property>
 </producer>
 <producer id="producer16" in="00:00:00.000" out="00:00:04.967">
  <property name="length">00:00:05.000</property>
  <property name="eof">pause</property>
  <property name="resource">images/maccat/pixil-frame-4.png</property>
  <property name="ttl">25</property>
  <property name="aspect_ratio">1</property>
  <property name="progressive">1</property>
  <property name="seekable">1</property>
  <property name="meta.media.width">100</property>
  <property name="meta.media.height">100</property>
  <property name="mlt_service">qimage</property>
  <property name="kdenlive:clipname"/>
  <property name="kdenlive:duration">00:00:05.000</property>
  <property name="kdenlive:folderid">-1</property>
  <property name="kdenlive:id">18</property>
  <property name="kdenlive:file_size">1244</property>
  <property name="kdenlive:file_hash">1a72cb462896f258bd5bf6bd733c4447</property>
  <property name="global_feed">1</property>
 </producer>
 <producer id="producer17" in="00:00:00.000" out="00:00:04.967">
  <property name="length">00:00:05.000</property>
  <property name="eof">pause</property>
  <property name="resource">images/maccat/pixil-frame-5.png</property>
  <property name="ttl">25</property>
  <property name="aspect_ratio">1</property>
  <property name="progressive">1</property>
  <property name="seekable">1</property>
  <property name="meta.media.width">100</property>
  <property name="meta.media.height">100</property>
  <property name="mlt_service">qimage</property>
  <property name="kdenlive:clipname"/>
  <property name="kdenlive:duration">00:00:05.000</property>
  <property name="kdenlive:folderid">-1</property>
  <property name="kdenlive:id">19</property>
  <property name="kdenlive:file_size">1252</property>
  <property name="kdenlive:file_hash">bd08db90e7409687d9929a83c2f13cd4</property>
  <property name="global_feed">1</property>
 </producer>
 <producer id="producer18" in="00:00:00.000" out="00:00:04.967">
  <property name="length">00:00:05.000</property>
  <property name="eof">pause</property>
  <property name="resource">images/maccat/pixil-frame-6.png</property>
  <property name="ttl">25</property>
  <property name="aspect_ratio">1</property>
  <property name="progressive">1</property>
  <property name="seekable">1</property>
  <property name="meta.media.width">100</property>
  <property name="meta.media.height">100</property>
  <property name="mlt_service">qimage</property>
  <property name="kdenlive:clipname"/>
  <property name="kdenlive:duration">00:00:05.000</property>
  <property name="kdenlive:folderid">-1</property>
  <property name="kdenlive:id">20</property>
  <property name="kdenlive:file_size">1269</property>
  <property name="kdenlive:file_hash">263de33d15c7c8a4470b9ed16022f00d</property>
  <property name="global_feed">1</property>
 </producer>
 <producer id="producer19" in="00:00:00.000" out="00:00:04.967">
  <property name="length">00:00:05.000</property>
  <property name="eof">pause</property>
  <property name="resource">images/maccat/pixil-frame-7.png</property>
  <property name="ttl">25</property>
  <property name="aspect_ratio">1</property>
  <property name="progressive">1</property>
  <property name="seekable">1</property>
  <property name="meta.media.width">100</property>
  <property name="meta.media.height">100</property>
  <property name="mlt_service">qimage</property>
  <property name="kdenlive:clipname"/>
  <property name="kdenlive:duration">00:00:05.000</property>
  <property name="kdenlive:folderid">-1</property>
  <property name="kdenlive:id">21</property>
  <property name="kdenlive:file_size">1259</property>
  <property name="kdenlive:file_hash">ae6da79295383eba7e562346caa5fd21</property>
  <property name="global_feed">1</property>
 </producer>
 <producer id="producer20" in="00:00:00.000" out="00:00:04.967">
  <property name="length">00:00:05.000</property>
  <property name="eof">pause</property>
  <property name="resource">images/maccat/pixil-frame-8.png</property>
  <property name="ttl">25</property>
  <property name="aspect_ratio">1</property>
  <property name="progressive">1</property>
  <property name="seekable">1</property>
  <property name="meta.media.width">100</property>
  <property name="meta.media.height">100</property>
  <property name="mlt_service">qimage</property>
  <property name="kdenlive:clipname"/>
  <property name="kdenlive:duration">00:00:05.000</property>
  <property name="kdenlive:folderid">-1</property>
  <property name="kdenlive:id">22</property>
  <property name="kdenlive:file_size">1254</property>
  <property name="kdenlive:file_hash">acf89a953824cc0c85bc128ed4c84987</property>
  <property name="global_feed">1</property>
 </producer>
 <producer id="producer21" in="00:00:00.000" out="00:00:04.967">
  <property name="length">00:00:05.000</property>
  <property name="eof">pause</property>
  <property name="resource">images/maccat/pixil-frame-9.png</property>
  <property name="ttl">25</property>
  <property name="aspect_ratio">1</property>
  <property name="progressive">1</property>
  <property name="seekable">1</property>
  <property name="meta.media.width">100</property>
  <property name="meta.media.height">100</property>
  <property name="mlt_service">qimage</property>
  <property name="kdenlive:clipname"/>
  <property name="kdenlive:duration">00:00:05.000</property>
  <property name="kdenlive:folderid">-1</property>
  <property name="kdenlive:id">23</property>
  <property name="kdenlive:file_size">1254</property>
  <property name="kdenlive:file_hash">003714e5c2010780103d8d8bd13b91ec</property>
  <property name="global_feed">1</property>
 </producer>
 <producer id="producer22" in="00:00:00.000" out="00:00:04.967">
  <property name="length">00:00:05.000</property>
  <property name="eof">pause</property>
  <property name="resource">images/maccat/pixil-frame-10.png</property>
  <property name="ttl">25</property>
  <property name="aspect_ratio">1</property>
  <property name="progressive">1</property>
  <property name="seekable">1</property>
  <property name="meta.media.width">100</property>
  <property name="meta.media.height">100</property>
  <property name="mlt_service">qimage</property>
  <property name="kdenlive:clipname"/>
  <property name="kdenlive:duration">00:00:05.000</property>
  <property name="kdenlive:folderid">-1</property>
  <property name="kdenlive:id">24</property>
  <property name="kdenlive:file_size">1260</property>
  <property name="kdenlive:file_hash">1be92009700b054eb13ed05c51477488</property>
  <property name="global_feed">1</property>
 </producer>
 <producer id="producer23" in="00:00:00.000" out="00:00:04.967">
  <property name="length">00:00:05.000</property>
  <property name="eof">pause</property>
  <property name="resource">images/maccat/pixil-frame-11.png</property>
  <property name="ttl">25</property>
  <property name="aspect_ratio">1</property>
  <property name="progressive">1</property>
  <property name="seekable">1</property>
  <property name="meta.media.width">100</property>
  <property name="meta.media.height">100</property>
  <property name="mlt_service">qimage</property>
  <property name="kdenlive:clipname"/>
  <property name="kdenlive:duration">00:00:05.000</property>
  <property name="kdenlive:folderid">-1</property>
  <property name="kdenlive:id">25</property>
  <property name="kdenlive:file_size">1282</property>
  <property name="kdenlive:file_hash">7a97ffcd723cf7e581cf950645d8b80b</property>
  <property name="global_feed">1</property>
 </producer>
 <producer id="producer24" in="00:00:00.000" out="00:03:27.500">
  <property name="length">6226</property>
  <property name="eof">pause</property>
  <property name="resource">music/Redbone - Come and Get Your Love (Single Edit - Audio).mp3</property>
  <property name="meta.media.nb_streams">1</property>
  <property name="meta.media.0.stream.type">audio</property>
  <property name="meta.media.0.codec.sample_fmt">fltp</property>
  <property name="meta.media.0.codec.sample_rate">44100</property>
  <property name="meta.media.0.codec.channels">2</property>
  <property name="meta.media.0.codec.name">mp3float</property>
  <property name="meta.media.0.codec.long_name">MP3 (MPEG audio layer 3)</property>
  <property name="meta.media.0.codec.bit_rate">192000</property>
  <property name="meta.attr.0.stream.encoder.markup">Lavc57.64</property>
  <property name="meta.attr.major_brand.markup">dash</property>
  <property name="meta.attr.minor_version.markup">0</property>
  <property name="meta.attr.compatible_brands.markup">iso6mp41</property>
  <property name="meta.attr.encoder.markup">Lavf57.56.101</property>
  <property name="seekable">1</property>
  <property name="audio_index">0</property>
  <property name="video_index">-1</property>
  <property name="mute_on_pause">1</property>
  <property name="mlt_service">avformat</property>
  <property name="kdenlive:clipname"/>
  <property name="kdenlive:folderid">-1</property>
  <property name="kdenlive:id">26</property>
  <property name="kdenlive:file_size">4981792</property>
  <property name="kdenlive:file_hash">c4a6d5d0a18898f68851af9dd4ca811d</property>
  <property name="global_feed">1</property>
  <property name="kdenlive:audio_max">1</property>
 </producer>
 <producer id="producer25" in="00:00:00.000" out="00:00:05.033">
  <property name="length">152</property>
  <property name="eof">pause</property>
  <property name="resource">clips/Explosion croma key green screen, with explosion sound effect!.mp4</property>
  <property name="audio_index">1</property>
  <property name="video_index">0</property>
  <property name="mute_on_pause">0</property>
  <property name="mlt_service">avformat-novalidate</property>
  <property name="meta.media.nb_streams">2</property>
  <property name="meta.media.0.stream.type">video</property>
  <property name="meta.media.0.stream.frame_rate">25</property>
  <property name="meta.media.0.stream.sample_aspect_ratio">0</property>
  <property name="meta.media.0.codec.width">640</property>
  <property name="meta.media.0.codec.height">360</property>
  <property name="meta.media.0.codec.rotate">0</property>
  <property name="meta.media.0.codec.frame_rate">25</property>
  <property name="meta.media.0.codec.pix_fmt">yuv420p</property>
  <property name="meta.media.0.codec.sample_aspect_ratio">1</property>
  <property name="meta.media.0.codec.colorspace">601</property>
  <property name="meta.media.0.codec.name">h264</property>
  <property name="meta.media.0.codec.long_name">H.264 / AVC / MPEG-4 AVC / MPEG-4 part 10</property>
  <property name="meta.media.0.codec.bit_rate">281943</property>
  <property name="meta.attr.0.stream.handler_name.markup">VideoHandler</property>
  <property name="meta.media.1.stream.type">audio</property>
  <property name="meta.media.1.codec.sample_fmt">fltp</property>
  <property name="meta.media.1.codec.sample_rate">44100</property>
  <property name="meta.media.1.codec.channels">2</property>
  <property name="meta.media.1.codec.name">aac</property>
  <property name="meta.media.1.codec.long_name">AAC (Advanced Audio Coding)</property>
  <property name="meta.media.1.codec.bit_rate">95999</property>
  <property name="meta.attr.1.stream.creation_time.markup">2017-01-29T08:57:24.000000Z</property>
  <property name="meta.attr.1.stream.handler_name.markup">IsoMedia File Produced by Google, 5-11-2011</property>
  <property name="meta.attr.major_brand.markup">mp42</property>
  <property name="meta.attr.minor_version.markup">0</property>
  <property name="meta.attr.compatible_brands.markup">isommp42</property>
  <property name="meta.attr.creation_time.markup">2017-01-29T08:57:24.000000Z</property>
  <property name="seekable">1</property>
  <property name="meta.media.sample_aspect_num">1</property>
  <property name="meta.media.sample_aspect_den">1</property>
  <property name="aspect_ratio">1</property>
  <property name="kdenlive:clipname"/>
  <property name="kdenlive:folderid">-1</property>
  <property name="meta.media.frame_rate_num">25</property>
  <property name="meta.media.frame_rate_den">1</property>
  <property name="meta.media.colorspace">601</property>
  <property name="meta.media.color_trc">2</property>
  <property name="meta.media.width">640</property>
  <property name="meta.media.height">360</property>
  <property name="meta.media.color_range">mpeg</property>
  <property name="kdenlive:id">27</property>
  <property name="kdenlive:file_size">238277</property>
  <property name="kdenlive:file_hash">af98237d56441e41663d1025a831c5d1</property>
  <property name="meta.media.top_field_first">0</property>
  <property name="meta.media.progressive">1</property>
  <property name="global_feed">1</property>
  <property name="kdenlive:audio_max">1</property>
 </producer>
 <producer id="producer26" in="00:00:00.000" out="00:00:13.433">
  <property name="length">404</property>
  <property name="eof">pause</property>
  <property name="resource">images/router.png</property>
  <property name="ttl">25</property>
  <property name="aspect_ratio">1</property>
  <property name="progressive">1</property>
  <property name="seekable">1</property>
  <property name="meta.media.width">350</property>
  <property name="meta.media.height">350</property>
  <property name="mlt_service">qimage</property>
  <property name="kdenlive:clipname"/>
  <property name="kdenlive:duration">00:00:05.000</property>
  <property name="kdenlive:folderid">-1</property>
  <property name="kdenlive:id">28</property>
  <property name="kdenlive:file_size">1502</property>
  <property name="kdenlive:file_hash">fb7dca069e827a9e3e1bbf744a107497</property>
 </producer>
 <producer id="producer27" in="00:00:00.000" out="00:00:07.533">
  <property name="length">227</property>
  <property name="eof">pause</property>
  <property name="resource">images/sorter.png</property>
  <property name="ttl">25</property>
  <property name="aspect_ratio">1</property>
  <property name="progressive">1</property>
  <property name="seekable">1</property>
  <property name="meta.media.width">350</property>
  <property name="meta.media.height">350</property>
  <property name="mlt_service">qimage</property>
  <property name="kdenlive:clipname"/>
  <property name="kdenlive:duration">00:00:05.000</property>
  <property name="kdenlive:folderid">-1</property>
  <property name="kdenlive:id">29</property>
  <property name="kdenlive:file_size">1556</property>
  <property name="kdenlive:file_hash">f7f0a027f8e94650b89a8d1059c303fc</property>
 </producer>
 <producer id="producer28" in="00:00:00.000" out="00:00:04.967">
  <property name="length">00:00:05.000</property>
  <property name="eof">pause</property>
  <property name="resource">C:/Users/user/Desktop/big billy.PNG</property>
  <property name="ttl">25</property>
  <property name="aspect_ratio">1</property>
  <property name="progressive">1</property>
  <property name="seekable">1</property>
  <property name="meta.media.width">203</property>
  <property name="meta.media.height">175</property>
  <property name="mlt_service">qimage</property>
  <property name="kdenlive:clipname"/>
  <property name="kdenlive:duration">00:00:05.000</property>
  <property name="kdenlive:folderid">-1</property>
  <property name="kdenlive:id">30</property>
  <property name="kdenlive:file_size">75770</property>
  <property name="kdenlive:file_hash">2b283aa0276ceebeaf81503eed5b29cb</property>
 </producer>
 <producer id="producer29" in="00:00:00.000" out="00:00:18.000">
  <property name="length">541</property>
  <property name="eof">pause</property>
  <property name="resource">images/mien.png</property>
  <property name="ttl">25</property>
  <property name="aspect_ratio">1</property>
  <property name="progressive">1</property>
  <property name="seekable">1</property>
  <property name="meta.media.width">1200</property>
  <property name="meta.media.height">1200</property>
  <property name="mlt_service">qimage</property>
  <property name="kdenlive:clipname"/>
  <property name="kdenlive:duration">00:00:05.000</property>
  <property name="kdenlive:folderid">-1</property>
  <property name="kdenlive:id">31</property>
  <property name="kdenlive:file_size">6735</property>
  <property name="kdenlive:file_hash">0a5ab112c02666d4ca67e04ad04f7a5e</property>
 </producer>
 <producer id="producer30" in="00:00:00.000" out="00:06:09.267">
  <property name="length">11079</property>
  <property name="eof">pause</property>
  <property name="resource">music/GTA San Andreas Theme Song Full ! !.mp3</property>
  <property name="meta.media.nb_streams">1</property>
  <property name="meta.media.0.stream.type">audio</property>
  <property name="meta.media.0.codec.sample_fmt">fltp</property>
  <property name="meta.media.0.codec.sample_rate">44100</property>
  <property name="meta.media.0.codec.channels">2</property>
  <property name="meta.media.0.codec.name">mp3float</property>
  <property name="meta.media.0.codec.long_name">MP3 (MPEG audio layer 3)</property>
  <property name="meta.media.0.codec.bit_rate">192000</property>
  <property name="meta.attr.0.stream.encoder.markup">Lavc57.64</property>
  <property name="meta.attr.major_brand.markup">dash</property>
  <property name="meta.attr.minor_version.markup">0</property>
  <property name="meta.attr.compatible_brands.markup">iso6mp41</property>
  <property name="meta.attr.encoder.markup">Lavf57.56.101</property>
  <property name="seekable">1</property>
  <property name="audio_index">0</property>
  <property name="video_index">-1</property>
  <property name="mute_on_pause">1</property>
  <property name="mlt_service">avformat</property>
  <property name="kdenlive:clipname"/>
  <property name="kdenlive:folderid">-1</property>
  <property name="kdenlive:id">32</property>
  <property name="kdenlive:file_size">8863797</property>
  <property name="kdenlive:file_hash">246514c155ba47a2b4fd8a4692db682a</property>
  <property name="global_feed">1</property>
  <property name="kdenlive:audio_max">2</property>
 </producer>
 <producer id="producer31" in="00:00:00.000" out="00:00:05.067">
  <property name="length">153</property>
  <property name="eof">pause</property>
  <property name="resource">images/thanks for watching mate (1).png</property>
  <property name="ttl">25</property>
  <property name="aspect_ratio">1</property>
  <property name="progressive">1</property>
  <property name="seekable">1</property>
  <property name="meta.media.width">905</property>
  <property name="meta.media.height">716</property>
  <property name="mlt_service">qimage</property>
  <property name="kdenlive:clipname"/>
  <property name="kdenlive:duration">00:00:05.000</property>
  <property name="kdenlive:folderid">-1</property>
  <property name="kdenlive:id">33</property>
  <property name="kdenlive:file_size">29657</property>
  <property name="kdenlive:file_hash">6f11de6730c6be214944cc3c92e0e61d</property>
 </producer>
 <producer id="producer32" in="00:00:00.000" out="00:00:04.967">
  <property name="length">00:00:05.000</property>
  <property name="eof">pause</property>
  <property name="resource">C:/Users/user/Desktop/big billy.PNG</property>
  <property name="ttl">25</property>
  <property name="aspect_ratio">1</property>
  <property name="progressive">1</property>
  <property name="seekable">1</property>
  <property name="meta.media.width">203</property>
  <property name="meta.media.height">175</property>
  <property name="mlt_service">qimage</property>
  <property name="kdenlive:clipname"/>
  <property name="kdenlive:duration">00:00:05.000</property>
  <property name="kdenlive:folderid">-1</property>
  <property name="kdenlive:id">34</property>
  <property name="kdenlive:file_size">75770</property>
  <property name="kdenlive:file_hash">2b283aa0276ceebeaf81503eed5b29cb</property>
 </producer>
 <producer id="producer33" in="00:00:00.000" out="00:00:04.967">
  <property name="length">00:00:05.000</property>
  <property name="eof">pause</property>
  <property name="resource">C:/Users/user/Downloads/router - Copy.png</property>
  <property name="ttl">25</property>
  <property name="aspect_ratio">1</property>
  <property name="progressive">1</property>
  <property name="seekable">1</property>
  <property name="meta.media.width">240</property>
  <property name="meta.media.height">240</property>
  <property name="mlt_service">qimage</property>
  <property name="kdenlive:clipname"/>
  <property name="kdenlive:duration">00:00:05.000</property>
  <property name="kdenlive:folderid">-1</property>
  <property name="kdenlive:id">35</property>
  <property name="kdenlive:file_size">1371</property>
  <property name="kdenlive:file_hash">05f1b51871ea2f9c4e16fde674522e9b</property>
  <property name="kdenlive:activeeffect">0</property>
  <filter id="filter0">
   <property name="rotate_center">1</property>
   <property name="mlt_service">qtblend</property>
   <property name="kdenlive_id">qtblend</property>
   <property name="rect">00:00:00.000=0 0 2312 1080 1</property>
   <property name="rotation">00:00:00.000=0</property>
   <property name="compositing">0</property>
   <property name="distort">0</property>
   <property name="kdenlive:collapsed">0</property>
  </filter>
 </producer>
 <producer id="producer34" in="00:00:00.000" out="00:00:04.967">
  <property name="length">00:00:05.000</property>
  <property name="eof">pause</property>
  <property name="resource">C:/Users/user/Downloads/yeet.gif</property>
  <property name="audio_index">-1</property>
  <property name="video_index">0</property>
  <property name="mute_on_pause">0</property>
  <property name="mlt_service">avformat-novalidate</property>
  <property name="meta.media.nb_streams">1</property>
  <property name="meta.media.0.stream.type">video</property>
  <property name="meta.media.0.stream.frame_rate">25</property>
  <property name="meta.media.0.stream.sample_aspect_ratio">0</property>
  <property name="meta.media.0.codec.width">128</property>
  <property name="meta.media.0.codec.height">128</property>
  <property name="meta.media.0.codec.rotate">0</property>
  <property name="meta.media.0.codec.frame_rate">100</property>
  <property name="meta.media.0.codec.pix_fmt">bgra</property>
  <property name="meta.media.0.codec.sample_aspect_ratio">0</property>
  <property name="meta.media.0.codec.colorspace">601</property>
  <property name="meta.media.0.codec.name">gif</property>
  <property name="meta.media.0.codec.long_name">GIF (Graphics Interchange Format)</property>
  <property name="meta.media.0.codec.bit_rate">0</property>
  <property name="seekable">1</property>
  <property name="meta.media.sample_aspect_num">1</property>
  <property name="meta.media.sample_aspect_den">1</property>
  <property name="aspect_ratio">1</property>
  <property name="kdenlive:clipname"/>
  <property name="kdenlive:duration">00:00:05.000</property>
  <property name="kdenlive:folderid">-1</property>
  <property name="meta.media.frame_rate_num">25</property>
  <property name="meta.media.frame_rate_den">1</property>
  <property name="meta.media.colorspace">601</property>
  <property name="meta.media.color_trc">2</property>
  <property name="meta.media.width">128</property>
  <property name="meta.media.height">128</property>
  <property name="meta.media.color_range">mpeg</property>
  <property name="kdenlive:id">36</property>
  <property name="kdenlive:file_size">22185</property>
  <property name="kdenlive:file_hash">ca6af5c2867761c84628f21b346ad767</property>
  <property name="meta.media.top_field_first">0</property>
  <property name="meta.media.progressive">1</property>
  <property name="global_feed">1</property>
 </producer>
 <producer id="producer35" in="00:00:00.000" out="00:00:04.967">
  <property name="length">00:00:05.000</property>
  <property name="eof">pause</property>
  <property name="resource">C:/Users/user/Desktop/the three bois/my bag/mimdidty/sprites/error.png</property>
  <property name="ttl">25</property>
  <property name="aspect_ratio">1</property>
  <property name="progressive">1</property>
  <property name="seekable">1</property>
  <property name="meta.media.width">48</property>
  <property name="meta.media.height">48</property>
  <property name="mlt_service">qimage</property>
  <property name="kdenlive:clipname"/>
  <property name="kdenlive:duration">00:00:05.000</property>
  <property name="kdenlive:folderid">-1</property>
  <property name="kdenlive:id">37</property>
  <property name="kdenlive:file_size">276</property>
  <property name="kdenlive:file_hash">0f64445918f38242e129c9a959082024</property>
 </producer>
 <producer id="producer36" in="00:00:00.000" out="00:00:04.967">
  <property name="length">00:00:05.000</property>
  <property name="eof">pause</property>
  <property name="resource">C:/Users/user/Desktop/the three bois/my bag/mimdidty/sprites/logo.png</property>
  <property name="ttl">25</property>
  <property name="aspect_ratio">1</property>
  <property name="progressive">1</property>
  <property name="seekable">1</property>
  <property name="meta.media.width">768</property>
  <property name="meta.media.height">107</property>
  <property name="mlt_service">qimage</property>
  <property name="kdenlive:clipname"/>
  <property name="kdenlive:duration">00:00:05.000</property>
  <property name="kdenlive:folderid">-1</property>
  <property name="kdenlive:id">38</property>
  <property name="kdenlive:file_size">20324</property>
  <property name="kdenlive:file_hash">2808d3c9e341f2ba62d7fa2cd871b640</property>
 </producer>
 <producer id="producer37" in="00:00:00.000" out="00:00:04.967">
  <property name="length">00:00:05.000</property>
  <property name="eof">pause</property>
  <property name="resource">C:/Users/user/Desktop/the three bois/my bag/mimdidty/cursors/cursor.png</property>
  <property name="ttl">25</property>
  <property name="aspect_ratio">1</property>
  <property name="progressive">1</property>
  <property name="seekable">1</property>
  <property name="meta.media.width">64</property>
  <property name="meta.media.height">64</property>
  <property name="mlt_service">qimage</property>
  <property name="kdenlive:clipname"/>
  <property name="kdenlive:duration">00:00:05.000</property>
  <property name="kdenlive:folderid">-1</property>
  <property name="kdenlive:id">39</property>
  <property name="kdenlive:file_size">336</property>
  <property name="kdenlive:file_hash">3b6a5790c10a81674ac2b5d9c50f9fcb</property>
 </producer>
 <producer id="producer38" in="00:00:00.000" out="00:00:04.967">
  <property name="length">00:00:05.000</property>
  <property name="eof">pause</property>
  <property name="resource">C:/Users/user/Desktop/dug.PNG</property>
  <property name="ttl">25</property>
  <property name="aspect_ratio">1</property>
  <property name="progressive">1</property>
  <property name="seekable">1</property>
  <property name="meta.media.width">244</property>
  <property name="meta.media.height">231</property>
  <property name="mlt_service">qimage</property>
  <property name="kdenlive:clipname"/>
  <property name="kdenlive:duration">00:00:05.000</property>
  <property name="kdenlive:folderid">-1</property>
  <property name="kdenlive:id">40</property>
  <property name="kdenlive:file_size">95389</property>
  <property name="kdenlive:file_hash">a0287ec277eef02bb49061718b03f0ed</property>
 </producer>
 <producer id="producer39" in="00:00:00.000" out="00:00:04.967">
  <property name="length">00:00:05.000</property>
  <property name="eof">pause</property>
  <property name="resource">C:/Users/user/Downloads 2/iyo2 (1).png</property>
  <property name="ttl">25</property>
  <property name="aspect_ratio">1</property>
  <property name="progressive">1</property>
  <property name="seekable">1</property>
  <property name="meta.media.width">256</property>
  <property name="meta.media.height">256</property>
  <property name="mlt_service">qimage</property>
  <property name="kdenlive:clipname"/>
  <property name="kdenlive:duration">00:00:05.000</property>
  <property name="kdenlive:folderid">-1</property>
  <property name="kdenlive:id">41</property>
  <property name="kdenlive:file_size">39207</property>
  <property name="kdenlive:file_hash">59150e241574a888c6d70c37dcb6a610</property>
 </producer>
 <producer id="producer40" in="00:00:00.000" out="00:00:04.967">
  <property name="length">00:00:05.000</property>
  <property name="eof">pause</property>
  <property name="resource">C:/Users/user/Downloads 2/little world.png</property>
  <property name="ttl">25</property>
  <property name="aspect_ratio">1</property>
  <property name="progressive">1</property>
  <property name="seekable">1</property>
  <property name="meta.media.width">260</property>
  <property name="meta.media.height">260</property>
  <property name="mlt_service">qimage</property>
  <property name="kdenlive:clipname"/>
  <property name="kdenlive:duration">00:00:05.000</property>
  <property name="kdenlive:folderid">-1</property>
  <property name="kdenlive:id">42</property>
  <property name="kdenlive:file_size">6596</property>
  <property name="kdenlive:file_hash">26ad7340d4d3c0b8e791faf1a78ac594</property>
 </producer>
 <producer id="producer41" in="00:00:00.000" out="00:00:04.967">
  <property name="length">00:00:05.000</property>
  <property name="eof">pause</property>
  <property name="resource">C:/Users/user/Downloads 2/jukeboxite.png</property>
  <property name="ttl">25</property>
  <property name="aspect_ratio">1</property>
  <property name="progressive">1</property>
  <property name="seekable">1</property>
  <property name="meta.media.width">48</property>
  <property name="meta.media.height">48</property>
  <property name="mlt_service">qimage</property>
  <property name="kdenlive:clipname"/>
  <property name="kdenlive:duration">00:00:05.000</property>
  <property name="kdenlive:folderid">-1</property>
  <property name="kdenlive:id">43</property>
  <property name="kdenlive:file_size">3039</property>
  <property name="kdenlive:file_hash">444653b2060bbfe2ebef6068a9232da4</property>
 </producer>
 <producer id="producer42" in="00:00:00.000" out="00:00:04.967">
  <property name="length">00:00:05.000</property>
  <property name="eof">pause</property>
  <property name="resource">C:/Users/user/Downloads 2/mac (6).png</property>
  <property name="ttl">25</property>
  <property name="aspect_ratio">1</property>
  <property name="progressive">1</property>
  <property name="seekable">1</property>
  <property name="meta.media.width">500</property>
  <property name="meta.media.height">500</property>
  <property name="mlt_service">qimage</property>
  <property name="kdenlive:clipname"/>
  <property name="kdenlive:duration">00:00:05.000</property>
  <property name="kdenlive:folderid">-1</property>
  <property name="kdenlive:id">44</property>
  <property name="kdenlive:file_size">153223</property>
  <property name="kdenlive:file_hash">be3efe7f007f1a9db242335ef0cd5926</property>
 </producer>
 <producer id="producer43" in="00:00:00.000" out="00:00:04.967">
  <property name="length">00:00:05.000</property>
  <property name="eof">pause</property>
  <property name="resource">C:/Users/user/Downloads 2/thorium-reactor.png</property>
  <property name="ttl">25</property>
  <property name="aspect_ratio">1</property>
  <property name="progressive">1</property>
  <property name="seekable">1</property>
  <property name="meta.media.width">288</property>
  <property name="meta.media.height">288</property>
  <property name="mlt_service">qimage</property>
  <property name="kdenlive:clipname"/>
  <property name="kdenlive:duration">00:00:05.000</property>
  <property name="kdenlive:folderid">-1</property>
  <property name="kdenlive:id">45</property>
  <property name="kdenlive:file_size">9475</property>
  <property name="kdenlive:file_hash">e8f4a9c13acaa8c54b8b28f6fe918e55</property>
 </producer>
 <producer id="producer44" in="00:00:00.000" out="00:00:04.967">
  <property name="length">00:00:05.000</property>
  <property name="eof">pause</property>
  <property name="resource">C:/Users/user/Downloads 2/Selvbou.png</property>
  <property name="ttl">25</property>
  <property name="aspect_ratio">1</property>
  <property name="progressive">1</property>
  <property name="seekable">1</property>
  <property name="meta.media.width">18</property>
  <property name="meta.media.height">18</property>
  <property name="mlt_service">qimage</property>
  <property name="kdenlive:clipname"/>
  <property name="kdenlive:duration">00:00:05.000</property>
  <property name="kdenlive:folderid">-1</property>
  <property name="kdenlive:id">46</property>
  <property name="kdenlive:file_size">360</property>
  <property name="kdenlive:file_hash">64bf24a1e62788c908d5b7224e1d2e2d</property>
 </producer>
 <producer id="producer45" in="00:00:00.000" out="00:00:04.967">
  <property name="length">00:00:05.000</property>
  <property name="eof">pause</property>
  <property name="resource">C:/Users/user/Downloads 2/2 (1).png</property>
  <property name="ttl">25</property>
  <property name="aspect_ratio">1</property>
  <property name="progressive">1</property>
  <property name="seekable">1</property>
  <property name="meta.media.width">1280</property>
  <property name="meta.media.height">720</property>
  <property name="mlt_service">qimage</property>
  <property name="kdenlive:clipname"/>
  <property name="kdenlive:duration">00:00:05.000</property>
  <property name="kdenlive:folderid">-1</property>
  <property name="kdenlive:id">47</property>
  <property name="kdenlive:file_size">513104</property>
  <property name="kdenlive:file_hash">a574de36554f4a48d926b196b7bde868</property>
 </producer>
 <producer id="producer46" in="00:00:00.000" out="00:00:04.967">
  <property name="length">00:00:05.000</property>
  <property name="eof">pause</property>
  <property name="resource">C:/Users/user/Downloads 2/I HAVE SINNED ONCE AGAIN.jpg</property>
  <property name="ttl">25</property>
  <property name="aspect_ratio">1</property>
  <property name="progressive">1</property>
  <property name="seekable">1</property>
  <property name="meta.media.width">716</property>
  <property name="meta.media.height">720</property>
  <property name="mlt_service">qimage</property>
  <property name="kdenlive:clipname"/>
  <property name="kdenlive:duration">00:00:05.000</property>
  <property name="kdenlive:folderid">-1</property>
  <property name="kdenlive:id">48</property>
  <property name="kdenlive:file_size">51689</property>
  <property name="kdenlive:file_hash">ba64d6bb8f4a5de5b65a0d1ad368b658</property>
 </producer>
 <producer id="producer47" in="00:00:00.000" out="00:00:04.967">
  <property name="length">00:00:05.000</property>
  <property name="eof">pause</property>
  <property name="resource">C:/Users/user/Downloads 2/what.gif</property>
  <property name="audio_index">-1</property>
  <property name="video_index">0</property>
  <property name="mute_on_pause">0</property>
  <property name="mlt_service">avformat-novalidate</property>
  <property name="meta.media.nb_streams">1</property>
  <property name="meta.media.0.stream.type">video</property>
  <property name="meta.media.0.stream.frame_rate">50</property>
  <property name="meta.media.0.stream.sample_aspect_ratio">0</property>
  <property name="meta.media.0.codec.width">66</property>
  <property name="meta.media.0.codec.height">66</property>
  <property name="meta.media.0.codec.rotate">0</property>
  <property name="meta.media.0.codec.frame_rate">100</property>
  <property name="meta.media.0.codec.pix_fmt">bgra</property>
  <property name="meta.media.0.codec.sample_aspect_ratio">0</property>
  <property name="meta.media.0.codec.colorspace">601</property>
  <property name="meta.media.0.codec.name">gif</property>
  <property name="meta.media.0.codec.long_name">GIF (Graphics Interchange Format)</property>
  <property name="meta.media.0.codec.bit_rate">0</property>
  <property name="seekable">1</property>
  <property name="meta.media.sample_aspect_num">1</property>
  <property name="meta.media.sample_aspect_den">1</property>
  <property name="aspect_ratio">1</property>
  <property name="kdenlive:clipname"/>
  <property name="kdenlive:duration">00:00:05.000</property>
  <property name="kdenlive:folderid">-1</property>
  <property name="meta.media.frame_rate_num">50</property>
  <property name="meta.media.frame_rate_den">1</property>
  <property name="meta.media.colorspace">601</property>
  <property name="meta.media.color_trc">2</property>
  <property name="meta.media.width">66</property>
  <property name="meta.media.height">66</property>
  <property name="meta.media.color_range">mpeg</property>
  <property name="kdenlive:id">49</property>
  <property name="kdenlive:file_size">34781</property>
  <property name="kdenlive:file_hash">25458f46bc2864dd1b927a69dd44b660</property>
  <property name="meta.media.top_field_first">0</property>
  <property name="meta.media.progressive">1</property>
  <property name="global_feed">1</property>
 </producer>
 <producer id="producer48" in="00:00:00.000" out="00:00:04.967">
  <property name="length">00:00:05.000</property>
  <property name="eof">pause</property>
  <property name="resource">C:/Users/user/Downloads 2/finally.gif</property>
  <property name="audio_index">-1</property>
  <property name="video_index">0</property>
  <property name="mute_on_pause">0</property>
  <property name="mlt_service">avformat-novalidate</property>
  <property name="meta.media.nb_streams">1</property>
  <property name="meta.media.0.stream.type">video</property>
  <property name="meta.media.0.stream.frame_rate">50</property>
  <property name="meta.media.0.stream.sample_aspect_ratio">0</property>
  <property name="meta.media.0.codec.width">128</property>
  <property name="meta.media.0.codec.height">128</property>
  <property name="meta.media.0.codec.rotate">0</property>
  <property name="meta.media.0.codec.frame_rate">100</property>
  <property name="meta.media.0.codec.pix_fmt">bgra</property>
  <property name="meta.media.0.codec.sample_aspect_ratio">0</property>
  <property name="meta.media.0.codec.colorspace">601</property>
  <property name="meta.media.0.codec.name">gif</property>
  <property name="meta.media.0.codec.long_name">GIF (Graphics Interchange Format)</property>
  <property name="meta.media.0.codec.bit_rate">0</property>
  <property name="seekable">1</property>
  <property name="meta.media.sample_aspect_num">1</property>
  <property name="meta.media.sample_aspect_den">1</property>
  <property name="aspect_ratio">1</property>
  <property name="kdenlive:clipname"/>
  <property name="kdenlive:duration">00:00:05.000</property>
  <property name="kdenlive:folderid">-1</property>
  <property name="meta.media.frame_rate_num">50</property>
  <property name="meta.media.frame_rate_den">1</property>
  <property name="meta.media.colorspace">601</property>
  <property name="meta.media.color_trc">2</property>
  <property name="meta.media.width">128</property>
  <property name="meta.media.height">128</property>
  <property name="meta.media.color_range">mpeg</property>
  <property name="kdenlive:id">50</property>
  <property name="kdenlive:file_size">73891</property>
  <property name="kdenlive:file_hash">ff69a833b718ec8856680701f542a871</property>
  <property name="meta.media.top_field_first">0</property>
  <property name="meta.media.progressive">1</property>
  <property name="global_feed">1</property>
 </producer>
 <producer id="producer49" in="00:00:00.000" out="00:00:04.967">
  <property name="length">00:00:05.000</property>
  <property name="eof">pause</property>
  <property name="resource">C:/Users/user/Downloads 2/Frame 20 (3).png</property>
  <property name="ttl">25</property>
  <property name="aspect_ratio">1</property>
  <property name="progressive">1</property>
  <property name="seekable">1</property>
  <property name="meta.media.width">24</property>
  <property name="meta.media.height">24</property>
  <property name="mlt_service">qimage</property>
  <property name="kdenlive:clipname"/>
  <property name="kdenlive:duration">00:00:05.000</property>
  <property name="kdenlive:folderid">-1</property>
  <property name="kdenlive:id">51</property>
  <property name="kdenlive:file_size">1721</property>
  <property name="kdenlive:file_hash">ec90a7d3e363d8bc2ba1f7d82d001386</property>
 </producer>
 <producer id="producer50" in="00:00:00.000" out="00:00:04.967">
  <property name="length">00:00:05.000</property>
  <property name="eof">pause</property>
  <property name="resource">C:/Users/user/Downloads 2/download.gif</property>
  <property name="audio_index">-1</property>
  <property name="video_index">0</property>
  <property name="mute_on_pause">0</property>
  <property name="mlt_service">avformat-novalidate</property>
  <property name="meta.media.nb_streams">1</property>
  <property name="meta.media.0.stream.type">video</property>
  <property name="meta.media.0.stream.frame_rate">16.6667</property>
  <property name="meta.media.0.stream.sample_aspect_ratio">0</property>
  <property name="meta.media.0.codec.width">1600</property>
  <property name="meta.media.0.codec.height">873</property>
  <property name="meta.media.0.codec.rotate">0</property>
  <property name="meta.media.0.codec.frame_rate">100</property>
  <property name="meta.media.0.codec.pix_fmt">bgra</property>
  <property name="meta.media.0.codec.sample_aspect_ratio">0</property>
  <property name="meta.media.0.codec.colorspace">709</property>
  <property name="meta.media.0.codec.name">gif</property>
  <property name="meta.media.0.codec.long_name">GIF (Graphics Interchange Format)</property>
  <property name="meta.media.0.codec.bit_rate">0</property>
  <property name="seekable">1</property>
  <property name="meta.media.sample_aspect_num">1</property>
  <property name="meta.media.sample_aspect_den">1</property>
  <property name="aspect_ratio">1</property>
  <property name="kdenlive:clipname"/>
  <property name="kdenlive:duration">00:00:05.000</property>
  <property name="kdenlive:folderid">-1</property>
  <property name="meta.media.frame_rate_num">50</property>
  <property name="meta.media.frame_rate_den">3</property>
  <property name="meta.media.colorspace">709</property>
  <property name="meta.media.color_trc">2</property>
  <property name="meta.media.width">1600</property>
  <property name="meta.media.height">873</property>
  <property name="meta.media.color_range">mpeg</property>
  <property name="kdenlive:id">52</property>
  <property name="kdenlive:file_size">2322190</property>
  <property name="kdenlive:file_hash">e01672d3147145d7261c0ce19d27c711</property>
  <property name="meta.media.top_field_first">0</property>
  <property name="meta.media.progressive">1</property>
  <property name="global_feed">1</property>
 </producer>
 <producer id="producer51" in="00:00:00.000" out="00:00:04.967">
  <property name="length">00:00:05.000</property>
  <property name="eof">pause</property>
  <property name="resource">C:/Users/user/Downloads 2/animated pixel mindus __.gif</property>
  <property name="audio_index">-1</property>
  <property name="video_index">0</property>
  <property name="mute_on_pause">0</property>
  <property name="mlt_service">avformat-novalidate</property>
  <property name="meta.media.nb_streams">1</property>
  <property name="meta.media.0.stream.type">video</property>
  <property name="meta.media.0.stream.frame_rate">25</property>
  <property name="meta.media.0.stream.sample_aspect_ratio">0</property>
  <property name="meta.media.0.codec.width">344</property>
  <property name="meta.media.0.codec.height">40</property>
  <property name="meta.media.0.codec.rotate">0</property>
  <property name="meta.media.0.codec.frame_rate">100</property>
  <property name="meta.media.0.codec.pix_fmt">bgra</property>
  <property name="meta.media.0.codec.sample_aspect_ratio">0</property>
  <property name="meta.media.0.codec.colorspace">601</property>
  <property name="meta.media.0.codec.name">gif</property>
  <property name="meta.media.0.codec.long_name">GIF (Graphics Interchange Format)</property>
  <property name="meta.media.0.codec.bit_rate">0</property>
  <property name="seekable">1</property>
  <property name="meta.media.sample_aspect_num">1</property>
  <property name="meta.media.sample_aspect_den">1</property>
  <property name="aspect_ratio">1</property>
  <property name="kdenlive:clipname"/>
  <property name="kdenlive:duration">00:00:05.000</property>
  <property name="kdenlive:folderid">-1</property>
  <property name="meta.media.frame_rate_num">25</property>
  <property name="meta.media.frame_rate_den">1</property>
  <property name="meta.media.colorspace">601</property>
  <property name="meta.media.color_trc">2</property>
  <property name="meta.media.width">344</property>
  <property name="meta.media.height">40</property>
  <property name="meta.media.color_range">mpeg</property>
  <property name="kdenlive:id">53</property>
  <property name="kdenlive:file_size">90087</property>
  <property name="kdenlive:file_hash">cd6f38b7c6f954fc6a05cb8708b0ce00</property>
  <property name="meta.media.top_field_first">0</property>
  <property name="meta.media.progressive">1</property>
  <property name="global_feed">1</property>
 </producer>
 <producer id="producer52" in="00:00:00.000" out="00:00:04.967">
  <property name="length">00:00:05.000</property>
  <property name="eof">pause</property>
  <property name="resource">C:/Users/user/Downloads 2/New Piskel.gif</property>
  <property name="audio_index">-1</property>
  <property name="video_index">0</property>
  <property name="mute_on_pause">0</property>
  <property name="mlt_service">avformat-novalidate</property>
  <property name="meta.media.nb_streams">1</property>
  <property name="meta.media.0.stream.type">video</property>
  <property name="meta.media.0.stream.frame_rate">25</property>
  <property name="meta.media.0.stream.sample_aspect_ratio">0</property>
  <property name="meta.media.0.codec.width">128</property>
  <property name="meta.media.0.codec.height">128</property>
  <property name="meta.media.0.codec.rotate">0</property>
  <property name="meta.media.0.codec.frame_rate">100</property>
  <property name="meta.media.0.codec.pix_fmt">bgra</property>
  <property name="meta.media.0.codec.sample_aspect_ratio">0</property>
  <property name="meta.media.0.codec.colorspace">601</property>
  <property name="meta.media.0.codec.name">gif</property>
  <property name="meta.media.0.codec.long_name">GIF (Graphics Interchange Format)</property>
  <property name="meta.media.0.codec.bit_rate">0</property>
  <property name="seekable">1</property>
  <property name="meta.media.sample_aspect_num">1</property>
  <property name="meta.media.sample_aspect_den">1</property>
  <property name="aspect_ratio">1</property>
  <property name="kdenlive:clipname"/>
  <property name="kdenlive:duration">00:00:05.000</property>
  <property name="kdenlive:folderid">-1</property>
  <property name="meta.media.frame_rate_num">25</property>
  <property name="meta.media.frame_rate_den">1</property>
  <property name="meta.media.colorspace">601</property>
  <property name="meta.media.color_trc">2</property>
  <property name="meta.media.width">128</property>
  <property name="meta.media.height">128</property>
  <property name="meta.media.color_range">mpeg</property>
  <property name="kdenlive:id">54</property>
  <property name="kdenlive:file_size">48405</property>
  <property name="kdenlive:file_hash">ec4fe2e2b2e6dbacd41d7ae6d74c8a23</property>
  <property name="meta.media.top_field_first">0</property>
  <property name="meta.media.progressive">1</property>
  <property name="global_feed">1</property>
 </producer>
 <producer id="producer53" in="00:00:00.000" out="00:00:04.967">
  <property name="length">00:00:05.000</property>
  <property name="eof">pause</property>
  <property name="resource">C:/Users/user/Downloads 2/flag..png</property>
  <property name="ttl">25</property>
  <property name="aspect_ratio">1</property>
  <property name="progressive">1</property>
  <property name="seekable">1</property>
  <property name="meta.media.width">477</property>
  <property name="meta.media.height">270</property>
  <property name="mlt_service">qimage</property>
  <property name="kdenlive:clipname"/>
  <property name="kdenlive:duration">00:00:05.000</property>
  <property name="kdenlive:folderid">-1</property>
  <property name="kdenlive:id">55</property>
  <property name="kdenlive:file_size">3456</property>
  <property name="kdenlive:file_hash">7becabc2ed27e234b4956ebf0f40ba90</property>
 </producer>
 <producer id="producer54" in="00:00:00.000" out="00:00:04.967">
  <property name="length">00:00:05.000</property>
  <property name="eof">pause</property>
  <property name="resource">C:/Users/user/Desktop/the three bois/my bag/aaaaaa.png</property>
  <property name="ttl">25</property>
  <property name="aspect_ratio">1</property>
  <property name="progressive">1</property>
  <property name="seekable">1</property>
  <property name="meta.media.width">240</property>
  <property name="meta.media.height">223</property>
  <property name="mlt_service">qimage</property>
  <property name="kdenlive:clipname"/>
  <property name="kdenlive:duration">00:00:05.000</property>
  <property name="kdenlive:folderid">-1</property>
  <property name="kdenlive:id">56</property>
  <property name="kdenlive:file_size">28137</property>
  <property name="kdenlive:file_hash">ff2a28d5ee2e6a39282215df8dd94fb5</property>
 </producer>
 <producer id="producer55" in="00:00:00.000" out="00:00:04.967">
  <property name="length">00:00:05.000</property>
  <property name="eof">pause</property>
  <property name="resource">C:/Users/user/Desktop/the three bois/my bag/magnificent.png</property>
  <property name="ttl">25</property>
  <property name="aspect_ratio">1</property>
  <property name="progressive">1</property>
  <property name="seekable">1</property>
  <property name="meta.media.width">820</property>
  <property name="meta.media.height">555</property>
  <property name="mlt_service">qimage</property>
  <property name="kdenlive:clipname"/>
  <property name="kdenlive:duration">00:00:05.000</property>
  <property name="kdenlive:folderid">-1</property>
  <property name="kdenlive:id">57</property>
  <property name="kdenlive:file_size">260595</property>
  <property name="kdenlive:file_hash">01c0f681b9b53f1dade9384633882a8a</property>
 </producer>
 <producer id="producer56" in="00:00:00.000" out="00:00:04.967">
  <property name="length">00:00:05.000</property>
  <property name="eof">pause</property>
  <property name="resource">C:/Users/user/Desktop/the three bois/my bag/eat pant.png</property>
  <property name="ttl">25</property>
  <property name="aspect_ratio">1</property>
  <property name="progressive">1</property>
  <property name="seekable">1</property>
  <property name="meta.media.width">1140</property>
  <property name="meta.media.height">606</property>
  <property name="mlt_service">qimage</property>
  <property name="kdenlive:clipname"/>
  <property name="kdenlive:duration">00:00:05.000</property>
  <property name="kdenlive:folderid">-1</property>
  <property name="kdenlive:id">58</property>
  <property name="kdenlive:file_size">352168</property>
  <property name="kdenlive:file_hash">b3918fd20275e42750edd2474f2413d9</property>
 </producer>
 <producer id="producer57" in="00:00:00.000" out="00:00:04.967">
  <property name="length">00:00:05.000</property>
  <property name="eof">pause</property>
  <property name="resource">C:/Users/user/Desktop/the three bois/my bag/f.png</property>
  <property name="ttl">25</property>
  <property name="aspect_ratio">1</property>
  <property name="progressive">1</property>
  <property name="seekable">1</property>
  <property name="meta.media.width">77</property>
  <property name="meta.media.height">84</property>
  <property name="mlt_service">qimage</property>
  <property name="kdenlive:clipname"/>
  <property name="kdenlive:duration">00:00:05.000</property>
  <property name="kdenlive:folderid">-1</property>
  <property name="kdenlive:id">59</property>
  <property name="kdenlive:file_size">1153</property>
  <property name="kdenlive:file_hash">f9b8bb4481cdef197c5b9b07fb19df8b</property>
 </producer>
 <producer id="producer58" in="00:00:00.000" out="00:00:04.967">
  <property name="length">00:00:05.000</property>
  <property name="eof">pause</property>
  <property name="resource">C:/Users/user/Desktop/the three bois/my bag/gyuhjh.png</property>
  <property name="ttl">25</property>
  <property name="aspect_ratio">1</property>
  <property name="progressive">1</property>
  <property name="seekable">1</property>
  <property name="meta.media.width">600</property>
  <property name="meta.media.height">600</property>
  <property name="mlt_service">qimage</property>
  <property name="kdenlive:clipname"/>
  <property name="kdenlive:duration">00:00:05.000</property>
  <property name="kdenlive:folderid">-1</property>
  <property name="kdenlive:id">60</property>
  <property name="kdenlive:file_size">678487</property>
  <property name="kdenlive:file_hash">f53b8b53ba123031d2ba5feb20a864e0</property>
 </producer>
 <producer id="producer59" in="00:00:00.000" out="00:00:04.967">
  <property name="length">00:00:05.000</property>
  <property name="eof">pause</property>
  <property name="resource">C:/Users/user/Desktop/the three bois/my bag/macdowntwo.png</property>
  <property name="ttl">25</property>
  <property name="aspect_ratio">1</property>
  <property name="progressive">1</property>
  <property name="seekable">1</property>
  <property name="meta.media.width">64</property>
  <property name="meta.media.height">64</property>
  <property name="mlt_service">qimage</property>
  <property name="kdenlive:clipname"/>
  <property name="kdenlive:duration">00:00:05.000</property>
  <property name="kdenlive:folderid">-1</property>
  <property name="kdenlive:id">61</property>
  <property name="kdenlive:file_size">604</property>
  <property name="kdenlive:file_hash">eb276a711522e9ed9463fd08846069e1</property>
 </producer>
 <producer id="producer60" in="00:00:00.000" out="00:00:04.967">
  <property name="length">00:00:05.000</property>
  <property name="eof">pause</property>
  <property name="resource">C:/Users/user/Desktop/the three bois/my bag/oha.png</property>
  <property name="ttl">25</property>
  <property name="aspect_ratio">1</property>
  <property name="progressive">1</property>
  <property name="seekable">1</property>
  <property name="meta.media.width">1200</property>
  <property name="meta.media.height">1200</property>
  <property name="mlt_service">qimage</property>
  <property name="kdenlive:clipname"/>
  <property name="kdenlive:duration">00:00:05.000</property>
  <property name="kdenlive:folderid">-1</property>
  <property name="kdenlive:id">62</property>
  <property name="kdenlive:file_size">1347569</property>
  <property name="kdenlive:file_hash">da7f03b7c0dca04a1cf3d073e9fc50cc</property>
 </producer>
 <producer id="producer61" in="00:00:00.000" out="00:00:04.967">
  <property name="length">00:00:05.000</property>
  <property name="eof">pause</property>
  <property name="resource">C:/Users/user/Desktop/the three bois/my bag/i am mac.png</property>
  <property name="ttl">25</property>
  <property name="aspect_ratio">1</property>
  <property name="progressive">1</property>
  <property name="seekable">1</property>
  <property name="meta.media.width">208</property>
  <property name="meta.media.height">88</property>
  <property name="mlt_service">qimage</property>
  <property name="kdenlive:clipname"/>
  <property name="kdenlive:duration">00:00:05.000</property>
  <property name="kdenlive:folderid">-1</property>
  <property name="kdenlive:id">63</property>
  <property name="kdenlive:file_size">927</property>
  <property name="kdenlive:file_hash">0a80573b84cbe80e11916fd4ef608aac</property>
 </producer>
 <producer id="producer62" in="00:00:00.000" out="00:00:04.967">
  <property name="length">00:00:05.000</property>
  <property name="eof">pause</property>
  <property name="resource">C:/Users/user/Desktop/the three bois/my bag/stupidity/anukebusiness.PNG</property>
  <property name="ttl">25</property>
  <property name="aspect_ratio">1</property>
  <property name="progressive">1</property>
  <property name="seekable">1</property>
  <property name="meta.media.width">566</property>
  <property name="meta.media.height">413</property>
  <property name="mlt_service">qimage</property>
  <property name="kdenlive:clipname"/>
  <property name="kdenlive:duration">00:00:05.000</property>
  <property name="kdenlive:folderid">-1</property>
  <property name="kdenlive:id">64</property>
  <property name="kdenlive:file_size">273801</property>
  <property name="kdenlive:file_hash">1e9c90678c9f0706b160e7c81f3ecb23</property>
 </producer>
 <producer id="producer63" in="00:00:00.000" out="00:00:04.967">
  <property name="length">00:00:05.000</property>
  <property name="eof">pause</property>
  <property name="resource">C:/Users/user/Desktop/the three bois/my bag/stupidity/book.png</property>
  <property name="ttl">25</property>
  <property name="aspect_ratio">1</property>
  <property name="progressive">1</property>
  <property name="seekable">1</property>
  <property name="meta.media.width">360</property>
  <property name="meta.media.height">360</property>
  <property name="mlt_service">qimage</property>
  <property name="kdenlive:clipname"/>
  <property name="kdenlive:duration">00:00:05.000</property>
  <property name="kdenlive:folderid">-1</property>
  <property name="kdenlive:id">65</property>
  <property name="kdenlive:file_size">72874</property>
  <property name="kdenlive:file_hash">40bca27a0eb798b046b337efba03996f</property>
 </producer>
 <producer id="producer64" in="00:00:00.000" out="00:00:04.967">
  <property name="length">00:00:05.000</property>
  <property name="eof">pause</property>
  <property name="resource">C:/Users/user/Desktop/the three bois/my bag/stupidity/i hate all of you.png</property>
  <property name="ttl">25</property>
  <property name="aspect_ratio">1</property>
  <property name="progressive">1</property>
  <property name="seekable">1</property>
  <property name="meta.media.width">721</property>
  <property name="meta.media.height">480</property>
  <property name="mlt_service">qimage</property>
  <property name="kdenlive:clipname"/>
  <property name="kdenlive:duration">00:00:05.000</property>
  <property name="kdenlive:folderid">-1</property>
  <property name="kdenlive:id">66</property>
  <property name="kdenlive:file_size">348407</property>
  <property name="kdenlive:file_hash">f40fe02e3db18c940842020af1bb1ce8</property>
 </producer>
 <producer id="producer65" in="00:00:00.000" out="00:00:04.967">
  <property name="length">00:00:05.000</property>
  <property name="eof">pause</property>
  <property name="resource">C:/Users/user/Desktop/the three bois/my bag/stupidity/rick.PNG</property>
  <property name="ttl">25</property>
  <property name="aspect_ratio">1</property>
  <property name="progressive">1</property>
  <property name="seekable">1</property>
  <property name="meta.media.width">333</property>
  <property name="meta.media.height">333</property>
  <property name="mlt_service">qimage</property>
  <property name="kdenlive:clipname"/>
  <property name="kdenlive:duration">00:00:05.000</property>
  <property name="kdenlive:folderid">-1</property>
  <property name="kdenlive:id">67</property>
  <property name="kdenlive:file_size">154701</property>
  <property name="kdenlive:file_hash">5a5c86776a7f911565bbb14b8b0fd9a6</property>
 </producer>
 <producer id="producer66" in="00:00:00.000" out="00:00:04.967">
  <property name="length">00:00:05.000</property>
  <property name="eof">pause</property>
  <property name="resource">C:/Users/user/Desktop/the three bois/my bag/stupidity/student.png</property>
  <property name="ttl">25</property>
  <property name="aspect_ratio">1</property>
  <property name="progressive">1</property>
  <property name="seekable">1</property>
  <property name="meta.media.width">257</property>
  <property name="meta.media.height">257</property>
  <property name="mlt_service">qimage</property>
  <property name="kdenlive:clipname"/>
  <property name="kdenlive:duration">00:00:05.000</property>
  <property name="kdenlive:folderid">-1</property>
  <property name="kdenlive:id">68</property>
  <property name="kdenlive:file_size">136264</property>
  <property name="kdenlive:file_hash">2562b1ff6e8b2f06fa416e06649cdc4d</property>
 </producer>
 <producer id="producer67" in="00:00:00.000" out="00:00:04.967">
  <property name="length">00:00:05.000</property>
  <property name="eof">pause</property>
  <property name="resource">C:/Users/user/Desktop/the three bois/my bag/stupidity/blender.png</property>
  <property name="ttl">25</property>
  <property name="aspect_ratio">1</property>
  <property name="progressive">1</property>
  <property name="seekable">1</property>
  <property name="meta.media.width">786</property>
  <property name="meta.media.height">768</property>
  <property name="mlt_service">qimage</property>
  <property name="kdenlive:clipname"/>
  <property name="kdenlive:duration">00:00:05.000</property>
  <property name="kdenlive:folderid">-1</property>
  <property name="kdenlive:id">69</property>
  <property name="kdenlive:file_size">200838</property>
  <property name="kdenlive:file_hash">63a08cd67517ddac35a80e199dafe49b</property>
 </producer>
 <producer id="producer68" in="00:00:00.000" out="00:00:04.967">
  <property name="length">00:00:05.000</property>
  <property name="eof">pause</property>
  <property name="resource">C:/Users/user/Desktop/the three bois/Danking bag/campfire_1.jpg</property>
  <property name="ttl">25</property>
  <property name="aspect_ratio">1</property>
  <property name="progressive">1</property>
  <property name="seekable">1</property>
  <property name="meta.media.width">231</property>
  <property name="meta.media.height">218</property>
  <property name="mlt_service">qimage</property>
  <property name="kdenlive:clipname"/>
  <property name="kdenlive:duration">00:00:05.000</property>
  <property name="kdenlive:folderid">-1</property>
  <property name="kdenlive:id">70</property>
  <property name="kdenlive:file_size">8798</property>
  <property name="kdenlive:file_hash">b736f2c12dd328811a4535d4358a9f3a</property>
 </producer>
 <producer id="producer69" in="00:00:00.000" out="00:00:04.967">
  <property name="length">00:00:05.000</property>
  <property name="eof">pause</property>
  <property name="resource">C:/Users/user/Desktop/the three bois/Danking bag/aaf.png</property>
  <property name="ttl">25</property>
  <property name="aspect_ratio">1</property>
  <property name="progressive">1</property>
  <property name="seekable">1</property>
  <property name="meta.media.width">800</property>
  <property name="meta.media.height">500</property>
  <property name="mlt_service">qimage</property>
  <property name="kdenlive:clipname"/>
  <property name="kdenlive:duration">00:00:05.000</property>
  <property name="kdenlive:folderid">-1</property>
  <property name="kdenlive:id">71</property>
  <property name="kdenlive:file_size">47931</property>
  <property name="kdenlive:file_hash">7ad487e922fb44a2dd1729d97f6a26c5</property>
 </producer>
 <producer id="producer70" in="00:00:00.000" out="00:00:04.967">
  <property name="length">00:00:05.000</property>
  <property name="eof">pause</property>
  <property name="resource">C:/Users/user/Desktop/wraith and dagger - Copy.png</property>
  <property name="ttl">25</property>
  <property name="aspect_ratio">1</property>
  <property name="progressive">1</property>
  <property name="seekable">1</property>
  <property name="meta.media.width">600</property>
  <property name="meta.media.height">600</property>
  <property name="mlt_service">qimage</property>
  <property name="kdenlive:clipname"/>
  <property name="kdenlive:duration">00:00:05.000</property>
  <property name="kdenlive:folderid">-1</property>
  <property name="kdenlive:id">72</property>
  <property name="kdenlive:file_size">72561</property>
  <property name="kdenlive:file_hash">2c98f7194c33d258d3f2b4b1de51b6af</property>
 </producer>
 <playlist id="main_bin">
  <property name="kdenlive:docproperties.activeTrack">6</property>
  <property name="kdenlive:docproperties.audioChannels">2</property>
  <property name="kdenlive:docproperties.audioTarget">-1</property>
  <property name="kdenlive:docproperties.disablepreview">0</property>
  <property name="kdenlive:docproperties.documentid">1610680145700</property>
  <property name="kdenlive:docproperties.enableTimelineZone">0</property>
  <property name="kdenlive:docproperties.enableexternalproxy">0</property>
  <property name="kdenlive:docproperties.enableproxy">0</property>
  <property name="kdenlive:docproperties.externalproxyparams">../Sub;;S03.MP4;../Clip;;.MXF</property>
  <property name="kdenlive:docproperties.generateimageproxy">0</property>
  <property name="kdenlive:docproperties.generateproxy">0</property>
  <property name="kdenlive:docproperties.groups">[
    {
        "children": [
            {
                "data": "9:895",
                "leaf": "clip",
                "type": "Leaf"
            },
            {
                "data": "9:909",
                "leaf": "clip",
                "type": "Leaf"
            },
            {
                "data": "9:891",
                "leaf": "clip",
                "type": "Leaf"
            },
            {
                "data": "9:905",
                "leaf": "clip",
                "type": "Leaf"
            },
            {
                "data": "9:897",
                "leaf": "clip",
                "type": "Leaf"
            },
            {
                "data": "9:901",
                "leaf": "clip",
                "type": "Leaf"
            },
            {
                "data": "9:907",
                "leaf": "clip",
                "type": "Leaf"
            },
            {
                "data": "9:893",
                "leaf": "clip",
                "type": "Leaf"
            },
            {
                "data": "9:903",
                "leaf": "clip",
                "type": "Leaf"
            },
            {
                "data": "9:911",
                "leaf": "clip",
                "type": "Leaf"
            },
            {
                "data": "9:899",
                "leaf": "clip",
                "type": "Leaf"
            },
            {
                "data": "9:913",
                "leaf": "clip",
                "type": "Leaf"
            }
        ],
        "type": "Normal"
    },
    {
        "children": [
            {
                "data": "6:1607",
                "leaf": "clip",
                "type": "Leaf"
            },
            {
                "data": "1:1607",
                "leaf": "clip",
                "type": "Leaf"
            }
        ],
        "type": "AVSplit"
    },
    {
        "children": [
            {
                "data": "9:727",
                "leaf": "clip",
                "type": "Leaf"
            },
            {
                "data": "9:741",
                "leaf": "clip",
                "type": "Leaf"
            },
            {
                "data": "9:723",
                "leaf": "clip",
                "type": "Leaf"
            },
            {
                "data": "9:737",
                "leaf": "clip",
                "type": "Leaf"
            },
            {
                "data": "9:729",
                "leaf": "clip",
                "type": "Leaf"
            },
            {
                "data": "9:733",
                "leaf": "clip",
                "type": "Leaf"
            },
            {
                "data": "9:739",
                "leaf": "clip",
                "type": "Leaf"
            },
            {
                "data": "9:725",
                "leaf": "clip",
                "type": "Leaf"
            },
            {
                "data": "9:735",
                "leaf": "clip",
                "type": "Leaf"
            },
            {
                "data": "9:743",
                "leaf": "clip",
                "type": "Leaf"
            },
            {
                "data": "9:731",
                "leaf": "clip",
                "type": "Leaf"
            },
            {
                "data": "9:745",
                "leaf": "clip",
                "type": "Leaf"
            }
        ],
        "type": "Normal"
    },
    {
        "children": [
            {
                "data": "9:823",
                "leaf": "clip",
                "type": "Leaf"
            },
            {
                "data": "9:837",
                "leaf": "clip",
                "type": "Leaf"
            },
            {
                "data": "9:819",
                "leaf": "clip",
                "type": "Leaf"
            },
            {
                "data": "9:833",
                "leaf": "clip",
                "type": "Leaf"
            },
            {
                "data": "9:825",
                "leaf": "clip",
                "type": "Leaf"
            },
            {
                "data": "9:829",
                "leaf": "clip",
                "type": "Leaf"
            },
            {
                "data": "9:835",
                "leaf": "clip",
                "type": "Leaf"
            },
            {
                "data": "9:821",
                "leaf": "clip",
                "type": "Leaf"
            },
            {
                "data": "9:831",
                "leaf": "clip",
                "type": "Leaf"
            },
            {
                "data": "9:839",
                "leaf": "clip",
                "type": "Leaf"
            },
            {
                "data": "9:827",
                "leaf": "clip",
                "type": "Leaf"
            },
            {
                "data": "9:841",
                "leaf": "clip",
                "type": "Leaf"
            }
        ],
        "type": "Normal"
    },
    {
        "children": [
            {
                "data": "9:943",
                "leaf": "clip",
                "type": "Leaf"
            },
            {
                "data": "9:957",
                "leaf": "clip",
                "type": "Leaf"
            },
            {
                "data": "9:939",
                "leaf": "clip",
                "type": "Leaf"
            },
            {
                "data": "9:953",
                "leaf": "clip",
                "type": "Leaf"
            },
            {
                "data": "9:945",
                "leaf": "clip",
                "type": "Leaf"
            },
            {
                "data": "9:949",
                "leaf": "clip",
                "type": "Leaf"
            },
            {
                "data": "9:955",
                "leaf": "clip",
                "type": "Leaf"
            },
            {
                "data": "9:941",
                "leaf": "clip",
                "type": "Leaf"
            },
            {
                "data": "9:951",
                "leaf": "clip",
                "type": "Leaf"
            },
            {
                "data": "9:959",
                "leaf": "clip",
                "type": "Leaf"
            },
            {
                "data": "9:947",
                "leaf": "clip",
                "type": "Leaf"
            },
            {
                "data": "9:961",
                "leaf": "clip",
                "type": "Leaf"
            }
        ],
        "type": "Normal"
    },
    {
        "children": [
            {
                "data": "9:655",
                "leaf": "clip",
                "type": "Leaf"
            },
            {
                "data": "9:669",
                "leaf": "clip",
                "type": "Leaf"
            },
            {
                "data": "9:651",
                "leaf": "clip",
                "type": "Leaf"
            },
            {
                "data": "9:665",
                "leaf": "clip",
                "type": "Leaf"
            },
            {
                "data": "9:657",
                "leaf": "clip",
                "type": "Leaf"
            },
            {
                "data": "9:661",
                "leaf": "clip",
                "type": "Leaf"
            },
            {
                "data": "9:667",
                "leaf": "clip",
                "type": "Leaf"
            },
            {
                "data": "9:653",
                "leaf": "clip",
                "type": "Leaf"
            },
            {
                "data": "9:663",
                "leaf": "clip",
                "type": "Leaf"
            },
            {
                "data": "9:671",
                "leaf": "clip",
                "type": "Leaf"
            },
            {
                "data": "9:659",
                "leaf": "clip",
                "type": "Leaf"
            },
            {
                "data": "9:673",
                "leaf": "clip",
                "type": "Leaf"
            }
        ],
        "type": "Normal"
    },
    {
        "children": [
            {
                "data": "9:645",
                "leaf": "clip",
                "type": "Leaf"
            },
            {
                "data": "9:631",
                "leaf": "clip",
                "type": "Leaf"
            },
            {
                "data": "9:627",
                "leaf": "clip",
                "type": "Leaf"
            },
            {
                "data": "9:641",
                "leaf": "clip",
                "type": "Leaf"
            },
            {
                "data": "9:637",
                "leaf": "clip",
                "type": "Leaf"
            },
            {
                "data": "9:633",
                "leaf": "clip",
                "type": "Leaf"
            },
            {
                "data": "9:629",
                "leaf": "clip",
                "type": "Leaf"
            },
            {
                "data": "9:643",
                "leaf": "clip",
                "type": "Leaf"
            },
            {
                "data": "9:639",
                "leaf": "clip",
                "type": "Leaf"
            },
            {
                "data": "9:647",
                "leaf": "clip",
                "type": "Leaf"
            },
            {
                "data": "9:649",
                "leaf": "clip",
                "type": "Leaf"
            },
            {
                "data": "9:635",
                "leaf": "clip",
                "type": "Leaf"
            }
        ],
        "type": "Normal"
    },
    {
        "children": [
            {
                "data": "9:703",
                "leaf": "clip",
                "type": "Leaf"
            },
            {
                "data": "9:717",
                "leaf": "clip",
                "type": "Leaf"
            },
            {
                "data": "9:699",
                "leaf": "clip",
                "type": "Leaf"
            },
            {
                "data": "9:713",
                "leaf": "clip",
                "type": "Leaf"
            },
            {
                "data": "9:705",
                "leaf": "clip",
                "type": "Leaf"
            },
            {
                "data": "9:709",
                "leaf": "clip",
                "type": "Leaf"
            },
            {
                "data": "9:715",
                "leaf": "clip",
                "type": "Leaf"
            },
            {
                "data": "9:701",
                "leaf": "clip",
                "type": "Leaf"
            },
            {
                "data": "9:711",
                "leaf": "clip",
                "type": "Leaf"
            },
            {
                "data": "9:719",
                "leaf": "clip",
                "type": "Leaf"
            },
            {
                "data": "9:707",
                "leaf": "clip",
                "type": "Leaf"
            },
            {
                "data": "9:721",
                "leaf": "clip",
                "type": "Leaf"
            }
        ],
        "type": "Normal"
    },
    {
        "children": [
            {
                "data": "10:271",
                "leaf": "clip",
                "type": "Leaf"
            },
            {
                "data": "0:271",
                "leaf": "clip",
                "type": "Leaf"
            }
        ],
        "type": "AVSplit"
    },
    {
        "children": [
            {
                "data": "9:919",
                "leaf": "clip",
                "type": "Leaf"
            },
            {
                "data": "9:933",
                "leaf": "clip",
                "type": "Leaf"
            },
            {
                "data": "9:915",
                "leaf": "clip",
                "type": "Leaf"
            },
            {
                "data": "9:929",
                "leaf": "clip",
                "type": "Leaf"
            },
            {
                "data": "9:921",
                "leaf": "clip",
                "type": "Leaf"
            },
            {
                "data": "9:925",
                "leaf": "clip",
                "type": "Leaf"
            },
            {
                "data": "9:931",
                "leaf": "clip",
                "type": "Leaf"
            },
            {
                "data": "9:917",
                "leaf": "clip",
                "type": "Leaf"
            },
            {
                "data": "9:927",
                "leaf": "clip",
                "type": "Leaf"
            },
            {
                "data": "9:935",
                "leaf": "clip",
                "type": "Leaf"
            },
            {
                "data": "9:923",
                "leaf": "clip",
                "type": "Leaf"
            },
            {
                "data": "9:937",
                "leaf": "clip",
                "type": "Leaf"
            }
        ],
        "type": "Normal"
    },
    {
        "children": [
            {
                "data": "9:967",
                "leaf": "clip",
                "type": "Leaf"
            },
            {
                "data": "9:981",
                "leaf": "clip",
                "type": "Leaf"
            },
            {
                "data": "9:963",
                "leaf": "clip",
                "type": "Leaf"
            },
            {
                "data": "9:977",
                "leaf": "clip",
                "type": "Leaf"
            },
            {
                "data": "9:969",
                "leaf": "clip",
                "type": "Leaf"
            },
            {
                "data": "9:973",
                "leaf": "clip",
                "type": "Leaf"
            },
            {
                "data": "9:979",
                "leaf": "clip",
                "type": "Leaf"
            },
            {
                "data": "9:965",
                "leaf": "clip",
                "type": "Leaf"
            },
            {
                "data": "9:975",
                "leaf": "clip",
                "type": "Leaf"
            },
            {
                "data": "9:983",
                "leaf": "clip",
                "type": "Leaf"
            },
            {
                "data": "9:971",
                "leaf": "clip",
                "type": "Leaf"
            },
            {
                "data": "9:985",
                "leaf": "clip",
                "type": "Leaf"
            }
        ],
        "type": "Normal"
    },
    {
        "children": [
            {
                "data": "9:1017",
                "leaf": "clip",
                "type": "Leaf"
            },
            {
                "data": "9:1011",
                "leaf": "clip",
                "type": "Leaf"
            },
            {
                "data": "9:1025",
                "leaf": "clip",
                "type": "Leaf"
            },
            {
                "data": "9:1015",
                "leaf": "clip",
                "type": "Leaf"
            },
            {
                "data": "9:1023",
                "leaf": "clip",
                "type": "Leaf"
            },
            {
                "data": "9:1029",
                "leaf": "clip",
                "type": "Leaf"
            },
            {
                "data": "9:1019",
                "leaf": "clip",
                "type": "Leaf"
            },
            {
                "data": "9:1013",
                "leaf": "clip",
                "type": "Leaf"
            },
            {
                "data": "9:1027",
                "leaf": "clip",
                "type": "Leaf"
            },
            {
                "data": "9:1031",
                "leaf": "clip",
                "type": "Leaf"
            },
            {
                "data": "9:1021",
                "leaf": "clip",
                "type": "Leaf"
            }
        ],
        "type": "Normal"
    },
    {
        "children": [
            {
                "data": "9:991",
                "leaf": "clip",
                "type": "Leaf"
            },
            {
                "data": "9:1005",
                "leaf": "clip",
                "type": "Leaf"
            },
            {
                "data": "9:987",
                "leaf": "clip",
                "type": "Leaf"
            },
            {
                "data": "9:1001",
                "leaf": "clip",
                "type": "Leaf"
            },
            {
                "data": "9:993",
                "leaf": "clip",
                "type": "Leaf"
            },
            {
                "data": "9:997",
                "leaf": "clip",
                "type": "Leaf"
            },
            {
                "data": "9:1003",
                "leaf": "clip",
                "type": "Leaf"
            },
            {
                "data": "9:989",
                "leaf": "clip",
                "type": "Leaf"
            },
            {
                "data": "9:999",
                "leaf": "clip",
                "type": "Leaf"
            },
            {
                "data": "9:1007",
                "leaf": "clip",
                "type": "Leaf"
            },
            {
                "data": "9:995",
                "leaf": "clip",
                "type": "Leaf"
            },
            {
                "data": "9:1009",
                "leaf": "clip",
                "type": "Leaf"
            }
        ],
        "type": "Normal"
    },
    {
        "children": [
            {
                "data": "9:775",
                "leaf": "clip",
                "type": "Leaf"
            },
            {
                "data": "9:789",
                "leaf": "clip",
                "type": "Leaf"
            },
            {
                "data": "9:771",
                "leaf": "clip",
                "type": "Leaf"
            },
            {
                "data": "9:785",
                "leaf": "clip",
                "type": "Leaf"
            },
            {
                "data": "9:777",
                "leaf": "clip",
                "type": "Leaf"
            },
            {
                "data": "9:781",
                "leaf": "clip",
                "type": "Leaf"
            },
            {
                "data": "9:787",
                "leaf": "clip",
                "type": "Leaf"
            },
            {
                "data": "9:773",
                "leaf": "clip",
                "type": "Leaf"
            },
            {
                "data": "9:783",
                "leaf": "clip",
                "type": "Leaf"
            },
            {
                "data": "9:791",
                "leaf": "clip",
                "type": "Leaf"
            },
            {
                "data": "9:779",
                "leaf": "clip",
                "type": "Leaf"
            },
            {
                "data": "9:793",
                "leaf": "clip",
                "type": "Leaf"
            }
        ],
        "type": "Normal"
    },
    {
        "children": [
            {
                "data": "9:847",
                "leaf": "clip",
                "type": "Leaf"
            },
            {
                "data": "9:861",
                "leaf": "clip",
                "type": "Leaf"
            },
            {
                "data": "9:843",
                "leaf": "clip",
                "type": "Leaf"
            },
            {
                "data": "9:857",
                "leaf": "clip",
                "type": "Leaf"
            },
            {
                "data": "9:849",
                "leaf": "clip",
                "type": "Leaf"
            },
            {
                "data": "9:853",
                "leaf": "clip",
                "type": "Leaf"
            },
            {
                "data": "9:859",
                "leaf": "clip",
                "type": "Leaf"
            },
            {
                "data": "9:845",
                "leaf": "clip",
                "type": "Leaf"
            },
            {
                "data": "9:855",
                "leaf": "clip",
                "type": "Leaf"
            },
            {
                "data": "9:863",
                "leaf": "clip",
                "type": "Leaf"
            },
            {
                "data": "9:851",
                "leaf": "clip",
                "type": "Leaf"
            },
            {
                "data": "9:865",
                "leaf": "clip",
                "type": "Leaf"
            }
        ],
        "type": "Normal"
    },
    {
        "children": [
            {
                "data": "9:871",
                "leaf": "clip",
                "type": "Leaf"
            },
            {
                "data": "9:885",
                "leaf": "clip",
                "type": "Leaf"
            },
            {
                "data": "9:867",
                "leaf": "clip",
                "type": "Leaf"
            },
            {
                "data": "9:881",
                "leaf": "clip",
                "type": "Leaf"
            },
            {
                "data": "9:873",
                "leaf": "clip",
                "type": "Leaf"
            },
            {
                "data": "9:877",
                "leaf": "clip",
                "type": "Leaf"
            },
            {
                "data": "9:883",
                "leaf": "clip",
                "type": "Leaf"
            },
            {
                "data": "9:869",
                "leaf": "clip",
                "type": "Leaf"
            },
            {
                "data": "9:879",
                "leaf": "clip",
                "type": "Leaf"
            },
            {
                "data": "9:887",
                "leaf": "clip",
                "type": "Leaf"
            },
            {
                "data": "9:875",
                "leaf": "clip",
                "type": "Leaf"
            },
            {
                "data": "9:889",
                "leaf": "clip",
                "type": "Leaf"
            }
        ],
        "type": "Normal"
    },
    {
        "children": [
            {
                "data": "9:799",
                "leaf": "clip",
                "type": "Leaf"
            },
            {
                "data": "9:813",
                "leaf": "clip",
                "type": "Leaf"
            },
            {
                "data": "9:795",
                "leaf": "clip",
                "type": "Leaf"
            },
            {
                "data": "9:809",
                "leaf": "clip",
                "type": "Leaf"
            },
            {
                "data": "9:801",
                "leaf": "clip",
                "type": "Leaf"
            },
            {
                "data": "9:805",
                "leaf": "clip",
                "type": "Leaf"
            },
            {
                "data": "9:811",
                "leaf": "clip",
                "type": "Leaf"
            },
            {
                "data": "9:797",
                "leaf": "clip",
                "type": "Leaf"
            },
            {
                "data": "9:807",
                "leaf": "clip",
                "type": "Leaf"
            },
            {
                "data": "9:815",
                "leaf": "clip",
                "type": "Leaf"
            },
            {
                "data": "9:803",
                "leaf": "clip",
                "type": "Leaf"
            },
            {
                "data": "9:817",
                "leaf": "clip",
                "type": "Leaf"
            }
        ],
        "type": "Normal"
    },
    {
        "children": [
            {
                "data": "9:751",
                "leaf": "clip",
                "type": "Leaf"
            },
            {
                "data": "9:765",
                "leaf": "clip",
                "type": "Leaf"
            },
            {
                "data": "9:747",
                "leaf": "clip",
                "type": "Leaf"
            },
            {
                "data": "9:761",
                "leaf": "clip",
                "type": "Leaf"
            },
            {
                "data": "9:753",
                "leaf": "clip",
                "type": "Leaf"
            },
            {
                "data": "9:757",
                "leaf": "clip",
                "type": "Leaf"
            },
            {
                "data": "9:763",
                "leaf": "clip",
                "type": "Leaf"
            },
            {
                "data": "9:749",
                "leaf": "clip",
                "type": "Leaf"
            },
            {
                "data": "9:759",
                "leaf": "clip",
                "type": "Leaf"
            },
            {
                "data": "9:767",
                "leaf": "clip",
                "type": "Leaf"
            },
            {
                "data": "9:755",
                "leaf": "clip",
                "type": "Leaf"
            },
            {
                "data": "9:769",
                "leaf": "clip",
                "type": "Leaf"
            }
        ],
        "type": "Normal"
    },
    {
        "children": [
            {
                "data": "9:679",
                "leaf": "clip",
                "type": "Leaf"
            },
            {
                "data": "9:693",
                "leaf": "clip",
                "type": "Leaf"
            },
            {
                "data": "9:675",
                "leaf": "clip",
                "type": "Leaf"
            },
            {
                "data": "9:689",
                "leaf": "clip",
                "type": "Leaf"
            },
            {
                "data": "9:681",
                "leaf": "clip",
                "type": "Leaf"
            },
            {
                "data": "9:685",
                "leaf": "clip",
                "type": "Leaf"
            },
            {
                "data": "9:691",
                "leaf": "clip",
                "type": "Leaf"
            },
            {
                "data": "9:677",
                "leaf": "clip",
                "type": "Leaf"
            },
            {
                "data": "9:687",
                "leaf": "clip",
                "type": "Leaf"
            },
            {
                "data": "9:695",
                "leaf": "clip",
                "type": "Leaf"
            },
            {
                "data": "9:683",
                "leaf": "clip",
                "type": "Leaf"
            },
            {
                "data": "9:697",
                "leaf": "clip",
                "type": "Leaf"
            }
        ],
        "type": "Normal"
    },
    {
        "children": [
            {
                "data": "1:1033",
                "leaf": "clip",
                "type": "Leaf"
            },
            {
                "data": "9:1033",
                "leaf": "clip",
                "type": "Leaf"
            }
        ],
        "type": "AVSplit"
    }
]
</property>
  <property name="kdenlive:docproperties.kdenliveversion">20.12.1</property>
  <property name="kdenlive:docproperties.position">1229</property>
  <property name="kdenlive:docproperties.previewextension"/>
  <property name="kdenlive:docproperties.previewparameters"/>
  <property name="kdenlive:docproperties.profile">C:/Users/user/AppData/Roaming/kdenlive/profiles/customprofile4</property>
  <property name="kdenlive:docproperties.proxyextension"/>
  <property name="kdenlive:docproperties.proxyimageminsize">2000</property>
  <property name="kdenlive:docproperties.proxyimagesize">800</property>
  <property name="kdenlive:docproperties.proxyminsize">1000</property>
  <property name="kdenlive:docproperties.proxyparams"/>
  <property name="kdenlive:docproperties.renderaudioquality">6</property>
  <property name="kdenlive:docproperties.rendercategory">Generic (HD for web, mobile devices...)</property>
  <property name="kdenlive:docproperties.renderendguide">-1</property>
  <property name="kdenlive:docproperties.renderexportaudio">0</property>
  <property name="kdenlive:docproperties.renderfield">0</property>
  <property name="kdenlive:docproperties.renderguide">0</property>
  <property name="kdenlive:docproperties.renderplay">0</property>
  <property name="kdenlive:docproperties.renderprofile">WebM - the widespread free format (VP8/Vorbis)</property>
  <property name="kdenlive:docproperties.renderquality">23</property>
  <property name="kdenlive:docproperties.renderratio">1</property>
  <property name="kdenlive:docproperties.renderrescale">0</property>
  <property name="kdenlive:docproperties.renderrescaleheight">540</property>
  <property name="kdenlive:docproperties.renderrescalewidth">1156</property>
  <property name="kdenlive:docproperties.renderscanning">0</property>
  <property name="kdenlive:docproperties.renderspeed">2</property>
  <property name="kdenlive:docproperties.renderstartguide">-1</property>
  <property name="kdenlive:docproperties.rendertcoverlay">0</property>
  <property name="kdenlive:docproperties.rendertctype">0</property>
  <property name="kdenlive:docproperties.rendertwopass">0</property>
  <property name="kdenlive:docproperties.renderurl">C:/Users/user/Videos/a handful of stupid mindustry memes 2.webm</property>
  <property name="kdenlive:docproperties.renderzone">0</property>
  <property name="kdenlive:docproperties.scrollPos">318</property>
  <property name="kdenlive:docproperties.seekOffset">30000</property>
  <property name="kdenlive:docproperties.version">1</property>
  <property name="kdenlive:docproperties.verticalzoom">1</property>
  <property name="kdenlive:docproperties.videoTarget">-1</property>
  <property name="kdenlive:docproperties.zonein">0</property>
  <property name="kdenlive:docproperties.zoneout">75</property>
  <property name="kdenlive:docproperties.zoom">7</property>
  <property name="kdenlive:expandedFolders"/>
  <property name="kdenlive:documentnotes"/>
  <property name="xml_retain">1</property>
  <entry producer="producer0" in="00:00:00.000" out="00:00:04.967"/>
  <entry producer="producer1" in="00:00:00.000" out="00:00:09.233"/>
  <entry producer="producer2" in="00:00:00.000" out="00:03:52.767"/>
  <entry producer="producer3" in="00:00:00.000" out="00:00:04.967"/>
  <entry producer="producer4" in="00:00:00.000" out="00:03:35.067"/>
  <entry producer="producer5" in="00:00:00.000" out="00:00:47.700"/>
  <entry producer="producer6" in="00:00:00.000" out="00:00:06.867"/>
  <entry producer="producer7" in="00:00:00.000" out="00:00:06.867"/>
  <entry producer="producer8" in="00:00:00.000" out="00:03:44.467"/>
  <entry producer="producer9" in="00:00:00.000" out="00:03:36.900"/>
  <entry producer="producer10" in="00:00:00.000" out="00:00:05.633"/>
  <entry producer="producer11" in="00:00:00.000" out="00:00:04.967"/>
  <entry producer="producer12" in="00:00:00.000" out="00:00:04.967"/>
  <entry producer="producer13" in="00:00:00.000" out="00:00:04.967"/>
  <entry producer="producer14" in="00:00:00.000" out="00:00:04.967"/>
  <entry producer="producer15" in="00:00:00.000" out="00:00:04.967"/>
  <entry producer="producer16" in="00:00:00.000" out="00:00:04.967"/>
  <entry producer="producer17" in="00:00:00.000" out="00:00:04.967"/>
  <entry producer="producer18" in="00:00:00.000" out="00:00:04.967"/>
  <entry producer="producer19" in="00:00:00.000" out="00:00:04.967"/>
  <entry producer="producer20" in="00:00:00.000" out="00:00:04.967"/>
  <entry producer="producer21" in="00:00:00.000" out="00:00:04.967"/>
  <entry producer="producer22" in="00:00:00.000" out="00:00:04.967"/>
  <entry producer="producer23" in="00:00:00.000" out="00:00:04.967"/>
  <entry producer="producer24" in="00:00:00.000" out="00:03:27.500"/>
  <entry producer="producer25" in="00:00:00.000" out="00:00:05.033"/>
  <entry producer="producer26" in="00:00:00.000" out="00:00:13.433"/>
  <entry producer="producer27" in="00:00:00.000" out="00:00:07.533"/>
  <entry producer="producer28" in="00:00:00.000" out="00:00:04.967"/>
  <entry producer="producer29" in="00:00:00.000" out="00:00:18.000"/>
  <entry producer="producer30" in="00:00:00.000" out="00:06:09.267"/>
  <entry producer="producer31" in="00:00:00.000" out="00:00:05.067"/>
  <entry producer="producer32" in="00:00:00.000" out="00:00:04.967"/>
  <entry producer="producer33" in="00:00:00.000" out="00:00:04.967"/>
  <entry producer="producer34" in="00:00:00.000" out="00:00:04.967"/>
  <entry producer="producer35" in="00:00:00.000" out="00:00:04.967"/>
  <entry producer="producer36" in="00:00:00.000" out="00:00:04.967"/>
  <entry producer="producer37" in="00:00:00.000" out="00:00:04.967"/>
  <entry producer="producer38" in="00:00:00.000" out="00:00:04.967"/>
  <entry producer="producer39" in="00:00:00.000" out="00:00:04.967"/>
  <entry producer="producer40" in="00:00:00.000" out="00:00:04.967"/>
  <entry producer="producer41" in="00:00:00.000" out="00:00:04.967"/>
  <entry producer="producer42" in="00:00:00.000" out="00:00:04.967"/>
  <entry producer="producer43" in="00:00:00.000" out="00:00:04.967"/>
  <entry producer="producer44" in="00:00:00.000" out="00:00:04.967"/>
  <entry producer="producer45" in="00:00:00.000" out="00:00:04.967"/>
  <entry producer="producer46" in="00:00:00.000" out="00:00:04.967"/>
  <entry producer="producer47" in="00:00:00.000" out="00:00:04.967"/>
  <entry producer="producer48" in="00:00:00.000" out="00:00:04.967"/>
  <entry producer="producer49" in="00:00:00.000" out="00:00:04.967"/>
  <entry producer="producer50" in="00:00:00.000" out="00:00:04.967"/>
  <entry producer="producer51" in="00:00:00.000" out="00:00:04.967"/>
  <entry producer="producer52" in="00:00:00.000" out="00:00:04.967"/>
  <entry producer="producer53" in="00:00:00.000" out="00:00:04.967"/>
  <entry producer="producer54" in="00:00:00.000" out="00:00:04.967"/>
  <entry producer="producer55" in="00:00:00.000" out="00:00:04.967"/>
  <entry producer="producer56" in="00:00:00.000" out="00:00:04.967"/>
  <entry producer="producer57" in="00:00:00.000" out="00:00:04.967"/>
  <entry producer="producer58" in="00:00:00.000" out="00:00:04.967"/>
  <entry producer="producer59" in="00:00:00.000" out="00:00:04.967"/>
  <entry producer="producer60" in="00:00:00.000" out="00:00:04.967"/>
  <entry producer="producer61" in="00:00:00.000" out="00:00:04.967"/>
  <entry producer="producer62" in="00:00:00.000" out="00:00:04.967"/>
  <entry producer="producer63" in="00:00:00.000" out="00:00:04.967"/>
  <entry producer="producer64" in="00:00:00.000" out="00:00:04.967"/>
  <entry producer="producer65" in="00:00:00.000" out="00:00:04.967"/>
  <entry producer="producer66" in="00:00:00.000" out="00:00:04.967"/>
  <entry producer="producer67" in="00:00:00.000" out="00:00:04.967"/>
  <entry producer="producer68" in="00:00:00.000" out="00:00:04.967"/>
  <entry producer="producer69" in="00:00:00.000" out="00:00:04.967"/>
  <entry producer="producer70" in="00:00:00.000" out="00:00:04.967"/>
 </playlist>
 <producer id="black_track" in="00:00:00.000" out="00:17:46.833">
  <property name="length">2147483647</property>
  <property name="eof">continue</property>
  <property name="resource">black</property>
  <property name="aspect_ratio">1</property>
  <property name="mlt_service">color</property>
  <property name="mlt_image_format">rgb24a</property>
  <property name="set.test_audio">0</property>
 </producer>
 <producer id="producer71" in="00:00:00.000" out="00:03:35.067">
  <property name="length">6453</property>
  <property name="eof">pause</property>
  <property name="resource">clips/never gonna give you up but i put router's face on top of rick astley's face.mp4</property>
  <property name="audio_index">1</property>
  <property name="video_index">0</property>
  <property name="mute_on_pause">0</property>
  <property name="mlt_service">avformat-novalidate</property>
  <property name="seekable">1</property>
  <property name="aspect_ratio">1</property>
  <property name="kdenlive:clipname"/>
  <property name="kdenlive:folderid">-1</property>
  <property name="kdenlive:id">6</property>
  <property name="kdenlive:file_size">60270763</property>
  <property name="kdenlive:file_hash">c58d662c6586ac72df5c23b0fb08eeb3</property>
  <property name="global_feed">1</property>
  <property name="xml">was here</property>
  <property name="meta.media.nb_streams">2</property>
  <property name="meta.media.0.stream.type">video</property>
  <property name="meta.media.0.stream.frame_rate">30</property>
  <property name="meta.media.0.stream.sample_aspect_ratio">1</property>
  <property name="meta.media.0.codec.width">1280</property>
  <property name="meta.media.0.codec.height">720</property>
  <property name="meta.media.0.codec.rotate">0</property>
  <property name="meta.media.0.codec.frame_rate">30</property>
  <property name="meta.media.0.codec.pix_fmt">yuv420p</property>
  <property name="meta.media.0.codec.sample_aspect_ratio">1</property>
  <property name="meta.media.0.codec.colorspace">709</property>
  <property name="meta.media.0.codec.name">h264</property>
  <property name="meta.media.0.codec.long_name">H.264 / AVC / MPEG-4 AVC / MPEG-4 part 10</property>
  <property name="meta.media.0.codec.bit_rate">2044023</property>
  <property name="meta.attr.0.stream.handler_name.markup">VideoHandler</property>
  <property name="meta.media.1.stream.type">audio</property>
  <property name="meta.media.1.codec.sample_fmt">fltp</property>
  <property name="meta.media.1.codec.sample_rate">44100</property>
  <property name="meta.media.1.codec.channels">2</property>
  <property name="meta.media.1.codec.name">aac</property>
  <property name="meta.media.1.codec.long_name">AAC (Advanced Audio Coding)</property>
  <property name="meta.media.1.codec.bit_rate">190732</property>
  <property name="meta.attr.1.stream.handler_name.markup">SoundHandler</property>
  <property name="meta.attr.major_brand.markup">isom</property>
  <property name="meta.attr.minor_version.markup">512</property>
  <property name="meta.attr.compatible_brands.markup">isomiso2avc1mp41</property>
  <property name="meta.attr.encoder.markup">Lavf58.46.101</property>
  <property name="meta.media.sample_aspect_num">1</property>
  <property name="meta.media.sample_aspect_den">1</property>
  <property name="meta.media.frame_rate_num">30</property>
  <property name="meta.media.frame_rate_den">1</property>
  <property name="meta.media.colorspace">709</property>
  <property name="meta.media.color_trc">2</property>
  <property name="meta.media.width">1280</property>
  <property name="meta.media.height">720</property>
  <property name="meta.media.color_range">mpeg</property>
  <property name="meta.media.top_field_first">0</property>
  <property name="meta.media.progressive">1</property>
  <property name="set.test_audio">0</property>
  <property name="set.test_image">1</property>
 </producer>
 <playlist id="playlist0">
  <property name="kdenlive:audio_track">1</property>
  <blank length="00:00:09.033"/>
  <entry producer="producer71" in="00:00:03.100" out="00:00:04.567">
   <property name="kdenlive:id">6</property>
   <filter id="filter1">
    <property name="window">75</property>
    <property name="max_gain">20dB</property>
    <property name="level">00:00:03.100=0;00:00:04.400~=0;00:00:04.567~=50</property>
    <property name="mlt_service">volume</property>
    <property name="kdenlive_id">volume</property>
    <property name="kdenlive:collapsed">0</property>
   </filter>
   <filter id="filter2">
    <property name="window">75</property>
    <property name="max_gain">20dB</property>
    <property name="level">00:00:03.100=0;00:00:04.300~=0;00:00:04.567~=50</property>
    <property name="mlt_service">volume</property>
    <property name="kdenlive_id">volume</property>
    <property name="kdenlive:collapsed">0</property>
   </filter>
   <filter id="filter3">
    <property name="window">75</property>
    <property name="max_gain">20dB</property>
    <property name="level">00:00:03.100=0;00:00:03.933~=0;00:00:04.067~=5;00:00:04.233~=29;00:00:04.567~=50</property>
    <property name="mlt_service">volume</property>
    <property name="kdenlive_id">volume</property>
    <property name="kdenlive:collapsed">0</property>
   </filter>
   <filter id="filter4" in="00:00:04.400" out="00:00:04.567">
    <property name="window">75</property>
    <property name="max_gain">20dB</property>
    <property name="mlt_service">volume</property>
    <property name="kdenlive_id">fadeout</property>
    <property name="gain">1</property>
    <property name="end">0</property>
    <property name="kdenlive:collapsed">0</property>
   </filter>
  </entry>
 </playlist>
 <playlist id="playlist1"/>
 <tractor id="tractor0" in="00:00:00.000" out="00:00:10.500">
  <property name="kdenlive:audio_track">1</property>
  <property name="kdenlive:trackheight">67</property>
  <property name="kdenlive:timeline_active">1</property>
  <property name="kdenlive:collapsed">0</property>
  <property name="kdenlive:thumbs_format"/>
  <property name="kdenlive:audio_rec"/>
  <track hide="video" producer="playlist0"/>
  <track hide="video" producer="playlist1"/>
  <filter id="filter5">
   <property name="window">75</property>
   <property name="max_gain">20dB</property>
   <property name="mlt_service">volume</property>
   <property name="internal_added">237</property>
   <property name="disable">1</property>
  </filter>
  <filter id="filter6">
   <property name="channel">-1</property>
   <property name="mlt_service">panner</property>
   <property name="internal_added">237</property>
   <property name="start">0.5</property>
   <property name="disable">1</property>
  </filter>
  <filter id="filter7">
   <property name="iec_scale">0</property>
   <property name="mlt_service">audiolevel</property>
   <property name="disable">1</property>
  </filter>
 </tractor>
 <producer id="producer72" in="00:00:00.000" out="00:00:05.633">
  <property name="length">170</property>
  <property name="eof">pause</property>
  <property name="resource">clips/We'll Be Right Back Green Screen.mp4</property>
  <property name="audio_index">1</property>
  <property name="video_index">0</property>
  <property name="mute_on_pause">0</property>
  <property name="mlt_service">avformat-novalidate</property>
  <property name="seekable">1</property>
  <property name="aspect_ratio">1</property>
  <property name="kdenlive:clipname"/>
  <property name="kdenlive:folderid">-1</property>
  <property name="kdenlive:id">12</property>
  <property name="kdenlive:file_size">304818</property>
  <property name="kdenlive:file_hash">eafb977e5fa6aaacf38cbd61fe02ba41</property>
  <property name="global_feed">1</property>
  <property name="xml">was here</property>
  <property name="meta.media.nb_streams">2</property>
  <property name="meta.media.0.stream.type">video</property>
  <property name="meta.media.0.stream.frame_rate">29.97</property>
  <property name="meta.media.0.stream.sample_aspect_ratio">0</property>
  <property name="meta.media.0.codec.width">640</property>
  <property name="meta.media.0.codec.height">360</property>
  <property name="meta.media.0.codec.rotate">0</property>
  <property name="meta.media.0.codec.frame_rate">29.97</property>
  <property name="meta.media.0.codec.pix_fmt">yuv420p</property>
  <property name="meta.media.0.codec.sample_aspect_ratio">1</property>
  <property name="meta.media.0.codec.colorspace">709</property>
  <property name="meta.media.0.codec.color_trc">1</property>
  <property name="meta.media.0.codec.name">h264</property>
  <property name="meta.media.0.codec.long_name">H.264 / AVC / MPEG-4 AVC / MPEG-4 part 10</property>
  <property name="meta.media.0.codec.bit_rate">337635</property>
  <property name="meta.attr.0.stream.creation_time.markup">2020-04-27T17:50:33.000000Z</property>
  <property name="meta.attr.0.stream.handler_name.markup">ISO Media file produced by Google Inc. Created on: 04/27/2020.</property>
  <property name="meta.media.1.stream.type">audio</property>
  <property name="meta.media.1.codec.sample_fmt">fltp</property>
  <property name="meta.media.1.codec.sample_rate">44100</property>
  <property name="meta.media.1.codec.channels">2</property>
  <property name="meta.media.1.codec.name">aac</property>
  <property name="meta.media.1.codec.long_name">AAC (Advanced Audio Coding)</property>
  <property name="meta.media.1.codec.bit_rate">95999</property>
  <property name="meta.attr.1.stream.creation_time.markup">2020-04-27T17:50:33.000000Z</property>
  <property name="meta.attr.1.stream.language.markup">eng</property>
  <property name="meta.attr.1.stream.handler_name.markup">ISO Media file produced by Google Inc. Created on: 04/27/2020.</property>
  <property name="meta.attr.major_brand.markup">mp42</property>
  <property name="meta.attr.minor_version.markup">0</property>
  <property name="meta.attr.compatible_brands.markup">isommp42</property>
  <property name="meta.attr.creation_time.markup">2020-04-27T17:50:33.000000Z</property>
  <property name="meta.attr.encoder.markup">Google</property>
  <property name="meta.media.sample_aspect_num">1</property>
  <property name="meta.media.sample_aspect_den">1</property>
  <property name="meta.media.frame_rate_num">2997</property>
  <property name="meta.media.frame_rate_den">100</property>
  <property name="meta.media.colorspace">709</property>
  <property name="meta.media.color_trc">1</property>
  <property name="meta.media.width">640</property>
  <property name="meta.media.height">360</property>
  <property name="meta.media.color_range">mpeg</property>
  <property name="meta.media.top_field_first">0</property>
  <property name="meta.media.progressive">1</property>
  <property name="set.test_audio">0</property>
  <property name="set.test_image">1</property>
 </producer>
 <producer id="producer73" in="00:00:00.000" out="00:00:05.033">
  <property name="length">152</property>
  <property name="eof">pause</property>
  <property name="resource">clips/Explosion croma key green screen, with explosion sound effect!.mp4</property>
  <property name="audio_index">1</property>
  <property name="video_index">0</property>
  <property name="mute_on_pause">0</property>
  <property name="mlt_service">avformat-novalidate</property>
  <property name="seekable">1</property>
  <property name="aspect_ratio">1</property>
  <property name="kdenlive:clipname"/>
  <property name="kdenlive:folderid">-1</property>
  <property name="kdenlive:id">27</property>
  <property name="kdenlive:file_size">238277</property>
  <property name="kdenlive:file_hash">af98237d56441e41663d1025a831c5d1</property>
  <property name="global_feed">1</property>
  <property name="kdenlive:audio_max">1</property>
  <property name="xml">was here</property>
  <property name="meta.media.nb_streams">2</property>
  <property name="meta.media.0.stream.type">video</property>
  <property name="meta.media.0.stream.frame_rate">25</property>
  <property name="meta.media.0.stream.sample_aspect_ratio">0</property>
  <property name="meta.media.0.codec.width">640</property>
  <property name="meta.media.0.codec.height">360</property>
  <property name="meta.media.0.codec.rotate">0</property>
  <property name="meta.media.0.codec.frame_rate">25</property>
  <property name="meta.media.0.codec.pix_fmt">yuv420p</property>
  <property name="meta.media.0.codec.sample_aspect_ratio">1</property>
  <property name="meta.media.0.codec.colorspace">601</property>
  <property name="meta.media.0.codec.name">h264</property>
  <property name="meta.media.0.codec.long_name">H.264 / AVC / MPEG-4 AVC / MPEG-4 part 10</property>
  <property name="meta.media.0.codec.bit_rate">281943</property>
  <property name="meta.attr.0.stream.handler_name.markup">VideoHandler</property>
  <property name="meta.media.1.stream.type">audio</property>
  <property name="meta.media.1.codec.sample_fmt">fltp</property>
  <property name="meta.media.1.codec.sample_rate">44100</property>
  <property name="meta.media.1.codec.channels">2</property>
  <property name="meta.media.1.codec.name">aac</property>
  <property name="meta.media.1.codec.long_name">AAC (Advanced Audio Coding)</property>
  <property name="meta.media.1.codec.bit_rate">95999</property>
  <property name="meta.attr.1.stream.creation_time.markup">2017-01-29T08:57:24.000000Z</property>
  <property name="meta.attr.1.stream.handler_name.markup">IsoMedia File Produced by Google, 5-11-2011</property>
  <property name="meta.attr.major_brand.markup">mp42</property>
  <property name="meta.attr.minor_version.markup">0</property>
  <property name="meta.attr.compatible_brands.markup">isommp42</property>
  <property name="meta.attr.creation_time.markup">2017-01-29T08:57:24.000000Z</property>
  <property name="meta.media.sample_aspect_num">1</property>
  <property name="meta.media.sample_aspect_den">1</property>
  <property name="meta.media.frame_rate_num">25</property>
  <property name="meta.media.frame_rate_den">1</property>
  <property name="meta.media.colorspace">601</property>
  <property name="meta.media.color_trc">2</property>
  <property name="meta.media.width">640</property>
  <property name="meta.media.height">360</property>
  <property name="meta.media.color_range">mpeg</property>
  <property name="meta.media.top_field_first">0</property>
  <property name="meta.media.progressive">1</property>
  <property name="set.test_audio">0</property>
  <property name="set.test_image">1</property>
 </producer>
 <playlist id="playlist2">
  <property name="kdenlive:audio_track">1</property>
  <blank length="00:00:34.433"/>
  <entry producer="producer72" in="00:00:00.067" out="00:00:04.533">
   <property name="kdenlive:id">12</property>
  </entry>
  <blank length="00:00:14.633"/>
  <entry producer="producer73" in="00:00:00.067" out="00:00:01.700">
   <property name="kdenlive:id">27</property>
   <filter id="filter8">
    <property name="window">75</property>
    <property name="max_gain">20dB</property>
    <property name="level">00:00:00.067=0;00:00:01.467~=0;00:00:01.700~=50</property>
    <property name="mlt_service">volume</property>
    <property name="kdenlive_id">volume</property>
    <property name="kdenlive:collapsed">0</property>
   </filter>
   <filter id="filter9">
    <property name="window">75</property>
    <property name="max_gain">20dB</property>
    <property name="level">00:00:00.067=0;00:00:01.367~=0;00:00:01.700~=50</property>
    <property name="mlt_service">volume</property>
    <property name="kdenlive_id">volume</property>
    <property name="kdenlive:collapsed">0</property>
   </filter>
   <filter id="filter10">
    <property name="window">75</property>
    <property name="max_gain">20dB</property>
    <property name="level">00:00:00.067=0;00:00:01.133~=0;00:00:01.700~=50</property>
    <property name="mlt_service">volume</property>
    <property name="kdenlive_id">volume</property>
    <property name="kdenlive:collapsed">0</property>
   </filter>
  </entry>
 </playlist>
 <playlist id="playlist3"/>
 <tractor id="tractor1" in="00:00:00.000" out="00:00:55.200">
  <property name="kdenlive:audio_track">1</property>
  <property name="kdenlive:trackheight">67</property>
  <property name="kdenlive:timeline_active">1</property>
  <property name="kdenlive:collapsed">0</property>
  <property name="kdenlive:thumbs_format"/>
  <property name="kdenlive:audio_rec"/>
  <track hide="video" producer="playlist2"/>
  <track hide="video" producer="playlist3"/>
  <filter id="filter11">
   <property name="window">75</property>
   <property name="max_gain">20dB</property>
   <property name="mlt_service">volume</property>
   <property name="internal_added">237</property>
   <property name="disable">1</property>
  </filter>
  <filter id="filter12">
   <property name="channel">-1</property>
   <property name="mlt_service">panner</property>
   <property name="internal_added">237</property>
   <property name="start">0.5</property>
   <property name="disable">1</property>
  </filter>
  <filter id="filter13">
   <property name="iec_scale">0</property>
   <property name="mlt_service">audiolevel</property>
   <property name="disable">1</property>
  </filter>
 </tractor>
 <playlist id="playlist4">
  <property name="kdenlive:audio_track">1</property>
 </playlist>
 <playlist id="playlist5"/>
 <tractor id="tractor2" in="00:00:00.000">
  <property name="kdenlive:audio_track">1</property>
  <property name="kdenlive:trackheight">67</property>
  <property name="kdenlive:timeline_active">1</property>
  <property name="kdenlive:collapsed">0</property>
  <property name="kdenlive:thumbs_format"/>
  <property name="kdenlive:audio_rec"/>
  <track hide="video" producer="playlist4"/>
  <track hide="video" producer="playlist5"/>
  <filter id="filter14">
   <property name="window">75</property>
   <property name="max_gain">20dB</property>
   <property name="mlt_service">volume</property>
   <property name="internal_added">237</property>
   <property name="disable">1</property>
  </filter>
  <filter id="filter15">
   <property name="channel">-1</property>
   <property name="mlt_service">panner</property>
   <property name="internal_added">237</property>
   <property name="start">0.5</property>
   <property name="disable">1</property>
  </filter>
  <filter id="filter16">
   <property name="iec_scale">0</property>
   <property name="mlt_service">audiolevel</property>
   <property name="disable">1</property>
  </filter>
 </tractor>
 <producer id="producer74" in="00:00:00.000" out="00:03:52.767">
  <property name="length">6984</property>
  <property name="eof">pause</property>
  <property name="resource">music/Bastille - Pompeii.mp3</property>
  <property name="audio_index">0</property>
  <property name="video_index">-1</property>
  <property name="mute_on_pause">0</property>
  <property name="mlt_service">avformat-novalidate</property>
  <property name="meta.media.nb_streams">1</property>
  <property name="meta.media.0.stream.type">audio</property>
  <property name="meta.media.0.codec.sample_fmt">fltp</property>
  <property name="meta.media.0.codec.sample_rate">44100</property>
  <property name="meta.media.0.codec.channels">2</property>
  <property name="meta.media.0.codec.name">mp3float</property>
  <property name="meta.media.0.codec.long_name">MP3 (MPEG audio layer 3)</property>
  <property name="meta.media.0.codec.bit_rate">192000</property>
  <property name="meta.attr.0.stream.encoder.markup">Lavc57.64</property>
  <property name="meta.attr.major_brand.markup">dash</property>
  <property name="meta.attr.minor_version.markup">0</property>
  <property name="meta.attr.compatible_brands.markup">iso6mp41</property>
  <property name="meta.attr.encoder.markup">Lavf57.56.101</property>
  <property name="seekable">1</property>
  <property name="kdenlive:clipname"/>
  <property name="kdenlive:folderid">-1</property>
  <property name="kdenlive:id">4</property>
  <property name="kdenlive:file_size">5588042</property>
  <property name="kdenlive:file_hash">ea9250acbf8f2d19442e6e304793b76d</property>
  <property name="global_feed">1</property>
  <property name="xml">was here</property>
  <property name="set.test_audio">0</property>
  <property name="set.test_image">1</property>
 </producer>
 <producer id="producer75" in="00:00:00.000" out="00:00:47.700">
  <property name="length">1432</property>
  <property name="eof">pause</property>
  <property name="resource">music/wen da impusta is sus.wav</property>
  <property name="audio_index">0</property>
  <property name="video_index">-1</property>
  <property name="mute_on_pause">0</property>
  <property name="mlt_service">avformat-novalidate</property>
  <property name="meta.media.nb_streams">1</property>
  <property name="meta.media.0.stream.type">audio</property>
  <property name="meta.media.0.codec.sample_fmt">s16</property>
  <property name="meta.media.0.codec.sample_rate">44100</property>
  <property name="meta.media.0.codec.channels">2</property>
  <property name="meta.media.0.codec.name">pcm_s16le</property>
  <property name="meta.media.0.codec.long_name">PCM signed 16-bit little-endian</property>
  <property name="meta.media.0.codec.bit_rate">1411200</property>
  <property name="meta.attr.comment.markup">sus</property>
  <property name="seekable">1</property>
  <property name="kdenlive:clipname"/>
  <property name="kdenlive:folderid">-1</property>
  <property name="kdenlive:id">7</property>
  <property name="kdenlive:file_size">8422532</property>
  <property name="kdenlive:file_hash">f378ca801a026bc71cfefe0f980c40f0</property>
  <property name="global_feed">1</property>
  <property name="kdenlive:audio_max">1</property>
  <property name="xml">was here</property>
  <property name="set.test_audio">0</property>
  <property name="set.test_image">1</property>
 </producer>
 <producer id="producer76" in="00:00:00.000" out="00:03:36.900">
  <property name="length">6508</property>
  <property name="eof">pause</property>
  <property name="resource">music/Nyan Cat [original].mp3</property>
  <property name="audio_index">0</property>
  <property name="video_index">-1</property>
  <property name="mute_on_pause">0</property>
  <property name="mlt_service">avformat-novalidate</property>
  <property name="meta.media.nb_streams">1</property>
  <property name="meta.media.0.stream.type">audio</property>
  <property name="meta.media.0.codec.sample_fmt">fltp</property>
  <property name="meta.media.0.codec.sample_rate">44100</property>
  <property name="meta.media.0.codec.channels">2</property>
  <property name="meta.media.0.codec.name">mp3float</property>
  <property name="meta.media.0.codec.long_name">MP3 (MPEG audio layer 3)</property>
  <property name="meta.media.0.codec.bit_rate">192000</property>
  <property name="meta.attr.0.stream.encoder.markup">Lavc57.64</property>
  <property name="meta.attr.major_brand.markup">dash</property>
  <property name="meta.attr.minor_version.markup">0</property>
  <property name="meta.attr.compatible_brands.markup">iso6mp41</property>
  <property name="meta.attr.encoder.markup">Lavf57.56.101</property>
  <property name="seekable">1</property>
  <property name="kdenlive:clipname"/>
  <property name="kdenlive:folderid">-1</property>
  <property name="kdenlive:id">11</property>
  <property name="kdenlive:file_size">5206863</property>
  <property name="kdenlive:file_hash">63b63d59406b417859ea428995de7b22</property>
  <property name="global_feed">1</property>
  <property name="kdenlive:audio_max">1</property>
  <property name="xml">was here</property>
  <property name="set.test_audio">0</property>
  <property name="set.test_image">1</property>
 </producer>
 <producer id="producer77" in="00:00:00.000" out="00:03:44.467">
  <property name="length">6735</property>
  <property name="eof">pause</property>
  <property name="resource">music/Anuke_the_Cat.ogg</property>
  <property name="audio_index">0</property>
  <property name="video_index">-1</property>
  <property name="mute_on_pause">0</property>
  <property name="mlt_service">avformat-novalidate</property>
  <property name="meta.media.nb_streams">1</property>
  <property name="meta.media.0.stream.type">audio</property>
  <property name="meta.media.0.codec.sample_fmt">fltp</property>
  <property name="meta.media.0.codec.sample_rate">44100</property>
  <property name="meta.media.0.codec.channels">2</property>
  <property name="meta.media.0.codec.name">vorbis</property>
  <property name="meta.media.0.codec.long_name">Vorbis</property>
  <property name="meta.media.0.codec.bit_rate">160000</property>
  <property name="meta.attr.0.stream.Cool.markup">This song has been made using LMMS</property>
  <property name="seekable">1</property>
  <property name="kdenlive:clipname"/>
  <property name="kdenlive:folderid">-1</property>
  <property name="kdenlive:id">10</property>
  <property name="kdenlive:file_size">4582478</property>
  <property name="kdenlive:file_hash">db961babdf9174d394e0e9e13dc65fd1</property>
  <property name="kdenlive:audio_max">1</property>
  <property name="global_feed">1</property>
  <property name="xml">was here</property>
  <property name="set.test_audio">0</property>
  <property name="set.test_image">1</property>
 </producer>
 <producer id="producer78" in="00:00:00.000" out="00:03:27.500">
  <property name="length">6226</property>
  <property name="eof">pause</property>
  <property name="resource">music/Redbone - Come and Get Your Love (Single Edit - Audio).mp3</property>
  <property name="audio_index">0</property>
  <property name="video_index">-1</property>
  <property name="mute_on_pause">0</property>
  <property name="mlt_service">avformat-novalidate</property>
  <property name="meta.media.nb_streams">1</property>
  <property name="meta.media.0.stream.type">audio</property>
  <property name="meta.media.0.codec.sample_fmt">fltp</property>
  <property name="meta.media.0.codec.sample_rate">44100</property>
  <property name="meta.media.0.codec.channels">2</property>
  <property name="meta.media.0.codec.name">mp3float</property>
  <property name="meta.media.0.codec.long_name">MP3 (MPEG audio layer 3)</property>
  <property name="meta.media.0.codec.bit_rate">192000</property>
  <property name="meta.attr.0.stream.encoder.markup">Lavc57.64</property>
  <property name="meta.attr.major_brand.markup">dash</property>
  <property name="meta.attr.minor_version.markup">0</property>
  <property name="meta.attr.compatible_brands.markup">iso6mp41</property>
  <property name="meta.attr.encoder.markup">Lavf57.56.101</property>
  <property name="seekable">1</property>
  <property name="kdenlive:clipname"/>
  <property name="kdenlive:folderid">-1</property>
  <property name="kdenlive:id">26</property>
  <property name="kdenlive:file_size">4981792</property>
  <property name="kdenlive:file_hash">c4a6d5d0a18898f68851af9dd4ca811d</property>
  <property name="global_feed">1</property>
  <property name="kdenlive:audio_max">1</property>
  <property name="xml">was here</property>
  <property name="set.test_audio">0</property>
  <property name="set.test_image">1</property>
 </producer>
 <producer id="producer79" in="00:00:00.000" out="00:06:09.267">
  <property name="length">11079</property>
  <property name="eof">pause</property>
  <property name="resource">music/GTA San Andreas Theme Song Full ! !.mp3</property>
  <property name="audio_index">0</property>
  <property name="video_index">-1</property>
  <property name="mute_on_pause">0</property>
  <property name="mlt_service">avformat-novalidate</property>
  <property name="meta.media.nb_streams">1</property>
  <property name="meta.media.0.stream.type">audio</property>
  <property name="meta.media.0.codec.sample_fmt">fltp</property>
  <property name="meta.media.0.codec.sample_rate">44100</property>
  <property name="meta.media.0.codec.channels">2</property>
  <property name="meta.media.0.codec.name">mp3float</property>
  <property name="meta.media.0.codec.long_name">MP3 (MPEG audio layer 3)</property>
  <property name="meta.media.0.codec.bit_rate">192000</property>
  <property name="meta.attr.0.stream.encoder.markup">Lavc57.64</property>
  <property name="meta.attr.major_brand.markup">dash</property>
  <property name="meta.attr.minor_version.markup">0</property>
  <property name="meta.attr.compatible_brands.markup">iso6mp41</property>
  <property name="meta.attr.encoder.markup">Lavf57.56.101</property>
  <property name="seekable">1</property>
  <property name="kdenlive:clipname"/>
  <property name="kdenlive:folderid">-1</property>
  <property name="kdenlive:id">32</property>
  <property name="kdenlive:file_size">8863797</property>
  <property name="kdenlive:file_hash">246514c155ba47a2b4fd8a4692db682a</property>
  <property name="global_feed">1</property>
  <property name="xml">was here</property>
  <property name="set.test_audio">0</property>
  <property name="set.test_image">1</property>
 </producer>
 <playlist id="playlist6">
  <property name="kdenlive:audio_track">1</property>
  <entry producer="producer74" in="00:01:01.167" out="00:01:10.167">
   <property name="kdenlive:id">4</property>
   <filter id="filter17" in="00:01:01.167" out="00:01:01.667">
    <property name="window">75</property>
    <property name="max_gain">20dB</property>
    <property name="mlt_service">volume</property>
    <property name="kdenlive_id">fadein</property>
    <property name="gain">0</property>
    <property name="end">1</property>
    <property name="kdenlive:collapsed">0</property>
   </filter>
  </entry>
  <blank length="00:00:01.267"/>
  <entry producer="producer75" in="00:00:00.000" out="00:00:05.733">
   <property name="kdenlive:id">7</property>
   <filter id="filter18" in="00:00:05.233" out="00:00:05.733">
    <property name="window">75</property>
    <property name="max_gain">20dB</property>
    <property name="mlt_service">volume</property>
    <property name="kdenlive_id">fadeout</property>
    <property name="gain">1</property>
    <property name="end">0</property>
   </filter>
  </entry>
  <blank length="00:00:00.867"/>
  <entry producer="producer76" in="00:00:00.000" out="00:00:00.500">
   <property name="kdenlive:id">11</property>
  </entry>
  <entry producer="producer77" in="00:00:00.000" out="00:00:16.967">
   <property name="kdenlive:id">10</property>
   <filter id="filter19">
    <property name="window">75</property>
    <property name="max_gain">20dB</property>
    <property name="level">00:00:00.000=9;00:00:00.067~=3;00:00:03.400~=3;00:00:03.433~=6</property>
    <property name="mlt_service">volume</property>
    <property name="kdenlive_id">volume</property>
    <property name="kdenlive:collapsed">0</property>
   </filter>
  </entry>
  <blank length="00:00:05.900"/>
  <entry producer="producer78" in="00:00:00.900" out="00:00:14.067">
   <property name="kdenlive:id">26</property>
  </entry>
  <blank length="00:00:01.933"/>
  <entry producer="producer79" in="00:00:00.000" out="00:00:11.300">
   <property name="kdenlive:id">32</property>
   <property name="kdenlive:activeeffect">1</property>
   <filter id="filter20">
    <property name="window">75</property>
    <property name="max_gain">20dB</property>
    <property name="level">00:00:00.000=0;00:00:11.133~=0;00:00:11.300~=50</property>
    <property name="mlt_service">volume</property>
    <property name="kdenlive_id">volume</property>
    <property name="kdenlive:collapsed">0</property>
   </filter>
   <filter id="filter21">
    <property name="window">75</property>
    <property name="max_gain">20dB</property>
    <property name="level">00:00:00.000=0;00:00:10.967~=0;00:00:11.300~=50</property>
    <property name="mlt_service">volume</property>
    <property name="kdenlive_id">volume</property>
    <property name="kdenlive:collapsed">0</property>
   </filter>
   <filter id="filter22">
    <property name="window">75</property>
    <property name="max_gain">20dB</property>
    <property name="level">00:00:00.000=0;00:00:10.733~=0;00:00:11.300~=50</property>
    <property name="mlt_service">volume</property>
    <property name="kdenlive_id">volume</property>
    <property name="kdenlive:collapsed">0</property>
   </filter>
   <filter id="filter23" out="00:00:05.800">
    <property name="window">75</property>
    <property name="max_gain">20dB</property>
    <property name="mlt_service">volume</property>
    <property name="kdenlive_id">fadein</property>
    <property name="gain">0</property>
    <property name="end">1</property>
    <property name="kdenlive:collapsed">0</property>
   </filter>
  </entry>
 </playlist>
 <playlist id="playlist7"/>
 <tractor id="tractor3" in="00:00:00.000" out="00:01:06.800">
  <property name="kdenlive:audio_track">1</property>
  <property name="kdenlive:trackheight">67</property>
  <property name="kdenlive:timeline_active">1</property>
  <property name="kdenlive:collapsed">0</property>
  <property name="kdenlive:thumbs_format"/>
  <property name="kdenlive:audio_rec"/>
  <track hide="video" producer="playlist6"/>
  <track hide="video" producer="playlist7"/>
  <filter id="filter24">
   <property name="window">75</property>
   <property name="max_gain">20dB</property>
   <property name="mlt_service">volume</property>
   <property name="internal_added">237</property>
   <property name="disable">1</property>
  </filter>
  <filter id="filter25">
   <property name="channel">-1</property>
   <property name="mlt_service">panner</property>
   <property name="internal_added">237</property>
   <property name="start">0.5</property>
   <property name="disable">1</property>
  </filter>
  <filter id="filter26">
   <property name="iec_scale">0</property>
   <property name="mlt_service">audiolevel</property>
   <property name="disable">1</property>
  </filter>
 </tractor>
 <playlist id="playlist8">
  <blank length="00:00:20.900"/>
  <entry producer="producer29" in="00:00:00.000" out="00:00:18.000">
   <property name="kdenlive:id">31</property>
   <filter id="filter27" in="00:00:17.500" out="00:00:18.000">
    <property name="start">1</property>
    <property name="mlt_service">brightness</property>
    <property name="kdenlive_id">fade_to_black</property>
    <property name="end">0</property>
    <property name="alpha">1</property>
    <property name="kdenlive:collapsed">0</property>
   </filter>
  </entry>
  <blank length="00:00:08.167"/>
  <entry producer="producer27" in="00:00:00.000" out="00:00:06.433">
   <property name="kdenlive:id">29</property>
   <filter id="filter28">
    <property name="rotate_center">1</property>
    <property name="mlt_service">qtblend</property>
    <property name="kdenlive_id">qtblend</property>
    <property name="rect">00:00:00.000=932 243 1271 594 1.000000;00:00:04.467~=934 245 1270 593 1.000000;00:00:04.500~=553 67 2034 950 1.000000;00:00:05.033~=682 128 1780 831 1.000000;00:00:05.467~=935 245 1270 593 1.000000</property>
    <property name="rotation">00:00:00.000=0;00:00:04.467~=0;00:00:04.500~=0;00:00:05.033~=0;00:00:05.467~=0</property>
    <property name="compositing">0</property>
    <property name="distort">0</property>
    <property name="kdenlive:collapsed">0</property>
   </filter>
  </entry>
  <blank length="00:00:08.167"/>
  <entry producer="producer31" in="00:00:00.000" out="00:00:05.067">
   <property name="kdenlive:id">33</property>
   <property name="kdenlive:activeeffect">1</property>
   <filter id="filter29">
    <property name="rotate_center">1</property>
    <property name="mlt_service">qtblend</property>
    <property name="kdenlive_id">qtblend</property>
    <property name="rect">00:00:00.000=374 176 1572 734 1.000000;00:00:05.067~=490 230 1340 626 1.000000</property>
    <property name="rotation">00:00:00.000=0;00:00:05.067~=0</property>
    <property name="compositing">0</property>
    <property name="distort">0</property>
    <property name="kdenlive:collapsed">0</property>
   </filter>
   <filter id="filter30">
    <property name="version">0.1</property>
    <property name="mlt_service">frei0r.glow</property>
    <property name="kdenlive_id">frei0r.glow</property>
    <property name="Blur">00:00:00.000|=0.057;00:00:00.867~=1;00:00:02.367~=0.059</property>
    <property name="kdenlive:collapsed">0</property>
   </filter>
   <filter id="filter31">
    <property name="version">0.9</property>
    <property name="mlt_service">frei0r.softglow</property>
    <property name="kdenlive_id">frei0r.softglow</property>
    <property name="brightness">00:00:00.000=0</property>
    <property name="sharpness">00:00:00.000=1</property>
    <property name="blurblend">00:00:00.000=0</property>
    <property name="kdenlive:collapsed">0</property>
   </filter>
   <filter id="filter32" out="00:00:00.333">
    <property name="start">0</property>
    <property name="mlt_service">brightness</property>
    <property name="kdenlive_id">fade_from_black</property>
    <property name="end">1</property>
    <property name="alpha">-1</property>
    <property name="kdenlive:collapsed">0</property>
   </filter>
   <filter id="filter33" in="00:00:01.633" out="00:00:05.067">
    <property name="start">1</property>
    <property name="mlt_service">brightness</property>
    <property name="kdenlive_id">fade_to_black</property>
    <property name="end">0</property>
    <property name="alpha">-1</property>
    <property name="kdenlive:collapsed">0</property>
   </filter>
  </entry>
 </playlist>
 <playlist id="playlist9"/>
 <tractor id="tractor4" in="00:00:00.000" out="00:01:06.800">
  <property name="kdenlive:trackheight">67</property>
  <property name="kdenlive:timeline_active">1</property>
  <property name="kdenlive:collapsed">0</property>
  <property name="kdenlive:thumbs_format"/>
  <property name="kdenlive:audio_rec"/>
  <track hide="audio" producer="playlist8"/>
  <track producer="playlist9"/>
 </tractor>
 <playlist id="playlist10">
  <blank length="00:00:21.100"/>
  <entry producer="producer62" in="00:00:00.000" out="00:00:00.767">
   <property name="kdenlive:id">64</property>
   <filter id="filter34">
    <property name="rotate_center">1</property>
    <property name="mlt_service">qtblend</property>
    <property name="kdenlive_id">qtblend</property>
    <property name="rect">00:00:00.000=857 -308 554 259 1.000000;00:00:00.733~=851 88 554 259 1.000000;00:00:00.767~=-1173 611 554 259 1.000000</property>
    <property name="rotation">00:00:00.000=0;00:00:00.733~=0;00:00:00.767~=0</property>
    <property name="compositing">0</property>
    <property name="distort">0</property>
    <property name="kdenlive:collapsed">0</property>
   </filter>
  </entry>
  <blank length="00:00:00.133"/>
  <entry producer="producer37" in="00:00:00.000" out="00:00:01.967">
   <property name="kdenlive:id">39</property>
   <filter id="filter35">
    <property name="rotate_center">1</property>
    <property name="mlt_service">qtblend</property>
    <property name="kdenlive_id">qtblend</property>
    <property name="rect">00:00:00.000=1249 543 947 442 1.000000;00:00:00.067~=1097 433 947 442 1.000000;00:00:00.167|=1042 373 947 442 1.000000;00:00:01.033~=1042 373 947 442 1.000000;00:00:01.167~=949 430 947 442 1.000000;00:00:01.267~=289 727 947 442 1.000000;00:00:01.467~=-249 645 947 442 1.000000;00:00:01.600~=-794 792 947 442 1.000000</property>
    <property name="rotation">00:00:00.000=0;00:00:00.067~=0;00:00:00.167|=0;00:00:01.033~=0;00:00:01.167~=0;00:00:01.267~=0;00:00:01.467~=0;00:00:01.600~=0</property>
    <property name="compositing">0</property>
    <property name="distort">0</property>
    <property name="kdenlive:collapsed">0</property>
   </filter>
  </entry>
  <blank length="00:00:00.133"/>
  <entry producer="producer63" in="00:00:00.000" out="00:00:00.633">
   <property name="kdenlive:id">65</property>
   <filter id="filter36">
    <property name="rotate_center">1</property>
    <property name="mlt_service">qtblend</property>
    <property name="kdenlive_id">qtblend</property>
    <property name="rect">00:00:00.000=1129 525 46 21 1.000000;00:00:00.367~=-1801 -843 5908 2760 1.000000;00:00:00.633~=-3932 -1839 10172 4752 0.000000</property>
    <property name="rotation">00:00:00.000=0;00:00:00.367~=0;00:00:00.633~=0</property>
    <property name="compositing">0</property>
    <property name="distort">0</property>
    <property name="kdenlive:collapsed">0</property>
   </filter>
  </entry>
  <entry producer="producer38" in="00:00:00.000" out="00:00:02.633">
   <property name="kdenlive:id">40</property>
   <filter id="filter37">
    <property name="rotate_center">1</property>
    <property name="mlt_service">qtblend</property>
    <property name="kdenlive_id">qtblend</property>
    <property name="rect">00:00:00.000=1537 265 1017 475 1.000000;00:00:00.167~=775 391 1017 475 1.000000;00:00:00.300~=596 565 1017 475 1.000000;00:00:00.467~=715 750 1017 475 1.000000;00:00:00.633~=921 608 1017 475 1.000000;00:00:00.933~=921 498 1017 475 1.000000;00:00:01.300~=746 445 1017 475 1.000000;00:00:01.667~=718 508 1017 475 1.000000;00:00:01.933~=732 532 1017 475 1.000000;00:00:02.467~=633 564 1017 475 1.000000;00:00:02.633~=-342 559 1017 475 1.000000</property>
    <property name="rotation">00:00:00.000=0;00:00:00.167~=-35;00:00:00.300~=-67;00:00:00.467~=-41;00:00:00.633~=12;00:00:00.933~=-7;00:00:01.300~=-14;00:00:01.667~=-5;00:00:01.933~=4;00:00:02.467~=-9;00:00:02.633~=14</property>
    <property name="compositing">0</property>
    <property name="distort">0</property>
    <property name="kdenlive:collapsed">0</property>
   </filter>
  </entry>
  <blank length="00:00:00.200"/>
  <entry producer="producer55" in="00:00:00.000" out="00:00:01.367">
   <property name="kdenlive:id">57</property>
   <filter id="filter38">
    <property name="rotate_center">1</property>
    <property name="mlt_service">qtblend</property>
    <property name="kdenlive_id">qtblend</property>
    <property name="rect">00:00:00.000=-1127 -525 4577 2138 0.000000;00:00:00.200~=-1939 -904 6201 2896 1.000000;00:00:01.167=-4821 -2249 11967 5589 1.016000;00:00:01.367~=-5323 -2484 12970 6058 0.000000</property>
    <property name="rotation">00:00:00.000=0;00:00:00.200~=69.6774;00:00:01.167=316.986;00:00:01.367~=360</property>
    <property name="compositing">0</property>
    <property name="distort">0</property>
    <property name="kdenlive:collapsed">0</property>
   </filter>
  </entry>
  <blank length="00:00:00.267"/>
  <entry producer="producer32" in="00:00:00.000" out="00:00:04.767">
   <property name="kdenlive:id">34</property>
   <filter id="filter39">
    <property name="rotate_center">1</property>
    <property name="mlt_service">qtblend</property>
    <property name="kdenlive_id">qtblend</property>
    <property name="rect">00:00:00.000=1748 179 994 464 1.000000;00:00:00.900~=-796 179 994 464 1.000000;00:00:01.733~=542 522 994 464 1.000000;00:00:01.967~=659 478 994 464 1.000000;00:00:02.200~=570 385 994 464 1.000000;00:00:02.467~=505 392 994 464 1.000000;00:00:02.733~=464 425 994 464 1.000000;00:00:03.133~=511 475 994 464 1.000000;00:00:03.567~=561 529 994 464 1.000000;00:00:03.767~=490 549 994 464 1.000000;00:00:04.133~=1973 4 1549 723 1.000000</property>
    <property name="rotation">00:00:00.000=96;00:00:00.900~=-35;00:00:01.733~=35;00:00:01.967~=-9;00:00:02.200~=16;00:00:02.467~=-9;00:00:02.733~=-2;00:00:03.133~=9;00:00:03.567~=2;00:00:03.767~=-23;00:00:04.133~=50</property>
    <property name="compositing">0</property>
    <property name="distort">0</property>
    <property name="kdenlive:collapsed">0</property>
   </filter>
  </entry>
  <blank length="00:00:11.833"/>
  <entry producer="producer26" in="00:00:00.000" out="00:00:09.200">
   <property name="kdenlive:id">28</property>
   <filter id="filter40">
    <property name="rotate_center">1</property>
    <property name="mlt_service">qtblend</property>
    <property name="kdenlive_id">qtblend</property>
    <property name="rect">00:00:00.000=-26 243 1270 593 1.000000;00:00:04.433~=-18 248 1270 593 1.000000;00:00:04.467~=-481 33 2196 1026 1.000000;00:00:05.000~=-307 113 1849 864 1.000000;00:00:05.400|=-20 246 1270 593 1.000000;00:00:06.867~=-20 246 1270 593 1.000000;00:00:07.567~=-5036 -2094 11328 5292 1.000000;00:00:08.733~=-5036 -2094 11328 5292 1.000000;00:00:09.067~=-7023 -3025 15282 7138 1.000000;00:00:09.200~=-15206 -6844 31674 14796 1.000000</property>
    <property name="rotation">00:00:00.000=0;00:00:04.433~=0;00:00:04.467~=0;00:00:05.000~=0;00:00:05.400|=0;00:00:06.867~=0;00:00:07.567~=360;00:00:08.733~=360;00:00:09.067~=360;00:00:09.200~=360</property>
    <property name="compositing">0</property>
    <property name="distort">0</property>
    <property name="kdenlive:collapsed">0</property>
   </filter>
  </entry>
 </playlist>
 <playlist id="playlist11"/>
 <tractor id="tractor5" in="00:00:00.000" out="00:00:55.200">
  <property name="kdenlive:trackheight">67</property>
  <property name="kdenlive:timeline_active">1</property>
  <property name="kdenlive:collapsed">0</property>
  <property name="kdenlive:thumbs_format"/>
  <property name="kdenlive:audio_rec"/>
  <track hide="audio" producer="playlist10"/>
  <track producer="playlist11"/>
 </tractor>
 <producer id="producer80" in="00:00:00.000" out="00:00:00.367">
  <property name="length">26</property>
  <property name="eof">pause</property>
  <property name="resource">5.769231:C:/Users/user/Downloads 2/animated pixel mindus __.gif</property>
  <property name="aspect_ratio">1</property>
  <property name="meta.media.nb_streams">1</property>
  <property name="meta.media.0.stream.type">video</property>
  <property name="meta.media.0.stream.frame_rate">25</property>
  <property name="meta.media.0.stream.sample_aspect_ratio">0</property>
  <property name="meta.media.0.codec.width">344</property>
  <property name="meta.media.0.codec.height">40</property>
  <property name="meta.media.0.codec.rotate">0</property>
  <property name="meta.media.0.codec.frame_rate">100</property>
  <property name="meta.media.0.codec.pix_fmt">bgra</property>
  <property name="meta.media.0.codec.sample_aspect_ratio">0</property>
  <property name="meta.media.0.codec.colorspace">601</property>
  <property name="meta.media.0.codec.name">gif</property>
  <property name="meta.media.0.codec.long_name">GIF (Graphics Interchange Format)</property>
  <property name="meta.media.0.codec.bit_rate">0</property>
  <property name="seekable">1</property>
  <property name="meta.media.sample_aspect_num">1</property>
  <property name="meta.media.sample_aspect_den">1</property>
  <property name="audio_index">-1</property>
  <property name="video_index">0</property>
  <property name="mute_on_pause">1</property>
  <property name="warp_speed">5.76923</property>
  <property name="warp_resource">C:/Users/user/Downloads 2/animated pixel mindus __.gif</property>
  <property name="mlt_service">timewarp</property>
  <property name="set.test_audio">1</property>
  <property name="set.test_image">0</property>
  <property name="kdenlive:id">53</property>
  <property name="warp_pitch">0</property>
  <property name="meta.media.frame_rate_num">25</property>
  <property name="meta.media.frame_rate_den">1</property>
  <property name="meta.media.colorspace">601</property>
  <property name="meta.media.color_trc">2</property>
  <property name="meta.media.width">344</property>
  <property name="meta.media.height">40</property>
  <property name="meta.media.color_range">mpeg</property>
  <property name="meta.media.top_field_first">0</property>
  <property name="meta.media.progressive">1</property>
 </producer>
 <producer id="producer81" in="00:00:00.000" out="00:00:05.033">
  <property name="length">152</property>
  <property name="eof">pause</property>
  <property name="resource">clips/Explosion croma key green screen, with explosion sound effect!.mp4</property>
  <property name="audio_index">1</property>
  <property name="video_index">0</property>
  <property name="mute_on_pause">0</property>
  <property name="mlt_service">avformat-novalidate</property>
  <property name="seekable">1</property>
  <property name="aspect_ratio">1</property>
  <property name="kdenlive:clipname"/>
  <property name="kdenlive:folderid">-1</property>
  <property name="kdenlive:id">27</property>
  <property name="kdenlive:file_size">238277</property>
  <property name="kdenlive:file_hash">af98237d56441e41663d1025a831c5d1</property>
  <property name="global_feed">1</property>
  <property name="kdenlive:audio_max">1</property>
  <property name="xml">was here</property>
  <property name="meta.media.nb_streams">2</property>
  <property name="meta.media.0.stream.type">video</property>
  <property name="meta.media.0.stream.frame_rate">25</property>
  <property name="meta.media.0.stream.sample_aspect_ratio">0</property>
  <property name="meta.media.0.codec.width">640</property>
  <property name="meta.media.0.codec.height">360</property>
  <property name="meta.media.0.codec.rotate">0</property>
  <property name="meta.media.0.codec.frame_rate">25</property>
  <property name="meta.media.0.codec.pix_fmt">yuv420p</property>
  <property name="meta.media.0.codec.sample_aspect_ratio">1</property>
  <property name="meta.media.0.codec.colorspace">601</property>
  <property name="meta.media.0.codec.name">h264</property>
  <property name="meta.media.0.codec.long_name">H.264 / AVC / MPEG-4 AVC / MPEG-4 part 10</property>
  <property name="meta.media.0.codec.bit_rate">281943</property>
  <property name="meta.attr.0.stream.handler_name.markup">VideoHandler</property>
  <property name="meta.media.1.stream.type">audio</property>
  <property name="meta.media.1.codec.sample_fmt">fltp</property>
  <property name="meta.media.1.codec.sample_rate">44100</property>
  <property name="meta.media.1.codec.channels">2</property>
  <property name="meta.media.1.codec.name">aac</property>
  <property name="meta.media.1.codec.long_name">AAC (Advanced Audio Coding)</property>
  <property name="meta.media.1.codec.bit_rate">95999</property>
  <property name="meta.attr.1.stream.creation_time.markup">2017-01-29T08:57:24.000000Z</property>
  <property name="meta.attr.1.stream.handler_name.markup">IsoMedia File Produced by Google, 5-11-2011</property>
  <property name="meta.attr.major_brand.markup">mp42</property>
  <property name="meta.attr.minor_version.markup">0</property>
  <property name="meta.attr.compatible_brands.markup">isommp42</property>
  <property name="meta.attr.creation_time.markup">2017-01-29T08:57:24.000000Z</property>
  <property name="meta.media.sample_aspect_num">1</property>
  <property name="meta.media.sample_aspect_den">1</property>
  <property name="meta.media.frame_rate_num">25</property>
  <property name="meta.media.frame_rate_den">1</property>
  <property name="meta.media.colorspace">601</property>
  <property name="meta.media.color_trc">2</property>
  <property name="meta.media.width">640</property>
  <property name="meta.media.height">360</property>
  <property name="meta.media.color_range">mpeg</property>
  <property name="meta.media.top_field_first">0</property>
  <property name="meta.media.progressive">1</property>
  <property name="set.test_audio">1</property>
  <property name="set.test_image">0</property>
 </producer>
 <playlist id="playlist12">
  <blank length="00:00:21.367"/>
  <entry producer="producer57" in="00:00:00.000" out="00:00:00.233">
   <property name="kdenlive:id">59</property>
   <filter id="filter41">
    <property name="rotate_center">1</property>
    <property name="mlt_service">qtblend</property>
    <property name="kdenlive_id">qtblend</property>
    <property name="rect">00:00:00.000=1608 654 1202 561 1.000000;00:00:00.233~=-1265 -118 2288 1069 1.000000</property>
    <property name="rotation">00:00:00.000=0;00:00:00.233~=0</property>
    <property name="compositing">0</property>
    <property name="distort">0</property>
    <property name="kdenlive:collapsed">0</property>
   </filter>
  </entry>
  <blank length="00:00:00.067"/>
  <entry producer="producer59" in="00:00:00.000" out="00:00:00.500">
   <property name="kdenlive:id">61</property>
   <filter id="filter42">
    <property name="rotate_center">1</property>
    <property name="mlt_service">qtblend</property>
    <property name="kdenlive_id">qtblend</property>
    <property name="rect">00:00:00.000=1899 810 832 388 1.000000;00:00:00.500~=-1378 -133 2616 915 1.000000</property>
    <property name="rotation">00:00:00.000=0;00:00:00.500~=-360</property>
    <property name="compositing">0</property>
    <property name="distort">0</property>
    <property name="kdenlive:collapsed">0</property>
   </filter>
  </entry>
  <blank length="00:00:00.067"/>
  <entry producer="producer60" in="00:00:00.000" out="00:00:00.767">
   <property name="kdenlive:id">62</property>
   <filter id="filter43">
    <property name="rotate_center">1</property>
    <property name="mlt_service">qtblend</property>
    <property name="kdenlive_id">qtblend</property>
    <property name="rect">00:00:00.000=363 278 1086 507 1.000000;00:00:00.167~=-179 26 2173 1015 1.000000;00:00:00.400~=1 1 2312 1080 1.000000;00:00:00.600~=1 1 2312 1080 1.000000;00:00:00.767~=1143 535 23 10 0.000000</property>
    <property name="rotation">00:00:00.000=0;00:00:00.167~=0;00:00:00.400~=0;00:00:00.600~=0;00:00:00.767~=-360</property>
    <property name="compositing">0</property>
    <property name="distort">0</property>
    <property name="kdenlive:collapsed">0</property>
   </filter>
  </entry>
  <blank length="00:00:00.067"/>
  <entry producer="producer42" in="00:00:00.000" out="00:00:01.233">
   <property name="kdenlive:id">44</property>
   <filter id="filter44">
    <property name="rotate_center">1</property>
    <property name="mlt_service">qtblend</property>
    <property name="kdenlive_id">qtblend</property>
    <property name="rect">00:00:00.000=1509 90 1271 594 1.000000;00:00:00.567~=890 41 1271 594 1.000000;00:00:00.967~=798 21 1271 594 1.000000;00:00:01.100~=381 -28 1271 594 1.000000;00:00:01.233~=-331 -198 1271 594 1.000000</property>
    <property name="rotation">00:00:00.000=0;00:00:00.567~=0;00:00:00.967~=0;00:00:01.100~=0;00:00:01.233~=0</property>
    <property name="compositing">0</property>
    <property name="distort">0</property>
    <property name="kdenlive:collapsed">0</property>
   </filter>
  </entry>
  <blank length="00:00:00.067"/>
  <entry producer="producer40" in="00:00:00.000" out="00:00:02.300">
   <property name="kdenlive:id">42</property>
   <filter id="filter45">
    <property name="rotate_center">1</property>
    <property name="mlt_service">qtblend</property>
    <property name="kdenlive_id">qtblend</property>
    <property name="rect">00:00:00.000=1720 9 647 302 1.000000;00:00:00.267~=862 9 647 302 1.000000;00:00:00.467~=726 9 647 302 1.000000;00:00:00.767~=716 9 647 302 1.000000;00:00:01.167~=638 49 647 302 1.000000;00:00:01.600~=569 106 647 302 1.000000;00:00:02.067~=426 108 647 302 1.000000;00:00:02.300~=-186 106 647 302 1.000000</property>
    <property name="rotation">00:00:00.000=-89;00:00:00.267~=11;00:00:00.467~=-7;00:00:00.767~=2;00:00:01.167~=-16;00:00:01.600~=-16;00:00:02.067~=21.2963;00:00:02.300~=37</property>
    <property name="compositing">0</property>
    <property name="distort">0</property>
    <property name="kdenlive:collapsed">0</property>
   </filter>
  </entry>
  <blank length="00:00:00.067"/>
  <entry producer="producer54" in="00:00:00.000" out="00:00:00.300">
   <property name="kdenlive:id">56</property>
   <filter id="filter46">
    <property name="rotate_center">1</property>
    <property name="mlt_service">qtblend</property>
    <property name="kdenlive_id">qtblend</property>
    <property name="rect">00:00:00.000=1687 367 739 345 1.000000;00:00:00.300~=-72 144 739 345 1.000000</property>
    <property name="rotation">00:00:00.000=0;00:00:00.300~=0</property>
    <property name="compositing">0</property>
    <property name="distort">0</property>
    <property name="kdenlive:collapsed">0</property>
   </filter>
  </entry>
  <entry producer="producer80" in="00:00:00.000" out="00:00:00.833">
   <property name="kdenlive:id">53</property>
   <filter id="filter47">
    <property name="rotate_center">1</property>
    <property name="mlt_service">qtblend</property>
    <property name="kdenlive_id">qtblend</property>
    <property name="rect">00:00:00.000=1592 531 23 10 1.000000;00:00:00.400=</property>
    <property name="rotation">00:00:00.000=-125;00:00:00.400=</property>
    <property name="compositing">0</property>
    <property name="distort">0</property>
    <property name="kdenlive:collapsed">0</property>
   </filter>
  </entry>
  <blank length="00:00:05.733"/>
  <entry producer="producer70" in="00:00:00.000" out="00:00:00.567">
   <property name="kdenlive:id">72</property>
   <filter id="filter48">
    <property name="rotate_center">1</property>
    <property name="mlt_service">qtblend</property>
    <property name="kdenlive_id">qtblend</property>
    <property name="rect">00:00:00.000=1662 314 762 356 1.000000;00:00:00.333~=1061 433 762 356 1.000000;00:00:00.567~=998 1585 762 356 1.000000</property>
    <property name="rotation">00:00:00.000=0;00:00:00.333~=-39;00:00:00.567~=12.2863</property>
    <property name="compositing">0</property>
    <property name="distort">0</property>
    <property name="kdenlive:collapsed">0</property>
   </filter>
  </entry>
  <blank length="00:00:19.133"/>
  <entry producer="producer81" in="00:00:00.067" out="00:00:01.700">
   <property name="kdenlive:id">27</property>
   <filter id="filter49">
    <property name="rotate_center">1</property>
    <property name="mlt_service">qtblend</property>
    <property name="kdenlive_id">qtblend</property>
    <property name="rect">00:00:00.067=-508 -238 3329 1555 1.000000;00:00:01.233~=-508 -238 3329 1555 1.000000;00:00:01.400~=-2427 -1134 7167 3348 1.000000;00:00:01.700~=-16007 -7477 34333 16038 1.000000</property>
    <property name="rotation">00:00:00.067=0;00:00:01.233~=0;00:00:01.400~=0;00:00:01.700~=0</property>
    <property name="compositing">0</property>
    <property name="distort">0</property>
    <property name="kdenlive:collapsed">0</property>
   </filter>
   <filter id="filter50">
    <property name="version">0.6</property>
    <property name="mlt_service">frei0r.select0r</property>
    <property name="kdenlive_id">frei0r.select0r</property>
    <property name="Color to select">0x3bf109ff</property>
    <property name="Invert selection">1</property>
    <property name="Selection subspace">1</property>
    <property name="Subspace shape">0.5</property>
    <property name="Edge mode">0.9</property>
    <property name="Delta R / A / Hue">00:00:00.067=0.2</property>
    <property name="Delta G / B / Chroma">00:00:00.067=1</property>
    <property name="Delta B / I / I">00:00:00.067=0.2</property>
    <property name="Slope">00:00:00.067=0</property>
    <property name="Operation">0.5</property>
    <property name="kdenlive:collapsed">0</property>
   </filter>
  </entry>
 </playlist>
 <playlist id="playlist13"/>
 <tractor id="tractor6" in="00:00:00.000" out="00:00:55.200">
  <property name="kdenlive:trackheight">67</property>
  <property name="kdenlive:timeline_active">1</property>
  <property name="kdenlive:collapsed">0</property>
  <property name="kdenlive:thumbs_format"/>
  <property name="kdenlive:audio_rec"/>
  <track hide="audio" producer="playlist12"/>
  <track producer="playlist13"/>
 </tractor>
 <producer id="producer82" in="00:00:00.000" out="00:00:04.967">
  <property name="length">00:00:05.000</property>
  <property name="eof">pause</property>
  <property name="resource">C:/Users/user/Downloads 2/finally.gif</property>
  <property name="audio_index">-1</property>
  <property name="video_index">0</property>
  <property name="mute_on_pause">0</property>
  <property name="mlt_service">avformat-novalidate</property>
  <property name="seekable">1</property>
  <property name="aspect_ratio">1</property>
  <property name="kdenlive:clipname"/>
  <property name="kdenlive:duration">00:00:05.000</property>
  <property name="kdenlive:folderid">-1</property>
  <property name="kdenlive:id">50</property>
  <property name="kdenlive:file_size">73891</property>
  <property name="kdenlive:file_hash">ff69a833b718ec8856680701f542a871</property>
  <property name="global_feed">1</property>
  <property name="xml">was here</property>
  <property name="meta.media.nb_streams">1</property>
  <property name="meta.media.0.stream.type">video</property>
  <property name="meta.media.0.stream.frame_rate">50</property>
  <property name="meta.media.0.stream.sample_aspect_ratio">0</property>
  <property name="meta.media.0.codec.width">128</property>
  <property name="meta.media.0.codec.height">128</property>
  <property name="meta.media.0.codec.rotate">0</property>
  <property name="meta.media.0.codec.frame_rate">100</property>
  <property name="meta.media.0.codec.pix_fmt">bgra</property>
  <property name="meta.media.0.codec.sample_aspect_ratio">0</property>
  <property name="meta.media.0.codec.colorspace">601</property>
  <property name="meta.media.0.codec.name">gif</property>
  <property name="meta.media.0.codec.long_name">GIF (Graphics Interchange Format)</property>
  <property name="meta.media.0.codec.bit_rate">0</property>
  <property name="meta.media.sample_aspect_num">1</property>
  <property name="meta.media.sample_aspect_den">1</property>
  <property name="meta.media.frame_rate_num">50</property>
  <property name="meta.media.frame_rate_den">1</property>
  <property name="meta.media.colorspace">601</property>
  <property name="meta.media.color_trc">2</property>
  <property name="meta.media.width">128</property>
  <property name="meta.media.height">128</property>
  <property name="meta.media.color_range">mpeg</property>
  <property name="meta.media.top_field_first">0</property>
  <property name="meta.media.progressive">1</property>
  <property name="set.test_audio">1</property>
  <property name="set.test_image">0</property>
 </producer>
 <producer id="producer83" in="00:00:00.000" out="00:00:04.967">
  <property name="length">00:00:05.000</property>
  <property name="eof">pause</property>
  <property name="resource">C:/Users/user/Downloads 2/download.gif</property>
  <property name="audio_index">-1</property>
  <property name="video_index">0</property>
  <property name="mute_on_pause">0</property>
  <property name="mlt_service">avformat-novalidate</property>
  <property name="seekable">1</property>
  <property name="aspect_ratio">1</property>
  <property name="kdenlive:clipname"/>
  <property name="kdenlive:duration">00:00:05.000</property>
  <property name="kdenlive:folderid">-1</property>
  <property name="kdenlive:id">52</property>
  <property name="kdenlive:file_size">2322190</property>
  <property name="kdenlive:file_hash">e01672d3147145d7261c0ce19d27c711</property>
  <property name="global_feed">1</property>
  <property name="xml">was here</property>
  <property name="meta.media.nb_streams">1</property>
  <property name="meta.media.0.stream.type">video</property>
  <property name="meta.media.0.stream.frame_rate">16.6667</property>
  <property name="meta.media.0.stream.sample_aspect_ratio">0</property>
  <property name="meta.media.0.codec.width">1600</property>
  <property name="meta.media.0.codec.height">873</property>
  <property name="meta.media.0.codec.rotate">0</property>
  <property name="meta.media.0.codec.frame_rate">100</property>
  <property name="meta.media.0.codec.pix_fmt">bgra</property>
  <property name="meta.media.0.codec.sample_aspect_ratio">0</property>
  <property name="meta.media.0.codec.colorspace">709</property>
  <property name="meta.media.0.codec.name">gif</property>
  <property name="meta.media.0.codec.long_name">GIF (Graphics Interchange Format)</property>
  <property name="meta.media.0.codec.bit_rate">0</property>
  <property name="meta.media.sample_aspect_num">1</property>
  <property name="meta.media.sample_aspect_den">1</property>
  <property name="meta.media.frame_rate_num">50</property>
  <property name="meta.media.frame_rate_den">3</property>
  <property name="meta.media.colorspace">709</property>
  <property name="meta.media.color_trc">2</property>
  <property name="meta.media.width">1600</property>
  <property name="meta.media.height">873</property>
  <property name="meta.media.color_range">mpeg</property>
  <property name="meta.media.top_field_first">0</property>
  <property name="meta.media.progressive">1</property>
  <property name="set.test_audio">1</property>
  <property name="set.test_image">0</property>
 </producer>
 <playlist id="playlist14">
  <entry producer="producer0" in="00:00:00.000" out="00:00:03.400">
   <property name="kdenlive:id">2</property>
   <filter id="filter51" out="00:00:00.500">
    <property name="start">0</property>
    <property name="mlt_service">brightness</property>
    <property name="kdenlive_id">fade_from_black</property>
    <property name="end">1</property>
    <property name="alpha">-1</property>
    <property name="kdenlive:collapsed">0</property>
   </filter>
  </entry>
  <blank length="00:00:06.933"/>
  <entry producer="producer6" in="00:00:00.000" out="00:00:05.667">
   <property name="kdenlive:id">8</property>
   <filter id="filter52">
    <property name="argument">when the imposter is sus!! lol</property>
    <property name="geometry">-11 -6 2335 1090 100.000000</property>
    <property name="family">Arial</property>
    <property name="size">155</property>
    <property name="weight">900</property>
    <property name="style">normal</property>
    <property name="fgcolour">0x000000ff</property>
    <property name="bgcolour">0x00000000</property>
    <property name="olcolour">0x00000000</property>
    <property name="pad">0</property>
    <property name="halign">left</property>
    <property name="valign">top</property>
    <property name="outline">0</property>
    <property name="mlt_service">dynamictext</property>
    <property name="kdenlive_id">dynamictext</property>
    <property name="kdenlive:collapsed">0</property>
   </filter>
  </entry>
  <blank length="00:00:05.033"/>
  <entry producer="producer35" in="00:00:00.000" out="00:00:00.633">
   <property name="kdenlive:id">37</property>
   <filter id="filter53">
    <property name="rotate_center">1</property>
    <property name="mlt_service">qtblend</property>
    <property name="kdenlive_id">qtblend</property>
    <property name="rect">00:00:00.000=1902 106 624 291 1.000000;00:00:00.633~=-134 570 624 291 1.000000</property>
    <property name="rotation">00:00:00.000=156;00:00:00.633~=-92</property>
    <property name="compositing">0</property>
    <property name="distort">0</property>
    <property name="kdenlive:collapsed">0</property>
   </filter>
  </entry>
  <blank length="00:00:00.100"/>
  <entry producer="producer58" in="00:00:00.000" out="00:00:00.400">
   <property name="kdenlive:id">60</property>
   <filter id="filter54">
    <property name="rotate_center">1</property>
    <property name="mlt_service">qtblend</property>
    <property name="kdenlive_id">qtblend</property>
    <property name="rect">00:00:00.000=1428 762 1248 583 1.000000;00:00:00.400~=-762 123 1248 583 1.000000</property>
    <property name="rotation">00:00:00.000=72;00:00:00.400~=-151</property>
    <property name="compositing">0</property>
    <property name="distort">0</property>
    <property name="kdenlive:collapsed">0</property>
   </filter>
  </entry>
  <entry producer="producer82" in="00:00:00.000" out="00:00:00.500">
   <property name="kdenlive:id">50</property>
   <filter id="filter55">
    <property name="rotate_center">1</property>
    <property name="mlt_service">qtblend</property>
    <property name="kdenlive_id">qtblend</property>
    <property name="rect">00:00:00.000=1522 217 1063 496 1.000000;00:00:00.500~=-228 171 1063 496 1.000000</property>
    <property name="rotation">00:00:00.000=0;00:00:00.500~=-98</property>
    <property name="compositing">0</property>
    <property name="distort">0</property>
    <property name="kdenlive:collapsed">0</property>
   </filter>
  </entry>
  <blank length="00:00:00.067"/>
  <entry producer="producer83" in="00:00:00.000" out="00:00:00.833">
   <property name="kdenlive:id">52</property>
   <filter id="filter56">
    <property name="rotate_center">1</property>
    <property name="mlt_service">qtblend</property>
    <property name="kdenlive_id">qtblend</property>
    <property name="rect">00:00:00.000=1671 -36 786 367 1.000000;00:00:00.833~=-104 351 786 367 1.000000</property>
    <property name="rotation">00:00:00.000=-130;00:00:00.833~=360</property>
    <property name="compositing">0</property>
    <property name="distort">0</property>
    <property name="kdenlive:collapsed">0</property>
   </filter>
  </entry>
  <entry producer="producer64" in="00:00:00.000" out="00:00:00.733">
   <property name="kdenlive:id">66</property>
   <filter id="filter57">
    <property name="rotate_center">1</property>
    <property name="mlt_service">qtblend</property>
    <property name="kdenlive_id">qtblend</property>
    <property name="rect">00:00:00.000=1539 680 1063 496 1.000000;00:00:00.733~=-230 1073 1063 496 1.000000</property>
    <property name="rotation">00:00:00.000=0;00:00:00.733~=-126</property>
    <property name="compositing">0</property>
    <property name="distort">0</property>
    <property name="kdenlive:collapsed">0</property>
   </filter>
  </entry>
  <blank length="00:00:00.267"/>
  <entry producer="producer65" in="00:00:00.000" out="00:00:01.133">
   <property name="kdenlive:id">67</property>
   <filter id="filter58">
    <property name="rotate_center">1</property>
    <property name="mlt_service">qtblend</property>
    <property name="kdenlive_id">qtblend</property>
    <property name="rect">00:00:00.000=1833 6 1063 496 1.000000;00:00:01.133~=-1308 6 1690 496 1.000000</property>
    <property name="rotation">00:00:00.000=-142;00:00:01.133~=-56</property>
    <property name="compositing">0</property>
    <property name="distort">1</property>
    <property name="kdenlive:collapsed">0</property>
   </filter>
  </entry>
  <blank length="00:00:00.067"/>
  <entry producer="producer66" in="00:00:00.000" out="00:00:00.833">
   <property name="kdenlive:id">68</property>
   <filter id="filter59">
    <property name="rotate_center">1</property>
    <property name="mlt_service">qtblend</property>
    <property name="kdenlive_id">qtblend</property>
    <property name="rect">00:00:00.000=1941 191 971 453 1.000000;00:00:00.833~=-293 584 971 453 1.000000</property>
    <property name="rotation">00:00:00.000=86;00:00:00.833~=-225</property>
    <property name="compositing">0</property>
    <property name="distort">0</property>
    <property name="kdenlive:collapsed">0</property>
   </filter>
  </entry>
  <blank length="00:00:04.933"/>
  <entry producer="producer68" in="00:00:00.000" out="00:00:00.567">
   <property name="kdenlive:id">70</property>
   <filter id="filter60">
    <property name="rotate_center">1</property>
    <property name="mlt_service">qtblend</property>
    <property name="kdenlive_id">qtblend</property>
    <property name="rect">00:00:00.000=2466 -5 1040 486 1.000000;00:00:00.567~=-661 575 1040 486 1.000000</property>
    <property name="rotation">00:00:00.000=0;00:00:00.567~=-86</property>
    <property name="compositing">0</property>
    <property name="distort">0</property>
    <property name="kdenlive:collapsed">0</property>
   </filter>
  </entry>
  <blank length="00:00:00.467"/>
  <entry producer="producer67" in="00:00:00.000" out="00:00:00.500">
   <property name="kdenlive:id">69</property>
   <filter id="filter61">
    <property name="rotate_center">1</property>
    <property name="mlt_service">qtblend</property>
    <property name="kdenlive_id">qtblend</property>
    <property name="rect">00:00:00.000=1701 294 693 324 1.000000;00:00:00.500~=-93 749 693 324 1.000000</property>
    <property name="rotation">00:00:00.000=-249;00:00:00.500~=360</property>
    <property name="compositing">0</property>
    <property name="distort">0</property>
    <property name="kdenlive:collapsed">0</property>
   </filter>
  </entry>
  <blank length="00:00:01.000"/>
  <entry producer="producer23" in="00:00:00.000" out="00:00:04.467">
   <property name="kdenlive:id">25</property>
   <filter id="filter62">
    <property name="rotate_center">1</property>
    <property name="mlt_service">qtblend</property>
    <property name="kdenlive_id">qtblend</property>
    <property name="rect">00:00:00.000=-54 0 2312 1080 1.000000</property>
    <property name="rotation">00:00:00.000=-2</property>
    <property name="compositing">0</property>
    <property name="distort">0</property>
    <property name="kdenlive:collapsed">0</property>
   </filter>
   <filter id="filter63" in="00:00:03.967" out="00:00:04.467">
    <property name="start">1</property>
    <property name="mlt_service">brightness</property>
    <property name="kdenlive_id">fade_to_black</property>
    <property name="end">0</property>
    <property name="alpha">1</property>
    <property name="kdenlive:collapsed">0</property>
   </filter>
  </entry>
 </playlist>
 <playlist id="playlist15"/>
 <tractor id="tractor7" in="00:00:00.000" out="00:00:38.900">
  <property name="kdenlive:trackheight">67</property>
  <property name="kdenlive:timeline_active">1</property>
  <property name="kdenlive:collapsed">0</property>
  <property name="kdenlive:thumbs_format"/>
  <property name="kdenlive:audio_rec"/>
  <track hide="audio" producer="playlist14"/>
  <track producer="playlist15"/>
 </tractor>
 <producer id="producer84" in="00:00:00.000" out="00:00:04.967">
  <property name="length">00:00:05.000</property>
  <property name="eof">pause</property>
  <property name="resource">C:/Users/user/Downloads 2/what.gif</property>
  <property name="audio_index">-1</property>
  <property name="video_index">0</property>
  <property name="mute_on_pause">0</property>
  <property name="mlt_service">avformat-novalidate</property>
  <property name="seekable">1</property>
  <property name="aspect_ratio">1</property>
  <property name="kdenlive:clipname"/>
  <property name="kdenlive:duration">00:00:05.000</property>
  <property name="kdenlive:folderid">-1</property>
  <property name="kdenlive:id">49</property>
  <property name="kdenlive:file_size">34781</property>
  <property name="kdenlive:file_hash">25458f46bc2864dd1b927a69dd44b660</property>
  <property name="global_feed">1</property>
  <property name="xml">was here</property>
  <property name="meta.media.nb_streams">1</property>
  <property name="meta.media.0.stream.type">video</property>
  <property name="meta.media.0.stream.frame_rate">50</property>
  <property name="meta.media.0.stream.sample_aspect_ratio">0</property>
  <property name="meta.media.0.codec.width">66</property>
  <property name="meta.media.0.codec.height">66</property>
  <property name="meta.media.0.codec.rotate">0</property>
  <property name="meta.media.0.codec.frame_rate">100</property>
  <property name="meta.media.0.codec.pix_fmt">bgra</property>
  <property name="meta.media.0.codec.sample_aspect_ratio">0</property>
  <property name="meta.media.0.codec.colorspace">601</property>
  <property name="meta.media.0.codec.name">gif</property>
  <property name="meta.media.0.codec.long_name">GIF (Graphics Interchange Format)</property>
  <property name="meta.media.0.codec.bit_rate">0</property>
  <property name="meta.media.sample_aspect_num">1</property>
  <property name="meta.media.sample_aspect_den">1</property>
  <property name="meta.media.frame_rate_num">50</property>
  <property name="meta.media.frame_rate_den">1</property>
  <property name="meta.media.colorspace">601</property>
  <property name="meta.media.color_trc">2</property>
  <property name="meta.media.width">66</property>
  <property name="meta.media.height">66</property>
  <property name="meta.media.color_range">mpeg</property>
  <property name="meta.media.top_field_first">0</property>
  <property name="meta.media.progressive">1</property>
  <property name="set.test_audio">1</property>
  <property name="set.test_image">0</property>
 </producer>
 <playlist id="playlist16">
  <blank length="00:00:03.100"/>
  <entry producer="producer1" in="00:00:00.000" out="00:00:07.233">
   <property name="kdenlive:id">3</property>
  </entry>
  <entry producer="producer7" in="00:00:00.000" out="00:00:05.667">
   <property name="kdenlive:id">9</property>
   <filter id="filter64">
    <property name="rotate_center">1</property>
    <property name="mlt_service">qtblend</property>
    <property name="kdenlive_id">qtblend</property>
    <property name="rect">00:00:00.000=363 360 1572 734 1.000000;00:00:00.500~=363 360 1572 734 1.000000;00:00:01.000~=363 360 1571 733 1.000000;00:00:01.800~=363 360 1569 732 1.000000;00:00:03.200~=365 361 1564 730 1.000000;00:00:03.867~=366 361 1562 729 1.000000;00:00:04.233~=367 361 1561 728 1.000000;00:00:04.800~=363 360 1572 734 1.000000;00:00:05.367~=319 340 1664 777 1.000000;00:00:05.667~=-24199 -10317 48875 22831 1.000000</property>
    <property name="rotation">00:00:00.000=0;00:00:00.500~=-110;00:00:01.000~=-25;00:00:01.800~=-103;00:00:03.200~=63;00:00:03.867~=-170;00:00:04.233~=310;00:00:04.800~=0;00:00:05.367~=-17;00:00:05.667~=38</property>
    <property name="compositing">0</property>
    <property name="distort">0</property>
    <property name="kdenlive:collapsed">0</property>
   </filter>
  </entry>
  <blank length="00:00:04.833"/>
  <entry producer="producer33" in="00:00:00.000" out="00:00:00.633">
   <property name="kdenlive:id">35</property>
   <filter id="filter65">
    <property name="rotate_center">1</property>
    <property name="mlt_service">qtblend</property>
    <property name="kdenlive_id">qtblend</property>
    <property name="rect">00:00:00.000=1149 657 855 399 1.000000;00:00:00.633~=-983 429 855 399 1.000000</property>
    <property name="rotation">00:00:00.000=-16;00:00:00.633~=106</property>
    <property name="compositing">0</property>
    <property name="distort">0</property>
    <property name="kdenlive:collapsed">0</property>
   </filter>
  </entry>
  <blank length="00:00:00.200"/>
  <entry producer="producer84" in="00:00:00.000" out="00:00:00.767">
   <property name="kdenlive:id">49</property>
   <filter id="filter66">
    <property name="rotate_center">1</property>
    <property name="mlt_service">qtblend</property>
    <property name="kdenlive_id">qtblend</property>
    <property name="rect">00:00:00.000=1856 191 971 453 1.000000;00:00:00.767~=-431 -77 971 453 1.000000</property>
    <property name="rotation">00:00:00.000=209;00:00:00.767~=-360</property>
    <property name="compositing">0</property>
    <property name="distort">0</property>
    <property name="kdenlive:collapsed">0</property>
   </filter>
  </entry>
  <blank length="00:00:00.067"/>
  <entry producer="producer53" in="00:00:00.000" out="00:00:00.367">
   <property name="kdenlive:id">55</property>
   <filter id="filter67">
    <property name="rotate_center">1</property>
    <property name="mlt_service">qtblend</property>
    <property name="kdenlive_id">qtblend</property>
    <property name="rect">00:00:00.000=1868 147 947 442 1.000000;00:00:00.367~=-785 157 947 442 1.000000</property>
    <property name="rotation">00:00:00.000=0;00:00:00.367~=-58</property>
    <property name="compositing">0</property>
    <property name="distort">0</property>
    <property name="kdenlive:collapsed">0</property>
   </filter>
  </entry>
  <blank length="00:00:00.067"/>
  <entry producer="producer36" in="00:00:00.000" out="00:00:00.800">
   <property name="kdenlive:id">38</property>
   <filter id="filter68">
    <property name="rotate_center">1</property>
    <property name="mlt_service">qtblend</property>
    <property name="kdenlive_id">qtblend</property>
    <property name="rect">00:00:00.000=2016 316 947 442 1.000000;00:00:00.367~=993 398 947 442 1.000000;00:00:00.433~=805 413 947 442 1.000000;00:00:00.800~=-214 497 947 442 1.000000</property>
    <property name="rotation">00:00:00.000=-186;00:00:00.367~=-335;00:00:00.433~=360;00:00:00.800~=153</property>
    <property name="compositing">0</property>
    <property name="distort">0</property>
    <property name="kdenlive:collapsed">0</property>
   </filter>
  </entry>
  <blank length="00:00:00.100"/>
  <entry producer="producer45" in="00:00:00.000" out="00:00:00.833">
   <property name="kdenlive:id">47</property>
   <filter id="filter69">
    <property name="rotate_center">1</property>
    <property name="mlt_service">qtblend</property>
    <property name="kdenlive_id">qtblend</property>
    <property name="rect">00:00:00.000=923 568 994 464 0.000000;00:00:00.333~=825 377 994 464 1.000000;00:00:00.833~=680 92 994 464 0.000000</property>
    <property name="rotation">00:00:00.000=-25;00:00:00.333~=121;00:00:00.833~=360</property>
    <property name="compositing">0</property>
    <property name="distort">0</property>
    <property name="kdenlive:collapsed">0</property>
   </filter>
  </entry>
  <entry producer="producer39" in="00:00:00.000" out="00:00:01.200">
   <property name="kdenlive:id">41</property>
   <filter id="filter70">
    <property name="rotate_center">1</property>
    <property name="mlt_service">qtblend</property>
    <property name="kdenlive_id">qtblend</property>
    <property name="rect">00:00:00.000=1936 62 462 216 1.000000;00:00:01.200~=169 357 462 216 1.000000</property>
    <property name="rotation">00:00:00.000=-245;00:00:01.200~=-27</property>
    <property name="compositing">0</property>
    <property name="distort">0</property>
    <property name="kdenlive:collapsed">0</property>
   </filter>
  </entry>
  <blank length="00:00:00.167"/>
  <entry producer="producer49" in="00:00:00.000" out="00:00:01.233">
   <property name="kdenlive:id">51</property>
   <filter id="filter71">
    <property name="rotate_center">1</property>
    <property name="mlt_service">qtblend</property>
    <property name="kdenlive_id">qtblend</property>
    <property name="rect">00:00:00.000=1707 403 554 259 1.000000;00:00:00.600~=993 22 554 259 1.000000;00:00:01.233~=-71 -242 554 259 1.000000</property>
    <property name="rotation">00:00:00.000=-26;00:00:00.600~=58;00:00:01.233~=-42</property>
    <property name="compositing">0</property>
    <property name="distort">0</property>
    <property name="kdenlive:collapsed">0</property>
   </filter>
  </entry>
  <blank length="00:00:00.067"/>
  <entry producer="producer41" in="00:00:00.000" out="00:00:01.567">
   <property name="kdenlive:id">43</property>
   <filter id="filter72">
    <property name="rotate_center">1</property>
    <property name="mlt_service">qtblend</property>
    <property name="kdenlive_id">qtblend</property>
    <property name="rect">00:00:00.000=1861 367 716 334 1.000000;00:00:00.667~=1050 223 716 334 1.000000;00:00:00.733~=975 209 716 334 1.000000;00:00:00.800~=922 199 716 334 1.000000;00:00:00.900~=833 183 716 334 1.000000;00:00:01.567~=-43 30 716 334 1.000000</property>
    <property name="rotation">00:00:00.000=-76;00:00:00.667~=-7;00:00:00.733~=46;00:00:00.800~=-337;00:00:00.900~=153;00:00:01.567~=360</property>
    <property name="compositing">0</property>
    <property name="distort">0</property>
    <property name="kdenlive:collapsed">0</property>
   </filter>
  </entry>
  <blank length="00:00:00.133"/>
  <entry producer="producer46" in="00:00:00.000" out="00:00:00.333">
   <property name="kdenlive:id">48</property>
   <filter id="filter73">
    <property name="rotate_center">1</property>
    <property name="mlt_service">qtblend</property>
    <property name="kdenlive_id">qtblend</property>
    <property name="rect">00:00:00.000=1754 771 369 172 1.000000;00:00:00.333~=-4 535 369 172 1.000000</property>
    <property name="rotation">00:00:00.000=-133;00:00:00.333~=360</property>
    <property name="compositing">0</property>
    <property name="distort">0</property>
    <property name="kdenlive:collapsed">0</property>
   </filter>
  </entry>
  <blank length="00:00:00.033"/>
  <entry producer="producer43" in="00:00:00.000" out="00:00:01.833">
   <property name="kdenlive:id">45</property>
   <filter id="filter74">
    <property name="rotate_center">1</property>
    <property name="mlt_service">qtblend</property>
    <property name="kdenlive_id">qtblend</property>
    <property name="rect">00:00:00.000=1763 261 578 270 1.000000;00:00:01.833~=10 249 855 399 1.000000</property>
    <property name="rotation">00:00:00.000=-184;00:00:01.833~=-128</property>
    <property name="compositing">0</property>
    <property name="distort">0</property>
    <property name="kdenlive:collapsed">0</property>
   </filter>
  </entry>
  <entry producer="producer61" in="00:00:00.000" out="00:00:00.167">
   <property name="kdenlive:id">63</property>
   <filter id="filter75">
    <property name="rotate_center">1</property>
    <property name="mlt_service">qtblend</property>
    <property name="kdenlive_id">qtblend</property>
    <property name="rect">00:00:00.000=1796 174 1132 529 1.000000;00:00:00.167~=421 103 1132 529 0.000000</property>
    <property name="rotation">00:00:00.000=-91;00:00:00.167~=76</property>
    <property name="compositing">0</property>
    <property name="distort">0</property>
    <property name="kdenlive:collapsed">0</property>
   </filter>
  </entry>
  <blank length="00:00:00.067"/>
  <entry producer="producer56" in="00:00:00.000" out="00:00:01.233">
   <property name="kdenlive:id">58</property>
   <filter id="filter76">
    <property name="rotate_center">1</property>
    <property name="mlt_service">qtblend</property>
    <property name="kdenlive_id">qtblend</property>
    <property name="rect">00:00:00.000=1898 402 809 378 1.000000;00:00:01.233~=-759 -40 809 378 1.000000</property>
    <property name="rotation">00:00:00.000=0;00:00:01.233~=-142</property>
    <property name="compositing">0</property>
    <property name="distort">0</property>
    <property name="kdenlive:collapsed">0</property>
   </filter>
  </entry>
  <entry producer="producer69" in="00:00:00.000" out="00:00:00.300">
   <property name="kdenlive:id">71</property>
   <filter id="filter77">
    <property name="rotate_center">1</property>
    <property name="mlt_service">qtblend</property>
    <property name="kdenlive_id">qtblend</property>
    <property name="rect">00:00:00.000=2059 57 947 442 1.000000;00:00:00.300~=-851 473 947 442 1.000000</property>
    <property name="rotation">00:00:00.000=0;00:00:00.300~=-53</property>
    <property name="compositing">0</property>
    <property name="distort">0</property>
    <property name="kdenlive:collapsed">0</property>
   </filter>
  </entry>
  <blank length="00:00:00.067"/>
  <entry producer="producer44" in="00:00:00.000" out="00:00:00.367">
   <property name="kdenlive:id">46</property>
   <filter id="filter78">
    <property name="rotate_center">1</property>
    <property name="mlt_service">qtblend</property>
    <property name="kdenlive_id">qtblend</property>
    <property name="rect">00:00:00.000=1678 275 393 183 1.000000;00:00:00.367~=208 872 393 183 1.000000</property>
    <property name="rotation">00:00:00.000=-112;00:00:00.367~=-112</property>
    <property name="compositing">0</property>
    <property name="distort">0</property>
    <property name="kdenlive:collapsed">0</property>
   </filter>
  </entry>
  <blank length="00:00:00.400"/>
  <entry producer="producer28" in="00:00:00.000" out="00:00:04.533">
   <property name="kdenlive:id">30</property>
   <property name="kdenlive:activeeffect">1</property>
   <filter id="filter79">
    <property name="rotate_center">1</property>
    <property name="mlt_service">qtblend</property>
    <property name="kdenlive_id">qtblend</property>
    <property name="rect">00:00:00.000=2504 -215 3236 1512 1.000000;00:00:00.067~=786 38 2150 1004 1.000000</property>
    <property name="rotation">00:00:00.000=-7;00:00:00.067~=-7</property>
    <property name="compositing">0</property>
    <property name="distort">0</property>
    <property name="kdenlive:collapsed">0</property>
   </filter>
   <filter id="filter80" in="00:00:04.033" out="00:00:04.533">
    <property name="start">1</property>
    <property name="mlt_service">brightness</property>
    <property name="kdenlive_id">fade_to_black</property>
    <property name="end">0</property>
    <property name="alpha">1</property>
    <property name="kdenlive:collapsed">0</property>
   </filter>
  </entry>
 </playlist>
 <playlist id="playlist17"/>
 <tractor id="tractor8" in="00:00:00.000" out="00:00:38.900">
  <property name="kdenlive:trackheight">67</property>
  <property name="kdenlive:timeline_active">1</property>
  <property name="kdenlive:collapsed">0</property>
  <property name="kdenlive:thumbs_format"/>
  <property name="kdenlive:audio_rec"/>
  <track hide="audio" producer="playlist16"/>
  <track producer="playlist17"/>
 </tractor>
 <producer id="producer85" in="00:00:00.000" out="00:00:05.633">
  <property name="length">170</property>
  <property name="eof">pause</property>
  <property name="resource">clips/We'll Be Right Back Green Screen.mp4</property>
  <property name="audio_index">1</property>
  <property name="video_index">0</property>
  <property name="mute_on_pause">0</property>
  <property name="mlt_service">avformat-novalidate</property>
  <property name="seekable">1</property>
  <property name="aspect_ratio">1</property>
  <property name="kdenlive:clipname"/>
  <property name="kdenlive:folderid">-1</property>
  <property name="kdenlive:id">12</property>
  <property name="kdenlive:file_size">304818</property>
  <property name="kdenlive:file_hash">eafb977e5fa6aaacf38cbd61fe02ba41</property>
  <property name="global_feed">1</property>
  <property name="xml">was here</property>
  <property name="meta.media.nb_streams">2</property>
  <property name="meta.media.0.stream.type">video</property>
  <property name="meta.media.0.stream.frame_rate">29.97</property>
  <property name="meta.media.0.stream.sample_aspect_ratio">0</property>
  <property name="meta.media.0.codec.width">640</property>
  <property name="meta.media.0.codec.height">360</property>
  <property name="meta.media.0.codec.rotate">0</property>
  <property name="meta.media.0.codec.frame_rate">29.97</property>
  <property name="meta.media.0.codec.pix_fmt">yuv420p</property>
  <property name="meta.media.0.codec.sample_aspect_ratio">1</property>
  <property name="meta.media.0.codec.colorspace">709</property>
  <property name="meta.media.0.codec.color_trc">1</property>
  <property name="meta.media.0.codec.name">h264</property>
  <property name="meta.media.0.codec.long_name">H.264 / AVC / MPEG-4 AVC / MPEG-4 part 10</property>
  <property name="meta.media.0.codec.bit_rate">337635</property>
  <property name="meta.attr.0.stream.creation_time.markup">2020-04-27T17:50:33.000000Z</property>
  <property name="meta.attr.0.stream.handler_name.markup">ISO Media file produced by Google Inc. Created on: 04/27/2020.</property>
  <property name="meta.media.1.stream.type">audio</property>
  <property name="meta.media.1.codec.sample_fmt">fltp</property>
  <property name="meta.media.1.codec.sample_rate">44100</property>
  <property name="meta.media.1.codec.channels">2</property>
  <property name="meta.media.1.codec.name">aac</property>
  <property name="meta.media.1.codec.long_name">AAC (Advanced Audio Coding)</property>
  <property name="meta.media.1.codec.bit_rate">95999</property>
  <property name="meta.attr.1.stream.creation_time.markup">2020-04-27T17:50:33.000000Z</property>
  <property name="meta.attr.1.stream.language.markup">eng</property>
  <property name="meta.attr.1.stream.handler_name.markup">ISO Media file produced by Google Inc. Created on: 04/27/2020.</property>
  <property name="meta.attr.major_brand.markup">mp42</property>
  <property name="meta.attr.minor_version.markup">0</property>
  <property name="meta.attr.compatible_brands.markup">isommp42</property>
  <property name="meta.attr.creation_time.markup">2020-04-27T17:50:33.000000Z</property>
  <property name="meta.attr.encoder.markup">Google</property>
  <property name="meta.media.sample_aspect_num">1</property>
  <property name="meta.media.sample_aspect_den">1</property>
  <property name="meta.media.frame_rate_num">2997</property>
  <property name="meta.media.frame_rate_den">100</property>
  <property name="meta.media.colorspace">709</property>
  <property name="meta.media.color_trc">1</property>
  <property name="meta.media.width">640</property>
  <property name="meta.media.height">360</property>
  <property name="meta.media.color_range">mpeg</property>
  <property name="meta.media.top_field_first">0</property>
  <property name="meta.media.progressive">1</property>
  <property name="set.test_audio">1</property>
  <property name="set.test_image">0</property>
 </producer>
 <playlist id="playlist18">
  <blank length="00:00:07.833"/>
  <entry producer="producer3" in="00:00:00.000" out="00:00:02.500">
   <property name="kdenlive:id">5</property>
   <filter id="filter81">
    <property name="rotate_center">1</property>
    <property name="mlt_service">qtblend</property>
    <property name="kdenlive_id">qtblend</property>
    <property name="rect">00:00:00.000=292 251 404 336 1.000000;00:00:01.700~=292 251 404 336 1.000000;00:00:02.033~=94 140 404 336 1.000000;00:00:02.500~=147 -1483 404 336 1.000000</property>
    <property name="rotation">00:00:00.000=360;00:00:01.700~=360;00:00:02.033~=299.531;00:00:02.500~=-360</property>
    <property name="compositing">0</property>
    <property name="distort">0</property>
    <property name="kdenlive:collapsed">0</property>
   </filter>
   <filter id="filter82">
    <property name="start">2</property>
    <property name="hori">00:00:00.000=50;00:00:01.000~=50</property>
    <property name="vert">00:00:00.000=50;00:00:01.000~=50</property>
    <property name="blur">00:00:00.000=100;00:00:01.000~=0</property>
    <property name="mlt_service">boxblur</property>
    <property name="kdenlive_id">boxblur</property>
    <property name="kdenlive:collapsed">0</property>
   </filter>
  </entry>
  <blank length="00:00:10.533"/>
  <entry producer="producer12" in="00:00:00.000" out="00:00:00.033">
   <property name="kdenlive:id">14</property>
  </entry>
  <entry producer="producer13" in="00:00:00.000" out="00:00:00.033">
   <property name="kdenlive:id">15</property>
  </entry>
  <entry producer="producer14" in="00:00:00.000" out="00:00:00.033">
   <property name="kdenlive:id">16</property>
  </entry>
  <entry producer="producer15" in="00:00:00.000" out="00:00:00.033">
   <property name="kdenlive:id">17</property>
  </entry>
  <entry producer="producer16" in="00:00:00.000" out="00:00:00.033">
   <property name="kdenlive:id">18</property>
  </entry>
  <entry producer="producer17" in="00:00:00.000" out="00:00:00.033">
   <property name="kdenlive:id">19</property>
  </entry>
  <entry producer="producer18" in="00:00:00.000" out="00:00:00.033">
   <property name="kdenlive:id">20</property>
  </entry>
  <entry producer="producer19" in="00:00:00.000" out="00:00:00.033">
   <property name="kdenlive:id">21</property>
  </entry>
  <entry producer="producer20" in="00:00:00.000" out="00:00:00.033">
   <property name="kdenlive:id">22</property>
  </entry>
  <entry producer="producer21" in="00:00:00.000" out="00:00:00.033">
   <property name="kdenlive:id">23</property>
  </entry>
  <entry producer="producer22" in="00:00:00.000" out="00:00:00.033">
   <property name="kdenlive:id">24</property>
  </entry>
  <entry producer="producer23" in="00:00:00.000" out="00:00:00.033">
   <property name="kdenlive:id">25</property>
  </entry>
  <entry producer="producer12" in="00:00:00.000" out="00:00:00.033">
   <property name="kdenlive:id">14</property>
  </entry>
  <entry producer="producer13" in="00:00:00.000" out="00:00:00.033">
   <property name="kdenlive:id">15</property>
  </entry>
  <entry producer="producer14" in="00:00:00.000" out="00:00:00.033">
   <property name="kdenlive:id">16</property>
  </entry>
  <entry producer="producer15" in="00:00:00.000" out="00:00:00.033">
   <property name="kdenlive:id">17</property>
  </entry>
  <entry producer="producer16" in="00:00:00.000" out="00:00:00.033">
   <property name="kdenlive:id">18</property>
  </entry>
  <entry producer="producer17" in="00:00:00.000" out="00:00:00.033">
   <property name="kdenlive:id">19</property>
  </entry>
  <entry producer="producer18" in="00:00:00.000" out="00:00:00.033">
   <property name="kdenlive:id">20</property>
  </entry>
  <entry producer="producer19" in="00:00:00.000" out="00:00:00.033">
   <property name="kdenlive:id">21</property>
  </entry>
  <entry producer="producer20" in="00:00:00.000" out="00:00:00.033">
   <property name="kdenlive:id">22</property>
  </entry>
  <entry producer="producer21" in="00:00:00.000" out="00:00:00.033">
   <property name="kdenlive:id">23</property>
  </entry>
  <entry producer="producer22" in="00:00:00.000" out="00:00:00.033">
   <property name="kdenlive:id">24</property>
  </entry>
  <entry producer="producer23" in="00:00:00.000" out="00:00:00.033">
   <property name="kdenlive:id">25</property>
  </entry>
  <entry producer="producer12" in="00:00:00.000" out="00:00:00.033">
   <property name="kdenlive:id">14</property>
  </entry>
  <entry producer="producer13" in="00:00:00.000" out="00:00:00.033">
   <property name="kdenlive:id">15</property>
  </entry>
  <entry producer="producer14" in="00:00:00.000" out="00:00:00.033">
   <property name="kdenlive:id">16</property>
  </entry>
  <entry producer="producer15" in="00:00:00.000" out="00:00:00.033">
   <property name="kdenlive:id">17</property>
  </entry>
  <entry producer="producer16" in="00:00:00.000" out="00:00:00.033">
   <property name="kdenlive:id">18</property>
  </entry>
  <entry producer="producer17" in="00:00:00.000" out="00:00:00.033">
   <property name="kdenlive:id">19</property>
  </entry>
  <entry producer="producer18" in="00:00:00.000" out="00:00:00.033">
   <property name="kdenlive:id">20</property>
  </entry>
  <entry producer="producer19" in="00:00:00.000" out="00:00:00.033">
   <property name="kdenlive:id">21</property>
  </entry>
  <entry producer="producer20" in="00:00:00.000" out="00:00:00.033">
   <property name="kdenlive:id">22</property>
  </entry>
  <entry producer="producer21" in="00:00:00.000" out="00:00:00.033">
   <property name="kdenlive:id">23</property>
  </entry>
  <entry producer="producer22" in="00:00:00.000" out="00:00:00.033">
   <property name="kdenlive:id">24</property>
  </entry>
  <entry producer="producer23" in="00:00:00.000" out="00:00:00.033">
   <property name="kdenlive:id">25</property>
  </entry>
  <entry producer="producer12" in="00:00:00.000" out="00:00:00.033">
   <property name="kdenlive:id">14</property>
  </entry>
  <entry producer="producer13" in="00:00:00.000" out="00:00:00.033">
   <property name="kdenlive:id">15</property>
  </entry>
  <entry producer="producer14" in="00:00:00.000" out="00:00:00.033">
   <property name="kdenlive:id">16</property>
  </entry>
  <entry producer="producer15" in="00:00:00.000" out="00:00:00.033">
   <property name="kdenlive:id">17</property>
  </entry>
  <entry producer="producer16" in="00:00:00.000" out="00:00:00.033">
   <property name="kdenlive:id">18</property>
  </entry>
  <entry producer="producer17" in="00:00:00.000" out="00:00:00.033">
   <property name="kdenlive:id">19</property>
  </entry>
  <entry producer="producer18" in="00:00:00.000" out="00:00:00.033">
   <property name="kdenlive:id">20</property>
  </entry>
  <entry producer="producer19" in="00:00:00.000" out="00:00:00.033">
   <property name="kdenlive:id">21</property>
  </entry>
  <entry producer="producer20" in="00:00:00.000" out="00:00:00.033">
   <property name="kdenlive:id">22</property>
  </entry>
  <entry producer="producer21" in="00:00:00.000" out="00:00:00.033">
   <property name="kdenlive:id">23</property>
  </entry>
  <entry producer="producer22" in="00:00:00.000" out="00:00:00.033">
   <property name="kdenlive:id">24</property>
  </entry>
  <entry producer="producer23" in="00:00:00.000" out="00:00:00.033">
   <property name="kdenlive:id">25</property>
  </entry>
  <entry producer="producer12" in="00:00:00.000" out="00:00:00.033">
   <property name="kdenlive:id">14</property>
  </entry>
  <entry producer="producer13" in="00:00:00.000" out="00:00:00.033">
   <property name="kdenlive:id">15</property>
  </entry>
  <entry producer="producer14" in="00:00:00.000" out="00:00:00.033">
   <property name="kdenlive:id">16</property>
  </entry>
  <entry producer="producer15" in="00:00:00.000" out="00:00:00.033">
   <property name="kdenlive:id">17</property>
  </entry>
  <entry producer="producer16" in="00:00:00.000" out="00:00:00.033">
   <property name="kdenlive:id">18</property>
  </entry>
  <entry producer="producer17" in="00:00:00.000" out="00:00:00.033">
   <property name="kdenlive:id">19</property>
  </entry>
  <entry producer="producer18" in="00:00:00.000" out="00:00:00.033">
   <property name="kdenlive:id">20</property>
  </entry>
  <entry producer="producer19" in="00:00:00.000" out="00:00:00.033">
   <property name="kdenlive:id">21</property>
  </entry>
  <entry producer="producer20" in="00:00:00.000" out="00:00:00.033">
   <property name="kdenlive:id">22</property>
  </entry>
  <entry producer="producer21" in="00:00:00.000" out="00:00:00.033">
   <property name="kdenlive:id">23</property>
  </entry>
  <entry producer="producer22" in="00:00:00.000" out="00:00:00.033">
   <property name="kdenlive:id">24</property>
  </entry>
  <entry producer="producer23" in="00:00:00.000" out="00:00:00.033">
   <property name="kdenlive:id">25</property>
  </entry>
  <entry producer="producer12" in="00:00:00.000" out="00:00:00.033">
   <property name="kdenlive:id">14</property>
  </entry>
  <entry producer="producer13" in="00:00:00.000" out="00:00:00.033">
   <property name="kdenlive:id">15</property>
  </entry>
  <entry producer="producer14" in="00:00:00.000" out="00:00:00.033">
   <property name="kdenlive:id">16</property>
  </entry>
  <entry producer="producer15" in="00:00:00.000" out="00:00:00.033">
   <property name="kdenlive:id">17</property>
  </entry>
  <entry producer="producer16" in="00:00:00.000" out="00:00:00.033">
   <property name="kdenlive:id">18</property>
  </entry>
  <entry producer="producer17" in="00:00:00.000" out="00:00:00.033">
   <property name="kdenlive:id">19</property>
  </entry>
  <entry producer="producer18" in="00:00:00.000" out="00:00:00.033">
   <property name="kdenlive:id">20</property>
  </entry>
  <entry producer="producer19" in="00:00:00.000" out="00:00:00.033">
   <property name="kdenlive:id">21</property>
  </entry>
  <entry producer="producer20" in="00:00:00.000" out="00:00:00.033">
   <property name="kdenlive:id">22</property>
  </entry>
  <entry producer="producer21" in="00:00:00.000" out="00:00:00.033">
   <property name="kdenlive:id">23</property>
  </entry>
  <entry producer="producer22" in="00:00:00.000" out="00:00:00.033">
   <property name="kdenlive:id">24</property>
  </entry>
  <entry producer="producer23" in="00:00:00.000" out="00:00:00.033">
   <property name="kdenlive:id">25</property>
  </entry>
  <entry producer="producer12" in="00:00:00.000" out="00:00:00.033">
   <property name="kdenlive:id">14</property>
  </entry>
  <entry producer="producer13" in="00:00:00.000" out="00:00:00.033">
   <property name="kdenlive:id">15</property>
  </entry>
  <entry producer="producer14" in="00:00:00.000" out="00:00:00.033">
   <property name="kdenlive:id">16</property>
  </entry>
  <entry producer="producer15" in="00:00:00.000" out="00:00:00.033">
   <property name="kdenlive:id">17</property>
  </entry>
  <entry producer="producer16" in="00:00:00.000" out="00:00:00.033">
   <property name="kdenlive:id">18</property>
  </entry>
  <entry producer="producer17" in="00:00:00.000" out="00:00:00.033">
   <property name="kdenlive:id">19</property>
  </entry>
  <entry producer="producer18" in="00:00:00.000" out="00:00:00.033">
   <property name="kdenlive:id">20</property>
  </entry>
  <entry producer="producer19" in="00:00:00.000" out="00:00:00.033">
   <property name="kdenlive:id">21</property>
  </entry>
  <entry producer="producer20" in="00:00:00.000" out="00:00:00.033">
   <property name="kdenlive:id">22</property>
  </entry>
  <entry producer="producer21" in="00:00:00.000" out="00:00:00.033">
   <property name="kdenlive:id">23</property>
  </entry>
  <entry producer="producer22" in="00:00:00.000" out="00:00:00.033">
   <property name="kdenlive:id">24</property>
  </entry>
  <entry producer="producer23" in="00:00:00.000" out="00:00:00.033">
   <property name="kdenlive:id">25</property>
  </entry>
  <entry producer="producer12" in="00:00:00.000" out="00:00:00.033">
   <property name="kdenlive:id">14</property>
  </entry>
  <entry producer="producer13" in="00:00:00.000" out="00:00:00.033">
   <property name="kdenlive:id">15</property>
  </entry>
  <entry producer="producer14" in="00:00:00.000" out="00:00:00.033">
   <property name="kdenlive:id">16</property>
  </entry>
  <entry producer="producer15" in="00:00:00.000" out="00:00:00.033">
   <property name="kdenlive:id">17</property>
  </entry>
  <entry producer="producer16" in="00:00:00.000" out="00:00:00.033">
   <property name="kdenlive:id">18</property>
  </entry>
  <entry producer="producer17" in="00:00:00.000" out="00:00:00.033">
   <property name="kdenlive:id">19</property>
  </entry>
  <entry producer="producer18" in="00:00:00.000" out="00:00:00.033">
   <property name="kdenlive:id">20</property>
  </entry>
  <entry producer="producer19" in="00:00:00.000" out="00:00:00.033">
   <property name="kdenlive:id">21</property>
  </entry>
  <entry producer="producer20" in="00:00:00.000" out="00:00:00.033">
   <property name="kdenlive:id">22</property>
  </entry>
  <entry producer="producer21" in="00:00:00.000" out="00:00:00.033">
   <property name="kdenlive:id">23</property>
  </entry>
  <entry producer="producer22" in="00:00:00.000" out="00:00:00.033">
   <property name="kdenlive:id">24</property>
  </entry>
  <entry producer="producer23" in="00:00:00.000" out="00:00:00.033">
   <property name="kdenlive:id">25</property>
  </entry>
  <entry producer="producer12" in="00:00:00.000" out="00:00:00.033">
   <property name="kdenlive:id">14</property>
  </entry>
  <entry producer="producer13" in="00:00:00.000" out="00:00:00.033">
   <property name="kdenlive:id">15</property>
  </entry>
  <entry producer="producer14" in="00:00:00.000" out="00:00:00.033">
   <property name="kdenlive:id">16</property>
  </entry>
  <entry producer="producer15" in="00:00:00.000" out="00:00:00.033">
   <property name="kdenlive:id">17</property>
  </entry>
  <entry producer="producer16" in="00:00:00.000" out="00:00:00.033">
   <property name="kdenlive:id">18</property>
  </entry>
  <entry producer="producer17" in="00:00:00.000" out="00:00:00.033">
   <property name="kdenlive:id">19</property>
  </entry>
  <entry producer="producer18" in="00:00:00.000" out="00:00:00.033">
   <property name="kdenlive:id">20</property>
  </entry>
  <entry producer="producer19" in="00:00:00.000" out="00:00:00.033">
   <property name="kdenlive:id">21</property>
  </entry>
  <entry producer="producer20" in="00:00:00.000" out="00:00:00.033">
   <property name="kdenlive:id">22</property>
  </entry>
  <entry producer="producer21" in="00:00:00.000" out="00:00:00.033">
   <property name="kdenlive:id">23</property>
  </entry>
  <entry producer="producer22" in="00:00:00.000" out="00:00:00.033">
   <property name="kdenlive:id">24</property>
  </entry>
  <entry producer="producer23" in="00:00:00.000" out="00:00:00.033">
   <property name="kdenlive:id">25</property>
  </entry>
  <entry producer="producer12" in="00:00:00.000" out="00:00:00.033">
   <property name="kdenlive:id">14</property>
  </entry>
  <entry producer="producer13" in="00:00:00.000" out="00:00:00.033">
   <property name="kdenlive:id">15</property>
  </entry>
  <entry producer="producer14" in="00:00:00.000" out="00:00:00.033">
   <property name="kdenlive:id">16</property>
  </entry>
  <entry producer="producer15" in="00:00:00.000" out="00:00:00.033">
   <property name="kdenlive:id">17</property>
  </entry>
  <entry producer="producer16" in="00:00:00.000" out="00:00:00.033">
   <property name="kdenlive:id">18</property>
  </entry>
  <entry producer="producer17" in="00:00:00.000" out="00:00:00.033">
   <property name="kdenlive:id">19</property>
  </entry>
  <entry producer="producer18" in="00:00:00.000" out="00:00:00.033">
   <property name="kdenlive:id">20</property>
  </entry>
  <entry producer="producer19" in="00:00:00.000" out="00:00:00.033">
   <property name="kdenlive:id">21</property>
  </entry>
  <entry producer="producer20" in="00:00:00.000" out="00:00:00.033">
   <property name="kdenlive:id">22</property>
  </entry>
  <entry producer="producer21" in="00:00:00.000" out="00:00:00.033">
   <property name="kdenlive:id">23</property>
  </entry>
  <entry producer="producer22" in="00:00:00.000" out="00:00:00.033">
   <property name="kdenlive:id">24</property>
  </entry>
  <entry producer="producer23" in="00:00:00.000" out="00:00:00.033">
   <property name="kdenlive:id">25</property>
  </entry>
  <entry producer="producer12" in="00:00:00.000" out="00:00:00.033">
   <property name="kdenlive:id">14</property>
  </entry>
  <entry producer="producer13" in="00:00:00.000" out="00:00:00.033">
   <property name="kdenlive:id">15</property>
  </entry>
  <entry producer="producer14" in="00:00:00.000" out="00:00:00.033">
   <property name="kdenlive:id">16</property>
  </entry>
  <entry producer="producer15" in="00:00:00.000" out="00:00:00.033">
   <property name="kdenlive:id">17</property>
  </entry>
  <entry producer="producer16" in="00:00:00.000" out="00:00:00.033">
   <property name="kdenlive:id">18</property>
  </entry>
  <entry producer="producer17" in="00:00:00.000" out="00:00:00.033">
   <property name="kdenlive:id">19</property>
  </entry>
  <entry producer="producer18" in="00:00:00.000" out="00:00:00.033">
   <property name="kdenlive:id">20</property>
  </entry>
  <entry producer="producer19" in="00:00:00.000" out="00:00:00.033">
   <property name="kdenlive:id">21</property>
  </entry>
  <entry producer="producer20" in="00:00:00.000" out="00:00:00.033">
   <property name="kdenlive:id">22</property>
  </entry>
  <entry producer="producer21" in="00:00:00.000" out="00:00:00.033">
   <property name="kdenlive:id">23</property>
  </entry>
  <entry producer="producer22" in="00:00:00.000" out="00:00:00.033">
   <property name="kdenlive:id">24</property>
  </entry>
  <entry producer="producer23" in="00:00:00.000" out="00:00:00.033">
   <property name="kdenlive:id">25</property>
  </entry>
  <entry producer="producer12" in="00:00:00.000" out="00:00:00.033">
   <property name="kdenlive:id">14</property>
  </entry>
  <entry producer="producer13" in="00:00:00.000" out="00:00:00.033">
   <property name="kdenlive:id">15</property>
  </entry>
  <entry producer="producer14" in="00:00:00.000" out="00:00:00.033">
   <property name="kdenlive:id">16</property>
  </entry>
  <entry producer="producer15" in="00:00:00.000" out="00:00:00.033">
   <property name="kdenlive:id">17</property>
  </entry>
  <entry producer="producer16" in="00:00:00.000" out="00:00:00.033">
   <property name="kdenlive:id">18</property>
  </entry>
  <entry producer="producer17" in="00:00:00.000" out="00:00:00.033">
   <property name="kdenlive:id">19</property>
  </entry>
  <entry producer="producer18" in="00:00:00.000" out="00:00:00.033">
   <property name="kdenlive:id">20</property>
  </entry>
  <entry producer="producer19" in="00:00:00.000" out="00:00:00.033">
   <property name="kdenlive:id">21</property>
  </entry>
  <entry producer="producer20" in="00:00:00.000" out="00:00:00.033">
   <property name="kdenlive:id">22</property>
  </entry>
  <entry producer="producer21" in="00:00:00.000" out="00:00:00.033">
   <property name="kdenlive:id">23</property>
  </entry>
  <entry producer="producer22" in="00:00:00.000" out="00:00:00.033">
   <property name="kdenlive:id">24</property>
  </entry>
  <entry producer="producer23" in="00:00:00.000" out="00:00:00.033">
   <property name="kdenlive:id">25</property>
  </entry>
  <entry producer="producer12" in="00:00:00.000" out="00:00:00.033">
   <property name="kdenlive:id">14</property>
  </entry>
  <entry producer="producer13" in="00:00:00.000" out="00:00:00.033">
   <property name="kdenlive:id">15</property>
  </entry>
  <entry producer="producer14" in="00:00:00.000" out="00:00:00.033">
   <property name="kdenlive:id">16</property>
  </entry>
  <entry producer="producer15" in="00:00:00.000" out="00:00:00.033">
   <property name="kdenlive:id">17</property>
  </entry>
  <entry producer="producer16" in="00:00:00.000" out="00:00:00.033">
   <property name="kdenlive:id">18</property>
  </entry>
  <entry producer="producer17" in="00:00:00.000" out="00:00:00.033">
   <property name="kdenlive:id">19</property>
  </entry>
  <entry producer="producer18" in="00:00:00.000" out="00:00:00.033">
   <property name="kdenlive:id">20</property>
  </entry>
  <entry producer="producer19" in="00:00:00.000" out="00:00:00.033">
   <property name="kdenlive:id">21</property>
  </entry>
  <entry producer="producer20" in="00:00:00.000" out="00:00:00.033">
   <property name="kdenlive:id">22</property>
  </entry>
  <entry producer="producer21" in="00:00:00.000" out="00:00:00.033">
   <property name="kdenlive:id">23</property>
  </entry>
  <entry producer="producer22" in="00:00:00.000" out="00:00:00.033">
   <property name="kdenlive:id">24</property>
  </entry>
  <entry producer="producer23" in="00:00:00.000" out="00:00:00.033">
   <property name="kdenlive:id">25</property>
  </entry>
  <entry producer="producer12" in="00:00:00.000" out="00:00:00.033">
   <property name="kdenlive:id">14</property>
  </entry>
  <entry producer="producer13" in="00:00:00.000" out="00:00:00.033">
   <property name="kdenlive:id">15</property>
  </entry>
  <entry producer="producer14" in="00:00:00.000" out="00:00:00.033">
   <property name="kdenlive:id">16</property>
  </entry>
  <entry producer="producer15" in="00:00:00.000" out="00:00:00.033">
   <property name="kdenlive:id">17</property>
  </entry>
  <entry producer="producer16" in="00:00:00.000" out="00:00:00.033">
   <property name="kdenlive:id">18</property>
  </entry>
  <entry producer="producer17" in="00:00:00.000" out="00:00:00.033">
   <property name="kdenlive:id">19</property>
  </entry>
  <entry producer="producer18" in="00:00:00.000" out="00:00:00.033">
   <property name="kdenlive:id">20</property>
  </entry>
  <entry producer="producer19" in="00:00:00.000" out="00:00:00.033">
   <property name="kdenlive:id">21</property>
  </entry>
  <entry producer="producer20" in="00:00:00.000" out="00:00:00.033">
   <property name="kdenlive:id">22</property>
  </entry>
  <entry producer="producer21" in="00:00:00.000" out="00:00:00.033">
   <property name="kdenlive:id">23</property>
  </entry>
  <entry producer="producer22" in="00:00:00.000" out="00:00:00.033">
   <property name="kdenlive:id">24</property>
  </entry>
  <entry producer="producer23" in="00:00:00.000" out="00:00:00.033">
   <property name="kdenlive:id">25</property>
  </entry>
  <entry producer="producer12" in="00:00:00.000" out="00:00:00.033">
   <property name="kdenlive:id">14</property>
  </entry>
  <entry producer="producer13" in="00:00:00.000" out="00:00:00.033">
   <property name="kdenlive:id">15</property>
  </entry>
  <entry producer="producer14" in="00:00:00.000" out="00:00:00.033">
   <property name="kdenlive:id">16</property>
  </entry>
  <entry producer="producer15" in="00:00:00.000" out="00:00:00.033">
   <property name="kdenlive:id">17</property>
  </entry>
  <entry producer="producer16" in="00:00:00.000" out="00:00:00.033">
   <property name="kdenlive:id">18</property>
  </entry>
  <entry producer="producer17" in="00:00:00.000" out="00:00:00.033">
   <property name="kdenlive:id">19</property>
  </entry>
  <entry producer="producer18" in="00:00:00.000" out="00:00:00.033">
   <property name="kdenlive:id">20</property>
  </entry>
  <entry producer="producer19" in="00:00:00.000" out="00:00:00.033">
   <property name="kdenlive:id">21</property>
  </entry>
  <entry producer="producer20" in="00:00:00.000" out="00:00:00.033">
   <property name="kdenlive:id">22</property>
  </entry>
  <entry producer="producer21" in="00:00:00.000" out="00:00:00.033">
   <property name="kdenlive:id">23</property>
  </entry>
  <entry producer="producer22" in="00:00:00.000" out="00:00:00.033">
   <property name="kdenlive:id">24</property>
  </entry>
  <entry producer="producer23" in="00:00:00.000" out="00:00:00.033">
   <property name="kdenlive:id">25</property>
  </entry>
  <entry producer="producer12" in="00:00:00.000" out="00:00:00.033">
   <property name="kdenlive:id">14</property>
  </entry>
  <entry producer="producer13" in="00:00:00.000" out="00:00:00.033">
   <property name="kdenlive:id">15</property>
  </entry>
  <entry producer="producer14" in="00:00:00.000" out="00:00:00.033">
   <property name="kdenlive:id">16</property>
  </entry>
  <entry producer="producer15" in="00:00:00.000" out="00:00:00.033">
   <property name="kdenlive:id">17</property>
  </entry>
  <entry producer="producer16" in="00:00:00.000" out="00:00:00.033">
   <property name="kdenlive:id">18</property>
  </entry>
  <entry producer="producer17" in="00:00:00.000" out="00:00:00.033">
   <property name="kdenlive:id">19</property>
  </entry>
  <entry producer="producer18" in="00:00:00.000" out="00:00:00.033">
   <property name="kdenlive:id">20</property>
  </entry>
  <entry producer="producer19" in="00:00:00.000" out="00:00:00.033">
   <property name="kdenlive:id">21</property>
  </entry>
  <entry producer="producer20" in="00:00:00.000" out="00:00:00.033">
   <property name="kdenlive:id">22</property>
  </entry>
  <entry producer="producer21" in="00:00:00.000" out="00:00:00.033">
   <property name="kdenlive:id">23</property>
  </entry>
  <entry producer="producer22" in="00:00:00.000" out="00:00:00.033">
   <property name="kdenlive:id">24</property>
  </entry>
  <entry producer="producer23" in="00:00:00.000" out="00:00:00.033">
   <property name="kdenlive:id">25</property>
  </entry>
  <entry producer="producer12" in="00:00:00.000" out="00:00:00.033">
   <property name="kdenlive:id">14</property>
  </entry>
  <entry producer="producer13" in="00:00:00.000" out="00:00:00.033">
   <property name="kdenlive:id">15</property>
  </entry>
  <entry producer="producer14" in="00:00:00.000" out="00:00:00.033">
   <property name="kdenlive:id">16</property>
  </entry>
  <entry producer="producer15" in="00:00:00.000" out="00:00:00.033">
   <property name="kdenlive:id">17</property>
  </entry>
  <entry producer="producer16" in="00:00:00.000" out="00:00:00.033">
   <property name="kdenlive:id">18</property>
  </entry>
  <entry producer="producer17" in="00:00:00.000" out="00:00:00.033">
   <property name="kdenlive:id">19</property>
  </entry>
  <entry producer="producer18" in="00:00:00.000" out="00:00:00.033">
   <property name="kdenlive:id">20</property>
  </entry>
  <entry producer="producer19" in="00:00:00.000" out="00:00:00.033">
   <property name="kdenlive:id">21</property>
  </entry>
  <entry producer="producer20" in="00:00:00.000" out="00:00:00.033">
   <property name="kdenlive:id">22</property>
  </entry>
  <entry producer="producer21" in="00:00:00.000" out="00:00:00.033">
   <property name="kdenlive:id">23</property>
  </entry>
  <entry producer="producer22" in="00:00:00.000" out="00:00:00.033">
   <property name="kdenlive:id">24</property>
  </entry>
  <entry producer="producer85" in="00:00:00.067" out="00:00:04.533">
   <property name="kdenlive:id">12</property>
   <filter id="filter83">
    <property name="rotate_center">1</property>
    <property name="mlt_service">qtblend</property>
    <property name="kdenlive_id">qtblend</property>
    <property name="rect">00:00:00.067=358 0 2312 1080 1.000000</property>
    <property name="rotation">00:00:00.067=0</property>
    <property name="compositing">0</property>
    <property name="distort">0</property>
    <property name="kdenlive:collapsed">0</property>
   </filter>
   <filter id="filter84">
    <property name="version">0.6</property>
    <property name="mlt_service">frei0r.select0r</property>
    <property name="kdenlive_id">frei0r.select0r</property>
    <property name="Color to select">0x00ff00ff</property>
    <property name="Invert selection">1</property>
    <property name="Selection subspace">0</property>
    <property name="Subspace shape">0.5</property>
    <property name="Edge mode">0.9</property>
    <property name="Delta R / A / Hue">00:00:00.067=0.2</property>
    <property name="Delta G / B / Chroma">00:00:00.067=0.2</property>
    <property name="Delta B / I / I">00:00:00.067=0.2</property>
    <property name="Slope">00:00:00.067=0</property>
    <property name="Operation">0.5</property>
    <property name="kdenlive:collapsed">0</property>
   </filter>
   <filter id="filter85">
    <property name="mlt_service">greyscale</property>
    <property name="kdenlive_id">greyscale</property>
    <property name="kdenlive:collapsed">0</property>
   </filter>
   <filter id="filter86" in="00:00:04.033" out="00:00:04.533">
    <property name="start">1</property>
    <property name="mlt_service">brightness</property>
    <property name="kdenlive_id">fade_to_black</property>
    <property name="end">0</property>
    <property name="alpha">1</property>
    <property name="kdenlive:collapsed">0</property>
   </filter>
  </entry>
 </playlist>
 <playlist id="playlist19"/>
 <tractor id="tractor9" in="00:00:00.000" out="00:00:38.900">
  <property name="kdenlive:trackheight">67</property>
  <property name="kdenlive:timeline_active">1</property>
  <property name="kdenlive:collapsed">0</property>
  <property name="kdenlive:thumbs_format"/>
  <property name="kdenlive:audio_rec"/>
  <track hide="audio" producer="playlist18"/>
  <track producer="playlist19"/>
 </tractor>
 <producer id="producer86" in="00:00:00.000" out="00:03:35.067">
  <property name="length">6453</property>
  <property name="eof">pause</property>
  <property name="resource">clips/never gonna give you up but i put router's face on top of rick astley's face.mp4</property>
  <property name="audio_index">1</property>
  <property name="video_index">0</property>
  <property name="mute_on_pause">0</property>
  <property name="mlt_service">avformat-novalidate</property>
  <property name="seekable">1</property>
  <property name="aspect_ratio">1</property>
  <property name="kdenlive:clipname"/>
  <property name="kdenlive:folderid">-1</property>
  <property name="kdenlive:id">6</property>
  <property name="kdenlive:file_size">60270763</property>
  <property name="kdenlive:file_hash">c58d662c6586ac72df5c23b0fb08eeb3</property>
  <property name="global_feed">1</property>
  <property name="xml">was here</property>
  <property name="meta.media.nb_streams">2</property>
  <property name="meta.media.0.stream.type">video</property>
  <property name="meta.media.0.stream.frame_rate">30</property>
  <property name="meta.media.0.stream.sample_aspect_ratio">1</property>
  <property name="meta.media.0.codec.width">1280</property>
  <property name="meta.media.0.codec.height">720</property>
  <property name="meta.media.0.codec.rotate">0</property>
  <property name="meta.media.0.codec.frame_rate">30</property>
  <property name="meta.media.0.codec.pix_fmt">yuv420p</property>
  <property name="meta.media.0.codec.sample_aspect_ratio">1</property>
  <property name="meta.media.0.codec.colorspace">709</property>
  <property name="meta.media.0.codec.name">h264</property>
  <property name="meta.media.0.codec.long_name">H.264 / AVC / MPEG-4 AVC / MPEG-4 part 10</property>
  <property name="meta.media.0.codec.bit_rate">2044023</property>
  <property name="meta.attr.0.stream.handler_name.markup">VideoHandler</property>
  <property name="meta.media.1.stream.type">audio</property>
  <property name="meta.media.1.codec.sample_fmt">fltp</property>
  <property name="meta.media.1.codec.sample_rate">44100</property>
  <property name="meta.media.1.codec.channels">2</property>
  <property name="meta.media.1.codec.name">aac</property>
  <property name="meta.media.1.codec.long_name">AAC (Advanced Audio Coding)</property>
  <property name="meta.media.1.codec.bit_rate">190732</property>
  <property name="meta.attr.1.stream.handler_name.markup">SoundHandler</property>
  <property name="meta.attr.major_brand.markup">isom</property>
  <property name="meta.attr.minor_version.markup">512</property>
  <property name="meta.attr.compatible_brands.markup">isomiso2avc1mp41</property>
  <property name="meta.attr.encoder.markup">Lavf58.46.101</property>
  <property name="meta.media.sample_aspect_num">1</property>
  <property name="meta.media.sample_aspect_den">1</property>
  <property name="meta.media.frame_rate_num">30</property>
  <property name="meta.media.frame_rate_den">1</property>
  <property name="meta.media.colorspace">709</property>
  <property name="meta.media.color_trc">2</property>
  <property name="meta.media.width">1280</property>
  <property name="meta.media.height">720</property>
  <property name="meta.media.color_range">mpeg</property>
  <property name="meta.media.top_field_first">0</property>
  <property name="meta.media.progressive">1</property>
  <property name="set.test_audio">1</property>
  <property name="set.test_image">0</property>
 </producer>
 <playlist id="playlist20">
  <blank length="00:00:09.033"/>
  <entry producer="producer86" in="00:00:03.100" out="00:00:04.567">
   <property name="kdenlive:id">6</property>
   <property name="kdenlive:activeeffect">1</property>
   <filter id="filter87">
    <property name="mlt_service">crop</property>
    <property name="kdenlive_id">crop</property>
    <property name="top">0</property>
    <property name="left">175</property>
    <property name="bottom">0</property>
    <property name="right">175</property>
    <property name="center">0</property>
    <property name="center_bias">0</property>
    <property name="use_profile">0</property>
    <property name="kdenlive:collapsed">0</property>
   </filter>
   <filter id="filter88">
    <property name="rotate_center">1</property>
    <property name="mlt_service">qtblend</property>
    <property name="kdenlive_id">qtblend</property>
    <property name="rect">00:00:03.100=194 298 601 280 1.000000;00:00:03.600~=194 298 601 280 1.000000;00:00:04.133~=116 -6 1872 874 1.000000;00:00:04.400~=-4182 -1911 10057 4698 1.000000;00:00:04.567~=830 -546 23 10 1.000000</property>
    <property name="rotation">00:00:03.100=0;00:00:03.600~=0;00:00:04.133~=0;00:00:04.400~=0;00:00:04.567~=0</property>
    <property name="compositing">0</property>
    <property name="distort">0</property>
    <property name="kdenlive:collapsed">0</property>
   </filter>
  </entry>
 </playlist>
 <playlist id="playlist21"/>
 <tractor id="tractor10" in="00:00:00.000" out="00:00:10.500">
  <property name="kdenlive:trackheight">67</property>
  <property name="kdenlive:timeline_active">1</property>
  <property name="kdenlive:collapsed">0</property>
  <property name="kdenlive:thumbs_format"/>
  <property name="kdenlive:audio_rec"/>
  <track hide="audio" producer="playlist20"/>
  <track producer="playlist21"/>
 </tractor>
 <playlist id="playlist22"/>
 <playlist id="playlist23"/>
 <tractor id="tractor11" in="00:00:00.000">
  <property name="kdenlive:trackheight">67</property>
  <property name="kdenlive:timeline_active">1</property>
  <property name="kdenlive:collapsed">0</property>
  <property name="kdenlive:thumbs_format"/>
  <property name="kdenlive:audio_rec"/>
  <track hide="audio" producer="playlist22"/>
  <track producer="playlist23"/>
 </tractor>
 <tractor id="tractor12" global_feed="1" in="00:00:00.000" out="00:17:46.833">
  <track producer="black_track"/>
  <track producer="tractor0"/>
  <track producer="tractor1"/>
  <track producer="tractor2"/>
  <track producer="tractor3"/>
  <track producer="tractor4"/>
  <track producer="tractor5"/>
  <track producer="tractor6"/>
  <track producer="tractor7"/>
  <track producer="tractor8"/>
  <track producer="tractor9"/>
  <track producer="tractor10"/>
  <track producer="tractor11"/>
  <transition id="transition0" in="00:00:03.100" out="00:00:03.400">
   <property name="a_track">8</property>
   <property name="b_track">9</property>
   <property name="factory">loader</property>
   <property name="resource"/>
   <property name="mlt_service">luma</property>
   <property name="kdenlive_id">dissolve</property>
   <property name="softness">0</property>
   <property name="reverse">0</property>
  </transition>
  <transition id="transition1">
   <property name="a_track">0</property>
   <property name="b_track">1</property>
   <property name="mlt_service">mix</property>
   <property name="kdenlive_id">mix</property>
   <property name="internal_added">237</property>
   <property name="always_active">1</property>
   <property name="accepts_blanks">1</property>
   <property name="sum">1</property>
  </transition>
  <transition id="transition2">
   <property name="a_track">0</property>
   <property name="b_track">2</property>
   <property name="mlt_service">mix</property>
   <property name="kdenlive_id">mix</property>
   <property name="internal_added">237</property>
   <property name="always_active">1</property>
   <property name="accepts_blanks">1</property>
   <property name="sum">1</property>
  </transition>
  <transition id="transition3">
   <property name="a_track">0</property>
   <property name="b_track">3</property>
   <property name="mlt_service">mix</property>
   <property name="kdenlive_id">mix</property>
   <property name="internal_added">237</property>
   <property name="always_active">1</property>
   <property name="accepts_blanks">1</property>
   <property name="sum">1</property>
  </transition>
  <transition id="transition4">
   <property name="a_track">0</property>
   <property name="b_track">4</property>
   <property name="mlt_service">mix</property>
   <property name="kdenlive_id">mix</property>
   <property name="internal_added">237</property>
   <property name="always_active">1</property>
   <property name="accepts_blanks">1</property>
   <property name="sum">1</property>
  </transition>
  <transition id="transition5">
   <property name="a_track">0</property>
   <property name="b_track">5</property>
   <property name="compositing">0</property>
   <property name="distort">0</property>
   <property name="rotate_center">0</property>
   <property name="mlt_service">qtblend</property>
   <property name="kdenlive_id">qtblend</property>
   <property name="internal_added">237</property>
   <property name="always_active">1</property>
  </transition>
  <transition id="transition6">
   <property name="a_track">0</property>
   <property name="b_track">6</property>
   <property name="compositing">0</property>
   <property name="distort">0</property>
   <property name="rotate_center">0</property>
   <property name="mlt_service">qtblend</property>
   <property name="kdenlive_id">qtblend</property>
   <property name="internal_added">237</property>
   <property name="always_active">1</property>
  </transition>
  <transition id="transition7">
   <property name="a_track">0</property>
   <property name="b_track">7</property>
   <property name="compositing">0</property>
   <property name="distort">0</property>
   <property name="rotate_center">0</property>
   <property name="mlt_service">qtblend</property>
   <property name="kdenlive_id">qtblend</property>
   <property name="internal_added">237</property>
   <property name="always_active">1</property>
  </transition>
  <transition id="transition8">
   <property name="a_track">0</property>
   <property name="b_track">8</property>
   <property name="compositing">0</property>
   <property name="distort">0</property>
   <property name="rotate_center">0</property>
   <property name="mlt_service">qtblend</property>
   <property name="kdenlive_id">qtblend</property>
   <property name="internal_added">237</property>
   <property name="always_active">1</property>
  </transition>
  <transition id="transition9">
   <property name="a_track">0</property>
   <property name="b_track">9</property>
   <property name="compositing">0</property>
   <property name="distort">0</property>
   <property name="rotate_center">0</property>
   <property name="mlt_service">qtblend</property>
   <property name="kdenlive_id">qtblend</property>
   <property name="internal_added">237</property>
   <property name="always_active">1</property>
  </transition>
  <transition id="transition10">
   <property name="a_track">0</property>
   <property name="b_track">10</property>
   <property name="compositing">0</property>
   <property name="distort">0</property>
   <property name="rotate_center">0</property>
   <property name="mlt_service">qtblend</property>
   <property name="kdenlive_id">qtblend</property>
   <property name="internal_added">237</property>
   <property name="always_active">1</property>
  </transition>
  <transition id="transition11">
   <property name="a_track">0</property>
   <property name="b_track">11</property>
   <property name="compositing">0</property>
   <property name="distort">0</property>
   <property name="rotate_center">0</property>
   <property name="mlt_service">qtblend</property>
   <property name="kdenlive_id">qtblend</property>
   <property name="internal_added">237</property>
   <property name="always_active">1</property>
  </transition>
  <transition id="transition12">
   <property name="a_track">0</property>
   <property name="b_track">12</property>
   <property name="compositing">0</property>
   <property name="distort">0</property>
   <property name="rotate_center">0</property>
   <property name="mlt_service">qtblend</property>
   <property name="kdenlive_id">qtblend</property>
   <property name="internal_added">237</property>
   <property name="always_active">1</property>
  </transition>
  <filter id="filter89">
   <property name="window">75</property>
   <property name="max_gain">20dB</property>
   <property name="mlt_service">volume</property>
   <property name="internal_added">237</property>
   <property name="disable">1</property>
  </filter>
  <filter id="filter90">
   <property name="channel">-1</property>
   <property name="mlt_service">panner</property>
   <property name="internal_added">237</property>
   <property name="start">0.5</property>
   <property name="disable">1</property>
  </filter>
  <filter id="filter91">
   <property name="version">0.1</property>
   <property name="mlt_service">frei0r.scale0tilt</property>
   <property name="kdenlive_id">frei0r.scale0tilt</property>
   <property name="Clip left">00:00:00.000|=0;00:00:20.667|=0.267301;00:00:42.367|=0</property>
   <property name="Clip right">00:00:00.000|=0;00:00:20.667|=0.267301;00:00:42.367|=0</property>
   <property name="Clip top">00:00:00.000|=0;00:00:20.667|=0;00:00:42.367|=0</property>
   <property name="Clip bottom">00:00:00.000|=0;00:00:20.667|=0;00:00:42.367|=0</property>
   <property name="Scale X">0.5</property>
   <property name="Scale Y">0.5</property>
   <property name="Tilt X">00:00:00.000|=0.5;00:00:20.667|=0.5;00:00:42.367|=0.5</property>
   <property name="Tilt Y">00:00:00.000|=0.5;00:00:20.667|=0.5;00:00:42.367|=0.5</property>
   <property name="kdenlive:collapsed">0</property>
  </filter>
  <filter id="filter92">
   <property name="iec_scale">0</property>
   <property name="mlt_service">audiolevel</property>
   <property name="disable">1</property>
  </filter>
 </tractor>
</mlt>
